<svg id="line-chart" xmlns="http://www.w3.org/2000/svg" width="64" height="64" viewBox="0 0 64 64">
  <path id="Caminho_614" data-name="Caminho 614" d="M86.687,29.75a4.684,4.684,0,0,0,4.187-6.792l6.913-5.444a4.675,4.675,0,0,0,6.036.013l6.812,5.413a4.688,4.688,0,1,0,7.549-1.129L126.984,9a4.706,4.706,0,1,0-1.544-1.065l-8.8,12.807a4.679,4.679,0,0,0-4.839.727L104.99,16.06a4.687,4.687,0,1,0-8.364-.018l-6.913,5.444a4.686,4.686,0,1,0-3.025,8.264ZM128.813,1.875A2.813,2.813,0,1,1,126,4.688,2.816,2.816,0,0,1,128.813,1.875Zm-14,20.375A2.813,2.813,0,1,1,112,25.063,2.816,2.816,0,0,1,114.812,22.25Zm-14-11.125A2.813,2.813,0,1,1,98,13.938,2.816,2.816,0,0,1,100.812,11.125ZM86.687,22.25a2.813,2.813,0,1,1-2.812,2.813A2.816,2.816,0,0,1,86.687,22.25Z" transform="translate(-71.75 0)" fill="#fff"/>
  <path id="Caminho_615" data-name="Caminho 615" d="M63.063,396.813H33a.938.938,0,0,0,0,1.875H62.125v2.5H2.813a.94.94,0,0,1-.937-.937V388.438a.938.938,0,0,0-1.875,0V400.25a2.815,2.815,0,0,0,2.813,2.813h60.25a.938.938,0,0,0,.938-.937V397.75A.938.938,0,0,0,63.063,396.813Z" transform="translate(0 -339.063)" fill="#fff"/>
  <path id="Caminho_616" data-name="Caminho 616" d="M.938,46.063a.938.938,0,0,0,.938-.937V1.875h2.5V58.688a.938.938,0,0,0,.938.938H28.75a.938.938,0,0,0,0-1.875H6.25V.938A.938.938,0,0,0,5.313,0H.938A.938.938,0,0,0,0,.938V45.125A.938.938,0,0,0,.938,46.063Z" fill="#fff"/>
  <path id="Caminho_617" data-name="Caminho 617" d="M89.938,284a.938.938,0,0,0-.937.938v17.5a.938.938,0,0,0,.938.938h6.25a.938.938,0,0,0,.938-.937v-17.5a.938.938,0,0,0-.937-.937Zm5.313,17.5H90.875V285.875H95.25Z" transform="translate(-77.875 -248.5)" fill="#fff"/>
  <path id="Caminho_618" data-name="Caminho 618" d="M200.938,195a.938.938,0,0,0-.937.938v28.625a.938.938,0,0,0,.938.938h6.25a.938.938,0,0,0,.938-.937V195.938a.938.938,0,0,0-.937-.937Zm5.313,28.625h-4.375v-26.75h4.375Z" transform="translate(-175 -170.625)" fill="#fff"/>
  <path id="Caminho_619" data-name="Caminho 619" d="M312.938,284a.938.938,0,0,0-.937.938v17.5a.938.938,0,0,0,.938.938h6.25a.938.938,0,0,0,.938-.937v-17.5a.938.938,0,0,0-.937-.937Zm5.313,17.5h-4.375V285.875h4.375Z" transform="translate(-273 -248.5)" fill="#fff"/>
  <path id="Caminho_620" data-name="Caminho 620" d="M424.938,121a.938.938,0,0,0-.937.938v37.875a.938.938,0,0,0,.938.938h6.25a.938.938,0,0,0,.938-.937V121.938a.938.938,0,0,0-.937-.937Zm5.313,37.875h-4.375v-36h4.375Z" transform="translate(-371 -105.875)" fill="#fff"/>
</svg>
