<svg xmlns="http://www.w3.org/2000/svg" width="11.76" height="11.76" viewBox="0 0 11.76 11.76">
  <path id="percent" d="M9.8,8.82a.994.994,0,1,0-.291.689A.941.941,0,0,0,9.8,8.82ZM3.92,2.94a.941.941,0,0,0-.291-.689.961.961,0,0,0-1.378,0,.961.961,0,0,0,0,1.378.961.961,0,0,0,1.378,0A.941.941,0,0,0,3.92,2.94Zm7.84,5.88a2.941,2.941,0,0,1-2.94,2.94A2.941,2.941,0,0,1,5.88,8.82,2.941,2.941,0,0,1,8.82,5.88a2.941,2.941,0,0,1,2.94,2.94ZM11.025.49a.489.489,0,0,1-.1.291L2.84,11.561a.459.459,0,0,1-.39.2H1.225a.472.472,0,0,1-.345-.145.469.469,0,0,1-.145-.345.489.489,0,0,1,.1-.291L8.919.2A.459.459,0,0,1,9.31,0h1.225a.472.472,0,0,1,.345.145A.469.469,0,0,1,11.025.49ZM5.88,2.94a2.832,2.832,0,0,1-.861,2.079A2.834,2.834,0,0,1,2.94,5.88,2.831,2.831,0,0,1,.861,5.018,2.833,2.833,0,0,1,0,2.94,2.833,2.833,0,0,1,.861.861,2.831,2.831,0,0,1,2.94,0,2.834,2.834,0,0,1,5.018.861,2.832,2.832,0,0,1,5.88,2.94Z" fill="#fec42d"/>
</svg>
