<svg xmlns="http://www.w3.org/2000/svg" width="28.841" height="39.699" viewBox="0 0 28.841 39.699">
  <g id="Caminho_1702" data-name="Caminho 1702" transform="translate(-160.68 -22.734)" fill="#fd3141">
    <path d="M 175.0956420898438 60.9333610534668 C 171.6457672119141 60.9333610534668 168.4023742675781 59.58988952636719 165.9629211425781 57.15044021606445 C 163.5234680175781 54.71099090576172 162.1799926757812 51.46759033203125 162.1799926757812 48.0177116394043 C 162.1799926757812 45.67007064819336 163.5682983398438 42.44087219238281 167.4647064208984 40.41833114624023 L 168.5299224853516 39.86539840698242 C 168.1857604980469 38.59413528442383 168.1038360595703 37.29574203491211 168.2867279052734 35.99702072143555 C 168.8605194091797 31.92280197143555 171.8980255126953 28.78072166442871 174.3248291015625 27.32798194885254 L 177.0869598388672 25.67451095581055 L 176.5762786865234 28.85296058654785 C 176.2726287841797 30.74285125732422 177.7582244873047 32.07564163208008 180.4101257324219 34.26863098144531 C 182.1197357177734 35.68239974975586 184.0574493408203 37.2848014831543 185.5520477294922 39.43756103515625 C 186.7995452880859 41.23442840576172 187.5671691894531 43.16715240478516 187.8710327148438 45.29253387451172 L 188.0108337402344 45.19832229614258 L 188.0111083984375 46.88992309570312 C 188.0241851806641 47.26428604125977 188.0242156982422 47.64453125 188.0112915039062 48.03086471557617 C 188.0078430175781 51.47586441040039 186.6647033691406 54.71421813964844 184.2283630371094 57.15052032470703 C 181.7889404296875 59.58992004394531 178.5455322265625 60.9333610534668 175.0956420898438 60.9333610534668 Z M 169.553955078125 42.3402214050293 C 168.8978881835938 45.03080368041992 169.1176605224609 47.25819778442383 170.1787872314453 48.62886047363281 C 170.7809600830078 49.40668106079102 171.6453704833984 49.87105178833008 172.4911041259766 49.87105178833008 C 172.7023468017578 49.87105178833008 173.4091491699219 49.83065032958984 173.6348571777344 49.310791015625 C 173.9147338867188 48.66612243652344 173.5402984619141 47.16296005249023 171.5638732910156 45.04825210571289 C 170.7492218017578 44.17652130126953 170.0773162841797 43.270751953125 169.553955078125 42.3402214050293 Z" stroke="none"/>
    <path d="M 175.0956420898438 59.4333610534668 C 181.4002838134766 59.4333610534668 186.5112915039062 54.32255172729492 186.5112915039062 48.0177116394043 L 186.5108337402344 48.01802062988281 C 186.928955078125 36.33576202392578 174.0578460693359 35.07184219360352 175.0952758789062 28.6150016784668 C 171.2217102050781 30.93380165100098 166.5088348388672 37.4421501159668 172.6597595214844 44.02403259277344 C 181.3796844482422 53.35410308837891 164.7166290283203 55.04032897949219 168.15576171875 41.74966049194336 C 164.6724853515625 43.5577507019043 163.6799926757812 46.30121231079102 163.6799926757812 48.0177116394043 C 163.6799926757812 54.32237243652344 168.7910003662109 59.4333610534668 175.0956420898438 59.4333610534668 M 175.0956420898438 62.4333610534668 C 171.2451019287109 62.4333610534668 167.6250305175781 60.93387222290039 164.9022674560547 58.21110153198242 C 162.1794891357422 55.48834228515625 160.6799926757812 51.86825180053711 160.6799926757812 48.0177116394043 C 160.6799926757812 46.46788024902344 161.1654510498047 44.81435012817383 162.0469055175781 43.36172103881836 C 163.1173858642578 41.59762191772461 164.7076873779297 40.15940093994141 166.7736511230469 39.08700180053711 L 166.8279724121094 39.05879974365234 C 166.6349029541016 37.83038330078125 166.6701507568359 36.71968841552734 166.8013763427734 35.787841796875 C 167.0926971435547 33.71934127807617 167.9811401367188 31.6577320098877 169.3706817626953 29.8259105682373 C 170.5180511474609 28.31334114074707 172.0038452148438 26.96915054321289 173.5543975830078 26.04096221923828 L 179.0786590576172 22.73401069641113 L 178.0572814941406 29.09091186523438 C 177.8921966552734 30.11838150024414 178.9387359619141 31.10541152954102 181.3660278320312 33.1126823425293 C 183.1500701904297 34.58798980712891 185.1721343994141 36.26013946533203 186.7842102050781 38.58212280273438 C 187.7141265869141 39.92156982421875 188.4035797119141 41.32754135131836 188.8578491210938 42.81868362426758 L 189.5108337402344 42.37863159179688 L 189.5111999511719 46.85445022583008 C 189.5243682861328 47.24939346313477 189.5243530273438 47.65005874633789 189.5112457275391 48.05688858032227 C 189.5010223388672 51.89276885986328 188.0024871826172 55.49774932861328 185.2890167236328 58.211181640625 C 182.5662689208984 60.93390274047852 178.9461975097656 62.4333610534668 175.0956420898438 62.4333610534668 Z M 170.8119049072266 46.4534797668457 C 170.9238739013672 46.95479965209961 171.1085357666016 47.37949371337891 171.3648834228516 47.71061325073242 C 171.5802307128906 47.98876571655273 171.8200378417969 48.16464233398438 172.04150390625 48.26432800292969 C 171.8659057617188 47.8638916015625 171.5145416259766 47.26123809814453 170.8119049072266 46.4534797668457 Z" stroke="none" fill="#fff"/>
  </g>
</svg>
