<svg width="13" height="13" viewBox="0 0 13 13" fill="none" xmlns="http://www.w3.org/2000/svg">
<path d="M6.26508 12.3283C5.54719 12.3283 4.82444 12.0249 4.26176 11.4237C2.83082 9.88533 1.2495 7.43158 1.84614 4.512C2.38456 1.86325 4.45579 0.677002 6.26508 0.677002C6.26508 0.677002 6.26508 0.677002 6.26993 0.677002C8.07923 0.677002 10.1505 1.86325 10.6889 4.51742C11.2807 7.437 9.69935 9.88533 8.2684 11.4237C7.70573 12.0249 6.98298 12.3283 6.26508 12.3283ZM6.26508 1.4895C4.85354 1.4895 3.0394 2.32908 2.55918 4.69075C2.03531 7.242 3.4711 9.44117 4.77108 10.8333C5.61024 11.7378 6.92477 11.7378 7.76394 10.8333C9.05906 9.44117 10.4949 7.242 9.98068 4.69075C9.49562 2.32908 7.67662 1.4895 6.26508 1.4895Z" fill="#0B1841"/>
<path d="M5.65854 7.44803C5.56638 7.44803 5.47422 7.41011 5.40146 7.32886L4.67386 6.51636C4.53319 6.35928 4.53319 6.09928 4.67386 5.94219C4.81453 5.78511 5.04736 5.78511 5.18803 5.94219L5.65854 6.46761L7.34172 4.58803C7.48239 4.43094 7.71522 4.43094 7.85589 4.58803C7.99656 4.74511 7.99656 5.00511 7.85589 5.16219L5.91563 7.32886C5.84287 7.41011 5.75071 7.44803 5.65854 7.44803Z" fill="#0B1841"/>
</svg>
