<svg xmlns="http://www.w3.org/2000/svg" width="26.534" height="26.516" viewBox="0 0 26.534 26.516">
  <path id="Caminho_1738" data-name="Caminho 1738" d="M144.471,61.508a.714.714,0,0,0-.68.712v2.4a.714.714,0,1,0,1.423,0v-2.4a.631.631,0,0,0,0-.074.714.714,0,0,0-.743-.637Zm-8.792,2.708c-.025,0-.05.006-.074.011a.714.714,0,0,0-.425,1.221l1.317,1.317a.714.714,0,1,0,1.009-1.009l-1.317-1.317a.713.713,0,0,0-.51-.223Zm17.744,0-.011.011a.713.713,0,0,0-.414.212l-1.317,1.317h0a.714.714,0,1,0,1.009,1.009l1.317-1.317h0a.714.714,0,0,0-.584-1.232Zm-8.835,2.761a6.6,6.6,0,0,0-6.541,6.562,7.5,7.5,0,0,0,1.837,5.15,8.243,8.243,0,0,1,2.081,4.046h5.256a8.242,8.242,0,0,1,2.081-4.046,7.5,7.5,0,0,0,1.837-5.15,6.606,6.606,0,0,0-6.552-6.562Zm-10.056,6.116a.711.711,0,0,0-.074.011h-2.4a.637.637,0,0,0-.074,0,.714.714,0,0,0,.074,1.423h2.4a.718.718,0,1,0,.074-1.434Zm22.67.053a.653.653,0,0,0-.074.011h-1.975a.636.636,0,0,0-.074,0,.714.714,0,0,0,.074,1.423h1.975a.718.718,0,1,0,.074-1.434Zm-19.793,7.093h0c-.021,0-.043.006-.064.01a.714.714,0,0,0-.425.212l-1.7,1.7a.714.714,0,1,0,1.009,1.009l1.7-1.7a.714.714,0,0,0-.52-1.232Zm14.346,0h0a.719.719,0,0,0-.5,1.232l1.7,1.7a.714.714,0,1,0,1.009-1.009l-1.7-1.7a.713.713,0,0,0-.51-.223Zm-9.748,3.929v3.249a.6.6,0,0,0,.605.605h3.961a.6.6,0,0,0,.605-.605V84.168Z" transform="translate(-131.349 -61.507)" fill="#fff"/>
</svg>
