<svg width="43" height="43" viewBox="0 0 43 43" fill="none" xmlns="http://www.w3.org/2000/svg">
<path d="M31.7461 43C31.5244 42.8119 31.2884 42.638 31.0826 42.4331C27.8551 39.2115 24.6276 35.9907 21.4152 32.7547C21.0952 32.4331 20.7811 32.2962 20.3242 32.2937C18.8998 32.2861 17.4688 32.2928 16.0519 32.1643C14.2429 32.0006 12.5783 31.3379 11.0607 30.3419C9.23828 29.1451 7.4259 27.9315 5.62695 26.7012C4.47805 25.9151 3.99346 24.788 4.24625 23.4258C4.49904 22.061 5.36492 21.196 6.71875 20.8794C7.14623 20.7794 7.60479 20.8164 8.10533 20.7878C8.00539 20.6803 7.91301 20.5737 7.81391 20.4746C5.70758 18.3674 3.61049 16.251 1.4882 14.1598C0.811289 13.4921 0.209121 12.7992 0 11.8418C0 11.5059 0 11.1699 0 10.834C0.0293945 10.7584 0.0663477 10.6845 0.0865039 10.6064C0.346016 9.61285 0.942305 8.89898 1.86697 8.45639C1.97447 8.40516 2.08029 8.35141 2.19199 8.29598C0.979258 6.72715 0.91459 5.13732 1.99631 3.89352C2.4809 3.3367 3.08643 2.98648 3.81289 2.85211C4.93912 2.64299 5.89318 3.01168 6.73639 3.79022C7.13195 2.74713 7.80383 2.03494 8.83432 1.72084C9.87152 1.40506 10.8424 1.60158 11.7217 2.22811C11.888 1.92492 12.014 1.6251 12.2029 1.37146C12.4003 1.10607 12.622 0.826406 12.8975 0.657598C13.3292 0.392207 13.8146 0.215 14.2773 0C14.6133 0 14.9492 0 15.2852 0C16.2602 0.208281 16.969 0.816328 17.6384 1.5134C18.6571 2.57244 19.7153 3.59285 20.7458 4.64014C21.1053 5.00631 21.0994 5.51273 20.771 5.84195C20.4401 6.17369 19.948 6.16697 19.565 5.82348C19.4819 5.74873 19.4054 5.66643 19.3265 5.58664C18.1784 4.43857 17.0329 3.28799 15.8814 2.14412C15.4355 1.70152 14.8988 1.55539 14.3017 1.77039C13.7256 1.97783 13.3879 2.40447 13.3191 3.01588C13.2628 3.52146 13.4518 3.93635 13.8129 4.2958C15.6984 6.17117 17.5763 8.05326 19.455 9.93535C19.5734 10.0538 19.6952 10.1747 19.7834 10.3141C19.9958 10.6526 19.927 11.0759 19.6364 11.3471C19.3525 11.6125 18.9595 11.6579 18.6319 11.442C18.4934 11.3513 18.3741 11.2279 18.2557 11.1103C15.8302 8.6865 13.4047 6.26355 10.9826 3.83641C10.6551 3.50803 10.2998 3.26447 9.81441 3.26027C9.19293 3.25439 8.63947 3.58109 8.4102 4.14127C8.1742 4.71992 8.25314 5.26498 8.66803 5.74705C8.75033 5.84195 8.84439 5.92678 8.93342 6.0158C11.3287 8.4102 13.7239 10.8046 16.1183 13.2007C16.2367 13.3191 16.3618 13.4358 16.4567 13.5719C16.6961 13.9145 16.6432 14.3571 16.345 14.6418C16.062 14.9123 15.6287 14.9543 15.3036 14.7267C15.1676 14.6309 15.0517 14.5058 14.9333 14.3874C11.8149 11.2707 8.69658 8.15488 5.58244 5.03486C5.18268 4.63426 4.73336 4.39574 4.15723 4.49652C3.58697 4.59647 3.18217 4.92148 2.99488 5.46822C2.8034 6.02672 2.89662 6.55246 3.30982 6.9875C3.74318 7.44437 4.1967 7.88193 4.64266 8.32705C7.36627 11.0465 10.0899 13.7659 12.8127 16.4861C12.9311 16.6046 13.0545 16.7221 13.1511 16.8573C13.3896 17.1924 13.3426 17.6518 13.0571 17.9323C12.7715 18.2129 12.3121 18.249 11.9812 18.0046C11.8468 17.9055 11.7301 17.782 11.6117 17.6636C9.16437 15.2222 6.71959 12.7791 4.27145 10.3385C3.76586 9.83457 3.13934 9.71531 2.54473 9.99414C1.98287 10.257 1.58395 10.8491 1.7074 11.4529C1.78551 11.8376 1.99379 12.2533 2.26926 12.5313C5.41867 15.716 8.59496 18.873 11.7511 22.0501C11.9753 22.276 12.1719 22.5859 12.2491 22.8908C12.3684 23.3636 12.1509 23.7709 11.7419 24.043C11.3295 24.3177 10.8945 24.3076 10.4745 24.059C9.74051 23.6248 9.01068 23.183 8.28422 22.7362C7.83826 22.4616 7.36963 22.3944 6.87916 22.5725C6.31982 22.7766 5.97717 23.1872 5.88898 23.7718C5.78736 24.4453 6.05443 24.9728 6.61965 25.3515C8.36232 26.5189 10.1 27.6955 11.851 28.8495C12.3163 29.156 12.8135 29.4197 13.3166 29.6599C14.7157 30.3268 16.2023 30.6173 17.7467 30.6257C18.852 30.6316 19.958 30.6383 21.0633 30.6207C21.4714 30.614 21.7805 30.7458 22.0686 31.0347C25.5069 34.484 28.9536 37.9257 32.3961 41.3699C33.0378 42.0115 32.9941 42.4818 32.2525 43H31.7486H31.7461Z" fill="#00D19D"/>
<path d="M37.7087 43C37.5777 42.9555 37.4467 42.911 37.3157 42.8665C36.1332 42.4693 35.4327 41.3153 35.6158 40.0673C35.7888 38.8915 36.8689 37.9685 38.0799 37.961C39.3086 37.9534 40.3693 38.8327 40.5726 40.0253C40.7851 41.2708 40.1107 42.4298 38.9307 42.8497C38.8022 42.8959 38.6762 42.9497 38.5486 42.9992H37.7087V43ZM37.2754 40.4772C37.2754 40.9408 37.6348 41.3103 38.0909 41.3162C38.5544 41.3229 38.9542 40.9189 38.9408 40.4578C38.9282 40.0085 38.5418 39.6373 38.0917 39.6424C37.6323 39.6474 37.2745 40.0136 37.2745 40.4772H37.2754Z" fill="#00D19D"/>
<path d="M43 34.5176C42.7682 34.7167 42.5658 35.0005 42.2971 35.0946C41.8889 35.2382 41.4891 34.9501 41.359 34.5386C41.2422 34.1699 41.4077 33.7651 41.752 33.5728C42.1224 33.3662 42.5751 33.4636 42.8329 33.8122C42.8984 33.9003 42.9446 34.0028 43 34.0985V34.5185V34.5176Z" fill="#00D19D"/>
<path d="M29.4701 20.976C29.5751 18.5765 29.114 16.3031 27.7148 14.3253C27.0018 13.3166 26.0897 12.4482 25.2583 11.5252C24.9492 11.1826 24.5957 10.8802 24.2933 10.5325C24.0011 10.1966 24.0363 9.73131 24.332 9.42645C24.6461 9.10311 25.1348 9.04684 25.4649 9.37522C26.9212 10.8223 28.4867 12.1727 29.518 13.9977C30.6173 15.9428 31.1481 18.0273 31.1523 20.2554C31.1532 20.8702 30.9995 21.5538 31.2178 22.0812C31.4362 22.6078 32.0274 22.9824 32.4625 23.4174C35.0148 25.9722 37.5679 28.5245 40.121 31.0785C40.2294 31.1876 40.3453 31.2918 40.4385 31.4127C40.7055 31.7604 40.6711 32.2198 40.3671 32.5196C40.0639 32.8195 39.6079 32.8447 39.2593 32.5725C39.1493 32.4869 39.0544 32.3827 38.9553 32.2836C35.9562 29.2854 32.9622 26.2821 29.9539 23.2931C29.6104 22.9513 29.4239 22.5986 29.4642 22.1098C29.4945 21.7344 29.4701 21.3548 29.4701 20.9768V20.976Z" fill="#00D19D"/>
<path d="M25.3933 16.4157C25.3865 17.8073 24.2721 18.9151 22.8796 18.9143C21.4897 18.9134 20.3702 17.7998 20.3643 16.4124C20.3584 15.0191 21.5182 13.8626 22.9048 13.8811C24.2906 13.8996 25.4008 15.0291 25.3941 16.4157H25.3933ZM22.8653 17.2312C23.3323 17.2388 23.6968 16.8928 23.7094 16.4292C23.7228 15.953 23.344 15.5599 22.8771 15.5633C22.4286 15.5666 22.0532 15.9446 22.0498 16.3973C22.0465 16.8558 22.4068 17.2237 22.8662 17.2312H22.8653Z" fill="#00D19D"/>
<path d="M18.0771 23.0762C19.4763 23.0687 20.5899 24.1588 20.6084 25.5546C20.6269 26.9538 19.4906 28.1077 18.0947 28.1069C16.7165 28.106 15.587 26.9764 15.5811 25.5932C15.5752 24.205 16.6863 23.0838 18.0771 23.0762ZM18.0939 24.7567C17.632 24.7576 17.2683 25.117 17.265 25.5773C17.2616 26.0333 17.6236 26.4104 18.0779 26.4221C18.5457 26.4339 18.9321 26.0476 18.9262 25.5722C18.9203 25.1103 18.5583 24.7559 18.0947 24.7567H18.0939Z" fill="#00D19D"/>
<path d="M31.1506 27.8853C32.528 27.8903 33.6635 29.0291 33.6635 30.4039C33.6635 31.7956 32.5062 32.9352 31.1087 32.9218C29.7279 32.9075 28.6219 31.7754 28.6294 30.3829C28.637 28.998 29.7649 27.8802 31.1506 27.8861V27.8853ZM30.3108 30.3804C30.2999 30.8566 30.6677 31.2388 31.1372 31.2404C31.5806 31.2413 31.9645 30.8701 31.9796 30.4266C31.9947 29.9723 31.6016 29.5683 31.1414 29.5666C30.6896 29.5649 30.3209 29.9261 30.31 30.3804H30.3108Z" fill="#00D19D"/>
<path d="M25.1796 23.0965C25.1796 22.6338 25.5382 22.2642 25.995 22.2584C26.4435 22.2525 26.8307 22.6245 26.8441 23.0747C26.8576 23.5375 26.4612 23.9389 25.9959 23.9339C25.5398 23.9288 25.1796 23.5593 25.1787 23.0965H25.1796Z" fill="#00D19D"/>
<path d="M24.837 30.0771C24.3768 30.067 24.0157 29.6958 24.0216 29.2381C24.0274 28.7922 24.4146 28.4092 24.8589 28.4092C25.32 28.4092 25.7138 28.8199 25.6954 29.2809C25.6769 29.7395 25.3015 30.0872 24.837 30.0771Z" fill="#00D19D"/>
<path d="M16.7827 17.897C17.2303 17.9054 17.6091 18.2925 17.6066 18.7393C17.6041 19.2054 17.2026 19.5867 16.7331 19.5691C16.2737 19.5515 15.9303 19.1786 15.9412 18.7116C15.9521 18.2539 16.33 17.8886 16.7819 17.8978L16.7827 17.897Z" fill="#00D19D"/>
<path d="M31.7276 36.4416C31.7309 35.9797 32.0946 35.6127 32.5514 35.6118C33.0016 35.611 33.3829 35.9839 33.3905 36.4357C33.3989 36.9018 33.0024 37.2965 32.5363 37.2865C32.0795 37.2764 31.7242 36.9052 31.7276 36.4416Z" fill="#00D19D"/>
<path d="M21.7294 7.62984C21.7294 7.16624 22.0846 6.80343 22.5457 6.79839C23.0034 6.79335 23.3796 7.15449 23.3906 7.60884C23.4015 8.07411 23.0068 8.4764 22.5457 8.47052C22.0938 8.46464 21.7294 8.08923 21.7285 7.62984H21.7294Z" fill="#00D19D"/>
</svg>
