<svg width="38" height="34" viewBox="0 0 38 34" fill="none" xmlns="http://www.w3.org/2000/svg">
<g clip-path="url(#clip0_1431_4614)">
<path d="M0 13.4288C0 13.058 0 12.6866 0 12.3158C0.201875 11.9235 0.538828 11.7969 0.993789 11.8046C2.09148 11.8233 3.18918 11.8108 4.30617 11.8108C4.32176 11.7545 4.35293 11.6787 4.36258 11.6001C4.6973 8.82116 5.75863 6.2878 7.30832 3.91791C7.62004 3.44073 7.99633 3.3183 8.4884 3.58611C9.79168 4.29562 11.0883 5.01556 12.3789 5.74524C12.7033 5.92818 12.9942 6.16329 13.3148 6.38449C13.4254 6.2238 13.5212 6.08956 13.6117 5.95252C14.9491 3.93808 16.484 2.06832 18.2786 0.390544C18.8219 -0.117241 19.2086 -0.142282 19.7162 0.396109C20.7798 1.52367 21.8448 2.65262 22.843 3.83026C23.517 4.62533 24.0788 5.50456 24.6993 6.35806C24.7423 6.3358 24.7957 6.31075 24.847 6.28084C26.3907 5.387 27.93 4.4869 29.4804 3.6028C29.9673 3.32456 30.3644 3.42334 30.6523 3.86156C32.0306 5.96157 33.0496 8.19443 33.4838 10.6408C33.5543 11.038 33.6196 11.4366 33.6834 11.8108C34.8108 11.8108 35.9093 11.8233 37.007 11.8046C37.4619 11.7969 37.7996 11.9235 38.0007 12.3158V13.4288C37.9807 13.5415 37.9562 13.6542 37.9421 13.7675C37.8605 14.4228 37.8189 15.085 37.6957 15.7333C36.9379 19.7093 35.055 23.1289 31.9044 25.9105C31.6023 26.1776 31.2802 26.4246 30.9641 26.684C31.0056 26.716 31.022 26.7383 31.0435 26.7439C31.1979 26.7842 31.353 26.8211 31.5081 26.86C32.8351 27.1967 34.1495 27.5577 35.2554 28.3764C36.3969 29.2209 36.4013 30.5036 35.2287 31.3084C34.7745 31.62 34.2735 31.8906 33.7577 32.0999C32.0439 32.7948 30.2219 33.1218 28.3902 33.3931C25.7962 33.777 23.1837 33.9412 20.5593 33.9857C16.1968 34.0594 11.8564 33.88 7.57254 33.0397C6.1327 32.7573 4.70695 32.413 3.41406 31.7215C3.09566 31.5511 2.78023 31.348 2.52715 31.1025C1.60758 30.2093 1.70926 29.1506 2.74609 28.3757C3.54395 27.7796 4.46945 27.4325 5.42688 27.1487C5.95383 26.9922 6.48969 26.8628 7.11758 26.6952C7.00105 26.6228 6.93797 26.5901 6.88305 26.5477C5.29477 25.3353 3.98109 23.8968 2.91605 22.2614C1.48809 20.0689 0.578164 17.6997 0.215234 15.1504C0.131367 14.5772 0.0705078 14.0026 0 13.4288ZM19.0156 1.68852C18.836 1.85825 18.6927 1.97094 18.5777 2.10588C17.621 3.22649 16.6087 4.31161 15.7284 5.483C13.8136 8.02957 12.3626 10.7897 11.6123 13.8489C11.5343 14.1675 11.5796 14.3358 11.8728 14.5271C14.0711 15.9607 15.7952 17.8034 17.1186 19.9764C17.5127 20.6233 17.8541 21.298 18.2578 22.0291V21.5874C18.2578 17.322 18.2578 13.0566 18.2578 8.79194C18.2578 8.13461 18.5191 7.79098 19.0111 7.79933C19.4913 7.80698 19.7422 8.14226 19.7422 8.77803C19.7422 13.0546 19.7422 17.3318 19.7422 21.6083V21.9616C19.8661 21.851 19.9166 21.7349 19.9804 21.625C20.468 20.7812 20.9104 19.9103 21.4581 19.1028C22.7184 17.2441 24.3193 15.6776 26.2638 14.4304C26.433 14.3219 26.4872 14.2197 26.4286 14.0326C26.1747 13.2229 25.978 12.3951 25.6804 11.6008C24.4699 8.36833 22.5284 5.53447 20.2016 2.91834C19.832 2.50237 19.4275 2.11353 19.0163 1.68922L19.0156 1.68852ZM19.0074 32.6258C21.7899 32.5876 24.5701 32.4944 27.3303 32.1333C29.2771 31.8787 31.2142 31.5664 33.0481 30.8715C33.5224 30.6914 33.9684 30.427 34.3922 30.1537C34.6958 29.9575 34.6936 29.7426 34.4019 29.5276C34.0939 29.3009 33.7562 29.0971 33.4036 28.9392C32.2696 28.4328 31.0516 28.1789 29.8322 27.9271C29.4099 27.8401 29.0715 27.8832 28.6855 28.0864C26.5866 29.191 24.3423 29.8636 21.9212 29.9234C20.2283 29.9652 18.5339 29.9659 16.8402 29.9693C16.3222 29.9707 15.8012 29.9415 15.2854 29.89C13.0417 29.6654 10.9532 28.9983 9.00273 27.9382C8.88621 27.8749 8.71477 27.8283 8.59082 27.8575C7.49016 28.1142 6.3791 28.3465 5.30219 28.6755C4.71512 28.855 4.16738 29.1777 3.6434 29.4949C3.28195 29.7134 3.30422 29.9339 3.6434 30.1891C3.86309 30.3547 4.10504 30.5022 4.35738 30.6204C5.77645 31.284 7.31129 31.5929 8.8543 31.8614C12.2097 32.4457 15.6045 32.5813 19.0067 32.6251L19.0074 32.6258ZM1.93266 16.2306C3.38141 22.9849 9.09699 27.6968 14.5328 28.3389C13.1293 21.954 7.89094 17.098 1.93266 16.2306ZM36.0659 16.2292C29.2845 17.2344 24.4803 23.0127 23.4962 28.3632C29.7944 27.4172 34.7886 22.2448 36.0659 16.2292ZM1.63281 14.6878C9.80875 16.2759 14.2448 21.2368 16.1752 28.5608H18.2341C18.2341 28.4801 18.2378 28.4133 18.2341 28.3472C18.0062 25.0132 16.9657 21.9373 14.8497 19.2259C12.1711 15.7938 8.645 13.6688 4.06496 13.2542C3.2248 13.1784 2.3698 13.2431 1.50367 13.2431C1.5482 13.7369 1.59125 14.2197 1.63355 14.6878H1.63281ZM19.76 28.5747C20.3716 28.5747 20.9393 28.5559 21.5049 28.5816C21.8292 28.5962 21.9161 28.4599 21.9769 28.197C22.8505 24.3962 24.743 21.1304 27.838 18.515C29.7098 16.9332 31.8591 15.7966 34.2987 15.1712C34.9734 14.998 35.6629 14.8735 36.3635 14.7226C36.408 14.2294 36.4518 13.7376 36.5 13.2013C36.0518 13.2013 35.6346 13.2027 35.2175 13.2013C32.0551 13.186 29.2043 14.0882 26.6824 15.8501C23.5058 18.0691 21.4774 21.0337 20.4213 24.5973C20.0398 25.8841 19.8209 27.196 19.7607 28.574L19.76 28.5747ZM12.5704 7.63656C11.2649 6.57856 9.7568 5.90522 8.30953 5.0879C6.91645 7.25607 6.0748 9.5571 5.8091 11.959C7.29422 12.4543 8.72887 12.9321 10.1954 13.4211C10.6786 11.4477 11.5054 9.51119 12.5704 7.63656ZM27.8038 13.4197C29.2763 12.93 30.7199 12.4501 32.1909 11.9611C31.9111 9.53762 31.0776 7.2359 29.6838 5.0879C28.2254 5.92192 26.7069 6.58343 25.4318 7.63934C26.4916 9.50771 27.317 11.4442 27.8038 13.4197Z" fill="#00D19D"/>
<path d="M19.7394 5.92092C19.7313 6.29097 19.3773 6.61512 18.9965 6.6019C18.5987 6.58799 18.2617 6.2715 18.2603 5.90979C18.2588 5.51677 18.598 5.2128 19.0247 5.22393C19.4314 5.23436 19.7476 5.54321 19.7394 5.92161V5.92092Z" fill="#00D19D"/>
</g>
<defs>
<clipPath id="clip0_1431_4614">
<rect width="38" height="34" fill="white"/>
</clipPath>
</defs>
</svg>
