<svg width="41" height="40" viewBox="0 0 41 40" fill="none" xmlns="http://www.w3.org/2000/svg">
<g clip-path="url(#clip0_1431_930)">
<path d="M36.4082 10.4752C35.7273 9.74487 35.6212 9.40248 35.9442 9.04333C36.2817 8.66742 36.5444 8.73326 37.3616 9.34741C37.9088 8.85537 38.4849 8.41242 38.9682 7.88446C39.5973 7.19729 39.6974 6.40356 39.1984 5.57511C38.2053 3.9302 36.9422 2.55584 35.1825 1.70465C34.1617 1.21022 33.265 1.41014 32.4852 2.21704C32.1115 2.60373 31.7126 2.96408 31.3076 3.35316C32.2851 4.32646 33.2192 5.25667 34.152 6.18567C34.2689 6.3018 34.3931 6.41314 34.4991 6.53764C34.78 6.86926 34.7715 7.26553 34.4871 7.54447C34.2123 7.81503 33.7796 7.8282 33.4735 7.53489C32.8142 6.90158 32.1718 6.25032 31.5246 5.60504C31.1329 5.21357 30.7448 4.8173 30.3338 4.40308C30.229 4.49167 30.1361 4.55871 30.0554 4.63892C25.8262 8.8458 21.5982 13.0551 17.3678 17.2619C16.7121 17.9144 16.2915 18.6854 16.1035 19.5892C15.5394 22.3068 14.3776 24.7455 12.495 26.7986C10.6437 28.8183 8.72257 30.7756 6.82793 32.7558C6.66281 32.9282 6.46515 33.0682 6.30244 33.2059C6.68571 33.5746 7.01354 33.8907 7.46912 34.3289C7.51853 34.2439 7.58 34.0607 7.70173 33.9362C8.55263 33.0706 9.41559 32.2158 10.2785 31.3623C10.6823 30.9636 11.1017 30.9277 11.4211 31.2497C11.7309 31.5634 11.6887 31.9932 11.2909 32.3894C9.7398 33.9338 8.19106 35.4781 6.63147 37.0153C5.67572 37.9575 4.37646 37.9898 3.49422 37.1111C2.61801 36.2383 2.65417 34.882 3.59546 33.9422C5.49372 32.0458 7.43658 30.1914 9.28783 28.252C10.7956 26.6729 12.3166 25.0891 13.3411 23.1245C13.9594 21.9381 14.421 20.699 14.6825 19.3869C14.9344 18.1203 15.5202 17.0405 16.4434 16.1246C21.497 11.1097 26.5433 6.08631 31.5921 1.06775C32.6443 0.0226186 34.1617 -0.285055 35.5453 0.278814C37.6533 1.13839 39.0658 2.77373 40.3337 4.55991C40.5302 4.83646 40.664 5.16329 40.7821 5.48413C41.1412 6.45504 41.0569 7.402 40.4976 8.27355C40.2337 8.68537 39.9083 9.06847 39.56 9.41445C34.6197 14.3313 29.6661 19.2349 24.7282 24.1529C23.7749 25.1022 22.666 25.7212 21.3415 25.9857C18.8876 26.4766 16.7254 27.5636 14.8416 29.1978C14.6488 29.3642 14.4571 29.533 14.2546 29.6874C13.9051 29.952 13.5026 29.928 13.241 29.6407C12.9614 29.3342 12.9831 28.9164 13.3206 28.6052C15.5262 26.5676 18.0777 25.1789 21.0426 24.5839C21.9827 24.3947 22.8046 24.0044 23.4856 23.328C27.7293 19.114 31.9741 14.9011 36.2178 10.687C36.2805 10.6248 36.3371 10.5554 36.4082 10.4752ZM5.30691 34.2666C5.00801 34.5719 4.72478 34.8197 4.49217 35.1082C4.25232 35.4063 4.23545 35.7547 4.51145 36.0468C4.76937 36.3198 5.11407 36.3545 5.41177 36.139C5.73236 35.9079 6.00354 35.6122 6.30606 35.3357C5.95774 34.9634 5.65282 34.6353 5.30691 34.2654V34.2666Z" fill="#00D19D"/>
<path d="M19.5705 18.9922C20.2816 19.7284 20.9349 20.4036 21.5423 21.031C23.402 19.1897 25.2593 17.3508 27.1069 15.5228C26.5031 14.9445 25.8281 14.2968 25.1146 13.6145C25.0146 13.709 24.8411 13.8862 24.6542 14.0478C24.3071 14.3471 23.8877 14.3411 23.6081 14.0418C23.3417 13.7569 23.3466 13.3487 23.6455 13.035C23.9757 12.6878 24.3168 12.3502 24.6699 12.0258C25.023 11.7002 25.4003 11.7026 25.7486 12.0438C26.7441 13.0183 27.7324 13.9999 28.7135 14.9888C29.104 15.3815 29.0751 15.7538 28.6364 16.192C26.7803 18.0428 24.9206 19.89 23.0621 21.7385C22.7753 22.0234 22.4956 22.3167 22.2004 22.5921C21.8002 22.9656 21.4423 22.9728 21.0566 22.5945C20.0623 21.6188 19.0728 20.6383 18.0917 19.6494C17.7277 19.2819 17.7277 18.9143 18.0929 18.548C19.2439 17.3903 20.4033 16.2399 21.5664 15.0954C21.9232 14.7446 22.3438 14.741 22.6427 15.0535C22.9175 15.3408 22.9042 15.7598 22.5728 16.0938C21.74 16.9342 20.8963 17.7639 20.0514 18.5935C19.8923 18.7491 19.7091 18.8796 19.5705 18.9946V18.9922Z" fill="#00D19D"/>
<path d="M29.5913 13.1268C28.9007 13.104 28.2282 12.709 27.8473 11.9117C27.4689 11.1179 27.5436 10.329 28.1137 9.649C28.5054 9.18091 28.9465 8.74633 29.4105 8.34887C30.2819 7.60423 31.6053 7.68923 32.3887 8.50091C33.1842 9.32457 33.1854 10.5912 32.3754 11.4531C32.0175 11.8338 31.6378 12.1966 31.2582 12.5557C30.8496 12.9424 30.3542 13.1304 29.5901 13.1268H29.5913ZM31.5245 9.82858C31.4426 9.72562 31.3269 9.44908 31.1316 9.37126C30.9195 9.28746 30.5627 9.29584 30.3928 9.42513C29.9674 9.74717 29.5744 10.1327 29.2442 10.5517C29.1092 10.7229 29.0827 11.0844 29.1695 11.2903C29.2466 11.4735 29.5371 11.6423 29.7564 11.677C30.2168 11.7512 31.5342 10.4355 31.5233 9.82858H31.5245Z" fill="#00D19D"/>
<path d="M9.43598 23.0275C9.44803 23.668 8.87554 24.0284 8.39465 23.7746C8.26569 23.7063 8.1536 23.5998 8.04754 23.4956C6.82422 22.2853 5.60451 21.0713 4.3848 19.8586C4.33177 19.8059 4.27513 19.7556 4.22812 19.6982C3.95333 19.3666 3.95935 18.9667 4.24138 18.6902C4.52341 18.4136 4.94404 18.3909 5.25258 18.6938C6.58799 20.0035 7.91255 21.3239 9.23109 22.6504C9.3492 22.7689 9.39741 22.9557 9.43478 23.0287L9.43598 23.0275Z" fill="#00D19D"/>
<path d="M16.9649 30.5796C17.2253 30.7316 17.4446 30.8083 17.5941 30.9543C18.8765 32.2101 20.1504 33.4768 21.4195 34.747C21.7895 35.1169 21.8052 35.5479 21.4882 35.8507C21.1833 36.1429 20.7639 36.1261 20.4107 35.7765C19.1223 34.5051 17.8399 33.2265 16.5564 31.9492C16.3129 31.7073 16.1827 31.4068 16.3792 31.104C16.5106 30.9004 16.7504 30.7663 16.9661 30.5796H16.9649Z" fill="#00D19D"/>
<path d="M25.6946 31.1743C25.6789 31.7944 25.2318 32.1176 24.7834 31.9716C24.6569 31.9309 24.5376 31.8602 24.4255 31.7884C22.949 30.8486 21.4726 29.9088 19.9998 28.9643C19.5189 28.6554 19.396 28.2124 19.6696 27.8401C19.8901 27.5396 20.2891 27.4367 20.6301 27.6522C22.2211 28.6626 23.8048 29.6838 25.3776 30.7217C25.5524 30.8367 25.6367 31.0881 25.6946 31.1743Z" fill="#00D19D"/>
<path d="M13.8652 33.7939C14.1123 33.9891 14.3534 34.1052 14.4835 34.2956C15.508 35.8016 16.5156 37.3196 17.5171 38.84C17.7702 39.2243 17.6871 39.6409 17.3508 39.8672C17.0049 40.0995 16.5891 40.0324 16.3312 39.6481C15.2959 38.1134 14.2654 36.575 13.2662 35.0175C13.1481 34.8331 13.1602 34.4835 13.2542 34.274C13.3398 34.0825 13.6194 33.9771 13.8652 33.7939Z" fill="#00D19D"/>
<path d="M12.8491 19.8504C12.678 20.0552 12.5502 20.3293 12.3405 20.4215C12.1489 20.5065 11.8608 20.4215 11.6306 20.358C11.5197 20.3269 11.4366 20.1797 11.3546 20.0743C10.2928 18.7012 9.22616 17.3328 8.18241 15.9453C8.03537 15.7489 7.91003 15.4389 7.96065 15.2234C8.01006 15.0139 8.28486 14.7337 8.48372 14.7134C8.72959 14.6882 9.08755 14.8283 9.24423 15.0198C10.1337 16.1081 10.9786 17.2334 11.8379 18.3468C12.0754 18.6545 12.3212 18.9574 12.5454 19.2746C12.6539 19.4278 12.7226 19.6098 12.8479 19.8516L12.8491 19.8504Z" fill="#00D19D"/>
<path d="M0.788128 22.6685C0.872495 22.7008 1.04726 22.7451 1.19912 22.8313C2.72134 23.6968 4.24115 24.5672 5.75856 25.4435C6.25391 25.7296 6.39613 26.1235 6.16593 26.509C5.93934 26.8897 5.5151 26.9555 5.02456 26.6742C3.49149 25.7967 1.95963 24.9179 0.42776 24.038C0.0939077 23.8465 -0.0784423 23.5735 0.0336455 23.182C0.126449 22.8576 0.35424 22.6924 0.788128 22.6685Z" fill="#00D19D"/>
</g>
<defs>
<clipPath id="clip0_1431_930">
<rect width="41" height="40" fill="white"/>
</clipPath>
</defs>
</svg>
