<svg width="37" height="41" viewBox="0 0 37 41" fill="none" xmlns="http://www.w3.org/2000/svg">
<g clip-path="url(#clip0_1431_4531)">
<path d="M15.2147 40.9999C15.0129 40.7774 14.7887 40.57 14.6146 40.3272C14.2976 39.8823 14.0061 39.4192 13.7104 38.9593C13.4808 38.6032 13.1584 38.4363 12.7377 38.4395C12.111 38.4449 11.4833 38.447 10.8566 38.4449C9.91918 38.4427 9.18358 38.047 8.6551 37.2802C8.2921 36.754 7.94725 36.2139 7.59814 35.677C7.3686 35.3241 7.05151 35.1476 6.62766 35.153C5.98707 35.1594 5.34649 35.1626 4.70591 35.1562C3.96284 35.1487 3.60945 34.538 3.97351 33.8878C4.79986 32.4097 5.85255 31.106 7.06005 29.9242C7.18283 29.8045 7.32909 29.7093 7.44974 29.6141C6.98531 28.9424 6.55185 28.3521 6.1579 27.7382C5.30272 26.4056 4.6568 24.9768 4.27352 23.4378C4.2212 23.2249 4.16035 23.1159 3.91479 23.1233C1.3546 23.2078 0.130022 21.0817 0.00937928 19.1256C-0.0365291 18.3684 0.0745051 17.6315 0.41081 16.947C0.931817 15.8872 1.76778 15.2925 2.97634 15.284C3.28062 15.2818 3.58489 15.284 3.94896 15.284C3.94896 15.0765 3.94896 14.9086 3.94896 14.7407C3.94575 12.5643 4.02156 10.3932 4.40163 8.24352C4.79773 6.00294 6.4547 4.21475 8.59851 3.83722C9.21347 3.7292 9.869 3.8169 10.5032 3.86395C10.7445 3.88214 10.9142 3.85647 11.1192 3.7185C12.3769 2.8704 13.5908 1.93031 14.9296 1.23301C17.9361 -0.333798 21.0728 -0.317755 24.2383 0.782751C25.796 1.32391 27.2394 2.09288 28.6402 2.95061C28.6968 2.9859 28.7555 3.01799 28.811 3.05435C30.1263 3.92278 31.526 4.15806 33.0442 3.66289C33.6517 3.46503 34.2773 3.326 34.8976 3.16665C35.6652 2.96879 36.0987 3.326 36.0485 4.11315C35.9364 5.86176 35.3118 7.37509 33.9986 8.57185C33.7915 8.76008 33.6004 8.97398 33.3709 9.12906C32.5894 9.65632 32.3886 10.3782 32.5157 11.2819C32.6865 12.4958 32.7976 13.7193 32.9171 14.9396C32.9438 15.2166 33.0538 15.315 33.3196 15.285C33.4509 15.2701 33.5865 15.2829 33.72 15.2829C35.4378 15.284 36.4692 16.0829 36.862 17.7577C37.1759 19.0946 36.9549 20.3587 36.2161 21.5148C35.5126 22.6143 34.4791 23.1394 33.1808 23.1223C32.8915 23.118 32.7677 23.1982 32.6961 23.4923C32.2904 25.1543 31.5473 26.6687 30.611 28.0922C30.2907 28.5799 29.8327 28.7114 29.427 28.4376C29.0149 28.1606 28.9562 27.7125 29.2818 27.2099C30.2021 25.7896 30.9377 24.2859 31.2612 22.6132C31.3723 22.04 31.432 21.4507 31.4449 20.8667C31.4726 19.64 31.4449 18.4122 31.4587 17.1845C31.4619 16.8946 31.4022 16.7674 31.0755 16.7363C24.975 16.1396 18.946 15.1471 13.058 13.4006C12.3758 13.1985 11.7 13.2006 11.0082 13.3792C9.04799 13.8862 7.29279 14.761 5.81732 16.1674C5.62942 16.346 5.5408 16.5235 5.54401 16.7888C5.55895 17.8957 5.58671 19.0047 5.54294 20.1106C5.44685 22.5469 6.18779 24.7329 7.4508 26.7714C7.8138 27.3575 8.22484 27.9147 8.63161 28.5104C8.96471 28.2633 9.24657 28.0473 9.5359 27.8409C11.8484 26.1917 14.336 24.9169 17.1321 24.3116C18.0215 24.119 18.9226 24.0271 19.8343 24.1672C21.7304 24.4581 22.6636 25.7243 22.3913 27.6238C22.1842 29.0676 21.6333 30.3937 21.0162 31.6964C20.6575 32.4536 20.272 33.198 19.8407 34.0642C20.5048 33.861 21.1027 33.7391 21.6461 33.4985C22.545 33.0996 23.413 32.6311 24.2864 32.1777C24.6899 31.968 25.0454 31.9659 25.323 32.2172C25.702 32.5595 25.6807 33.1766 25.2366 33.4632C23.4002 34.646 21.4368 35.5102 19.2332 35.7145C18.9919 35.7369 18.8532 35.8129 18.7368 36.0257C17.9371 37.4727 17.1353 38.9176 16.309 40.3486C16.1638 40.5999 15.9043 40.786 15.6972 41.002H15.2168L15.2147 40.9999ZM31.2975 15.1503C31.2975 14.9781 31.3093 14.8466 31.2954 14.7182C31.1769 13.6316 31.0797 12.5418 30.9271 11.4605C30.7285 10.0542 31.0541 8.87666 32.236 7.9954C32.5659 7.74941 32.8584 7.45103 33.1499 7.15906C33.6677 6.64035 34.0317 6.0254 34.2282 5.31632C34.2549 5.22114 34.2559 5.11954 34.273 4.99334C34.1001 5.03932 33.973 5.07569 33.8438 5.1067C32.7815 5.36445 31.7267 5.65856 30.611 5.46605C29.6203 5.29493 28.7555 4.83505 27.8832 4.36875C26.6522 3.70995 25.4351 3.00194 24.1465 2.47682C20.9479 1.17418 17.7866 1.26295 14.7919 3.10355C13.6933 3.77839 12.6683 4.57624 11.6253 5.33771C11.2815 5.58797 10.9537 5.67353 10.5469 5.52273C9.95761 5.30456 9.34266 5.2682 8.73624 5.42862C7.19137 5.83823 6.32872 6.91842 6.01163 8.41892C5.6166 10.2905 5.55255 12.2006 5.55682 14.1097C5.55682 14.1407 5.59098 14.1717 5.62728 14.2337C7.03015 13.0765 8.64762 12.3867 10.3654 11.8916C11.4619 11.5761 12.5306 11.59 13.6335 11.8894C15.5734 12.4167 17.5229 12.9118 19.4799 13.3696C22.6112 14.1011 25.796 14.5225 28.9872 14.8893C29.7505 14.977 30.5139 15.0615 31.2954 15.1492L31.2975 15.1503ZM15.4282 38.6427C15.8083 37.9679 16.1851 37.3401 16.5225 36.693C17.7396 34.3551 18.9685 32.0226 20.1397 29.6622C20.5464 28.843 20.8197 27.951 20.8197 27.0109C20.8197 26.2773 20.5325 25.9329 19.8194 25.7864C18.9759 25.6131 18.14 25.7158 17.3222 25.9179C13.2171 26.9307 9.83484 29.1243 7.05258 32.2761C6.71307 32.66 6.4152 33.0803 6.04152 33.5562C6.24758 33.5562 6.349 33.5594 6.45043 33.5562C7.596 33.5113 8.45118 33.9904 9.04585 34.9658C9.32344 35.4204 9.63519 35.8546 9.92025 36.3048C10.1541 36.6759 10.4722 36.8577 10.9164 36.8481C11.5431 36.8342 12.1708 36.8331 12.7975 36.8438C13.7264 36.8588 14.4673 37.2449 15.0001 38.0128C15.1356 38.2074 15.2659 38.4064 15.4271 38.6449L15.4282 38.6427ZM3.9276 21.5095V16.8839C3.64468 16.8839 3.39485 16.8839 3.14503 16.8839C2.36992 16.8871 1.98984 17.147 1.75923 17.8871C1.44215 18.9021 1.58841 19.8667 2.18522 20.7437C2.59413 21.3459 3.19841 21.5619 3.9276 21.5095ZM33.0815 16.8839V21.517C33.8716 21.5565 34.5004 21.2881 34.9072 20.6047C35.3919 19.7897 35.5254 18.9106 35.2723 17.9919C35.046 17.1716 34.651 16.8861 33.8033 16.8839C33.5769 16.8839 33.3517 16.8839 33.0815 16.8839Z" fill="#00D19D"/>
<path d="M12.171 21.042C11.5016 20.688 10.8899 20.3672 10.2813 20.0388C9.787 19.7725 9.62471 19.3426 9.84892 18.9169C10.0731 18.4923 10.5269 18.3704 11.0212 18.626C12.0739 19.1704 13.1191 19.7276 14.1707 20.2741C14.4921 20.4409 14.7045 20.6805 14.6981 21.0548C14.6917 21.4078 14.4921 21.6398 14.1825 21.8013C13.1308 22.3468 12.0856 22.904 11.034 23.4494C10.5386 23.7061 10.0827 23.5938 9.85639 23.1788C9.61938 22.7457 9.78806 22.3019 10.3027 22.027C10.9091 21.7029 11.5198 21.3864 12.1721 21.042H12.171Z" fill="#00D19D"/>
<path d="M24.8331 21.0474C25.4833 21.3886 26.1057 21.6891 26.6982 22.0399C26.9096 22.165 27.1082 22.3886 27.2022 22.6132C27.3196 22.8966 27.2321 23.241 26.9513 23.3864C26.7164 23.5083 26.3502 23.6131 26.1441 23.5137C24.958 22.9426 23.79 22.3297 22.6412 21.6848C22.1448 21.4068 22.1619 20.6603 22.6668 20.3801C23.8071 19.748 24.9676 19.1502 26.1313 18.563C26.5221 18.3651 26.9598 18.5491 27.1509 18.9245C27.3431 19.3009 27.2353 19.7405 26.8466 19.9651C26.2819 20.2913 25.6979 20.5822 25.1224 20.8881C25.0423 20.9309 24.9644 20.9758 24.8341 21.0485L24.8331 21.0474Z" fill="#00D19D"/>
<path d="M28.3458 30.5874C28.3352 31.013 27.9743 31.3681 27.5505 31.3702C27.1149 31.3724 26.7391 30.9884 26.7497 30.551C26.7593 30.105 27.1319 29.7628 27.5878 29.781C28.0234 29.7981 28.3565 30.1521 28.3469 30.5874H28.3458Z" fill="#00D19D"/>
<path d="M18.5908 28.4816C18.5951 28.8998 18.3548 29.1329 17.868 29.3115C16.8206 29.6955 15.7786 30.0944 14.7494 30.5233C14.3341 30.6954 13.9594 30.9628 13.5633 31.1831C13.1042 31.4387 12.6505 31.3414 12.4134 30.9414C12.1786 30.5457 12.3077 30.0826 12.7455 29.812C14.2274 28.8976 15.7968 28.1821 17.4868 27.7479C18.1029 27.5896 18.5854 27.9158 18.5908 28.4827V28.4816Z" fill="#00D19D"/>
</g>
<defs>
<clipPath id="clip0_1431_4531">
<rect width="37" height="41" fill="white"/>
</clipPath>
</defs>
</svg>
