<svg width="51" height="52" viewBox="0 0 51 52" fill="none" xmlns="http://www.w3.org/2000/svg">
<path d="M25.5 49.2917C24.1612 49.2917 22.9075 48.7718 21.9725 47.7968L18.7425 44.5034C18.4875 44.2434 17.8075 43.9617 17.4675 43.9617H12.8775C10.115 43.9617 7.88373 41.6865 7.88373 38.8699V34.1901C7.88373 33.8434 7.60748 33.1501 7.35248 32.8901L4.12251 29.5967C3.18751 28.6434 2.65625 27.365 2.65625 26C2.65625 24.635 3.16626 23.3566 4.12251 22.4032L7.35248 19.1099C7.60748 18.8499 7.88373 18.1566 7.88373 17.8099V13.1301C7.88373 10.3134 10.115 8.03824 12.8775 8.03824H17.4675C17.8075 8.03824 18.4875 7.75657 18.7425 7.49657L21.9725 4.20319C23.8425 2.29653 27.1575 2.29653 29.0275 4.20319L32.2575 7.49657C32.5125 7.75657 33.1925 8.03824 33.5325 8.03824H38.1225C40.885 8.03824 43.1163 10.3134 43.1163 13.1301V17.8099C43.1163 18.1566 43.3925 18.8499 43.6475 19.1099L46.8775 22.4032C47.8125 23.3566 48.3438 24.635 48.3438 26C48.3438 27.365 47.8337 28.6434 46.8775 29.5967L43.6475 32.8901C43.3925 33.1501 43.1163 33.8434 43.1163 34.1901V38.8699C43.1163 41.6865 40.885 43.9617 38.1225 43.9617H33.5325C33.1925 43.9617 32.5125 44.2434 32.2575 44.5034L29.0275 47.7968C28.0925 48.7718 26.8388 49.2917 25.5 49.2917ZM9.60498 30.5933C10.455 31.46 11.0712 32.9767 11.0712 34.1901V38.8699C11.0712 39.8882 11.8787 40.7117 12.8775 40.7117H17.4675C18.6575 40.7117 20.145 41.3399 20.995 42.2066L24.225 45.5C24.905 46.1933 26.095 46.1933 26.775 45.5L30.005 42.2066C30.855 41.3399 32.3425 40.7117 33.5325 40.7117H38.1225C39.1213 40.7117 39.9288 39.8882 39.9288 38.8699V34.1901C39.9288 32.9767 40.545 31.46 41.395 30.5933L44.625 27.2999C44.965 26.9533 45.1562 26.4983 45.1562 26C45.1562 25.5017 44.965 25.0467 44.625 24.7L41.395 21.4067C40.545 20.54 39.9288 19.0233 39.9288 17.8099V13.1301C39.9288 12.1118 39.1213 11.2882 38.1225 11.2882H33.5325C32.3425 11.2882 30.855 10.66 30.005 9.79336L26.775 6.49999C26.095 5.80665 24.905 5.80665 24.225 6.49999L20.995 9.79336C20.145 10.66 18.6575 11.2882 17.4675 11.2882H12.8775C11.8787 11.2882 11.0712 12.1118 11.0712 13.1301V17.8099C11.0712 19.0233 10.455 20.54 9.60498 21.4067L6.375 24.7C6.035 25.0467 5.84375 25.5017 5.84375 26C5.84375 26.4983 6.035 26.9533 6.375 27.2999L9.60498 30.5933Z" fill="#00D19D"/>
<path d="M31.8758 34.6666C30.6858 34.6666 29.7295 33.6916 29.7295 32.4999C29.7295 31.3083 30.6857 30.3333 31.8545 30.3333C33.0232 30.3333 33.9795 31.3083 33.9795 32.4999C33.9795 33.6916 33.0445 34.6666 31.8758 34.6666Z" fill="#00D19D"/>
<path d="M19.1463 21.6666C17.9563 21.6666 17 20.6916 17 19.4999C17 18.3083 17.9562 17.3333 19.125 17.3333C20.2938 17.3333 21.25 18.3083 21.25 19.4999C21.25 20.6916 20.315 21.6666 19.1463 21.6666Z" fill="#00D19D"/>
<path d="M19.1246 34.125C18.7208 34.125 18.3171 33.9734 17.9983 33.6484C17.3821 33.0201 17.3821 31.98 17.9983 31.3516L30.7483 18.3516C31.3646 17.7233 32.3846 17.7233 33.0008 18.3516C33.6171 18.98 33.6171 20.0201 33.0008 20.6484L20.2508 33.6484C19.9321 33.9734 19.5283 34.125 19.1246 34.125Z" fill="#00D19D"/>
</svg>
