<svg width="21" height="18" viewBox="0 0 21 18" fill="none" xmlns="http://www.w3.org/2000/svg">
<path d="M15.2368 17.276H5.76354C5.37514 17.276 5.05304 16.9718 5.05304 16.605C5.05304 16.2382 5.37514 15.934 5.76354 15.934H15.2368C17.9462 15.934 19.263 14.6904 19.263 12.1315V5.86864C19.263 3.3098 17.9462 2.06617 15.2368 2.06617H5.76354C3.05418 2.06617 1.7374 3.3098 1.7374 5.86864C1.7374 6.23546 1.41531 6.53966 1.0269 6.53966C0.638498 6.53966 0.316406 6.23546 0.316406 5.86864C0.316406 2.60299 2.30579 0.724121 5.76354 0.724121H15.2368C18.6946 0.724121 20.684 2.60299 20.684 5.86864V12.1315C20.684 15.3972 18.6946 17.276 15.2368 17.276Z" fill="white"/>
<path d="M10.5005 9.77885C9.70473 9.77885 8.8995 9.54624 8.28374 9.07205L5.3186 6.8353C5.01545 6.60268 4.95862 6.18217 5.20492 5.89587C5.45123 5.60956 5.89646 5.55589 6.1996 5.78851L9.16474 8.02525C9.88471 8.57102 11.1068 8.57102 11.8267 8.02525L14.7919 5.78851C15.095 5.55589 15.5497 5.60062 15.7866 5.89587C16.0329 6.18217 15.9855 6.61163 15.6729 6.8353L12.7077 9.07205C12.1015 9.54624 11.2962 9.77885 10.5005 9.77885Z" fill="white"/>
<path d="M6.71087 13.6975H1.0269C0.638498 13.6975 0.316406 13.3933 0.316406 13.0265C0.316406 12.6597 0.638498 12.3555 1.0269 12.3555H6.71087C7.09927 12.3555 7.42136 12.6597 7.42136 13.0265C7.42136 13.3933 7.09927 13.6975 6.71087 13.6975Z" fill="white"/>
<path d="M3.86889 10.1184H1.0269C0.638498 10.1184 0.316406 9.81422 0.316406 9.44739C0.316406 9.08056 0.638498 8.77637 1.0269 8.77637H3.86889C4.25729 8.77637 4.57938 9.08056 4.57938 9.44739C4.57938 9.81422 4.25729 10.1184 3.86889 10.1184Z" fill="white"/>
</svg>
