<svg width="22" height="22" viewBox="0 0 22 22" fill="none" xmlns="http://www.w3.org/2000/svg">
<path d="M11.9165 8.9375H6.4165C6.04067 8.9375 5.729 8.62583 5.729 8.25C5.729 7.87417 6.04067 7.5625 6.4165 7.5625H11.9165C12.2923 7.5625 12.604 7.87417 12.604 8.25C12.604 8.62583 12.2923 8.9375 11.9165 8.9375Z" fill="#00D19D"/>
<path d="M17.4531 13.5669C16.0689 13.5669 14.8956 12.5402 14.7856 11.2202C14.7123 10.4594 14.9873 9.71692 15.5373 9.17609C15.9956 8.69942 16.6464 8.43359 17.3339 8.43359H19.2498C20.1573 8.46109 20.8539 9.17606 20.8539 10.0561V11.9444C20.8539 12.8244 20.1573 13.5394 19.2773 13.5669H17.4531ZM19.2222 9.80859H17.3431C17.0222 9.80859 16.7289 9.92776 16.5181 10.1478C16.2523 10.4044 16.1239 10.7527 16.1606 11.1011C16.2064 11.7061 16.7931 12.1919 17.4531 12.1919H19.2498C19.3689 12.1919 19.4789 12.0819 19.4789 11.9444V10.0561C19.4789 9.91856 19.3689 9.81776 19.2222 9.80859Z" fill="#00D19D"/>
<path d="M14.6668 19.4788H6.41683C3.2635 19.4788 1.146 17.3613 1.146 14.208V7.79134C1.146 4.96801 2.88764 2.92385 5.59181 2.58468C5.83931 2.54801 6.1235 2.52051 6.41683 2.52051H14.6668C14.8868 2.52051 15.171 2.52967 15.4643 2.57551C18.1685 2.88717 19.9377 4.94051 19.9377 7.79134V9.12052C19.9377 9.49635 19.626 9.80802 19.2502 9.80802H17.3435C17.0226 9.80802 16.7293 9.92718 16.5185 10.1472L16.5093 10.1564C16.2527 10.4039 16.1335 10.743 16.161 11.0913C16.2068 11.6963 16.7935 12.1822 17.4535 12.1822H19.2502C19.626 12.1822 19.9377 12.4938 19.9377 12.8697V14.1988C19.9377 17.3613 17.8202 19.4788 14.6668 19.4788ZM6.41683 3.89551C6.19683 3.89551 5.98598 3.91383 5.77515 3.94133C3.75848 4.198 2.521 5.66467 2.521 7.79134V14.208C2.521 16.573 4.05183 18.1038 6.41683 18.1038H14.6668C17.0318 18.1038 18.5627 16.573 18.5627 14.208V13.5663H17.4535C16.0693 13.5663 14.896 12.5397 14.786 11.2197C14.7127 10.468 14.9877 9.71636 15.5377 9.18469C16.0143 8.69886 16.656 8.43302 17.3435 8.43302H18.5627V7.79134C18.5627 5.64634 17.3068 4.17049 15.2718 3.93215C15.0518 3.89549 14.8593 3.89551 14.6668 3.89551H6.41683Z" fill="#00D19D"/>
</svg>
