<svg width="16" height="16" viewBox="0 0 16 16" fill="none" xmlns="http://www.w3.org/2000/svg">
<path d="M8.00022 8.8669C7.91355 8.8669 7.82688 8.84692 7.74688 8.80025L1.86023 5.39359C1.62023 5.25359 1.54021 4.94691 1.68021 4.70691C1.82021 4.46691 2.12021 4.38689 2.36688 4.52689L8.00022 7.7869L13.6002 4.54691C13.8402 4.40691 14.1469 4.49359 14.2869 4.72693C14.4269 4.96693 14.3402 5.27357 14.1069 5.41357L8.26023 8.80025C8.17356 8.84025 8.08689 8.8669 8.00022 8.8669Z" fill="#00D19D"/>
<path d="M8 14.9065C7.72667 14.9065 7.5 14.6799 7.5 14.4065V8.35986C7.5 8.08653 7.72667 7.85986 8 7.85986C8.27333 7.85986 8.5 8.08653 8.5 8.35986V14.4065C8.5 14.6799 8.27333 14.9065 8 14.9065Z" fill="#00D19D"/>
<path d="M8.00041 15.1668C7.41374 15.1668 6.83374 15.0402 6.37374 14.7868L2.81374 12.8068C1.84707 12.2735 1.09375 10.9868 1.09375 9.88016V6.11348C1.09375 5.00681 1.84707 3.72684 2.81374 3.18684L6.37374 1.2135C7.28707 0.706829 8.71374 0.706829 9.62707 1.2135L13.1871 3.19348C14.1537 3.72681 14.9071 5.01349 14.9071 6.12015V9.88684C14.9071 10.9935 14.1537 12.2735 13.1871 12.8135L9.62707 14.7868C9.16708 15.0402 8.58707 15.1668 8.00041 15.1668ZM8.00041 1.83349C7.58041 1.83349 7.16708 1.92016 6.86041 2.08683L3.30041 4.06681C2.66041 4.42681 2.09375 5.38015 2.09375 6.12015V9.88684C2.09375 10.6202 2.66041 11.5801 3.30041 11.9401L6.86041 13.9202C7.46708 14.2602 8.53373 14.2602 9.1404 13.9202L12.7004 11.9401C13.3404 11.5801 13.9071 10.6268 13.9071 9.88684V6.12015C13.9071 5.38682 13.3404 4.42681 12.7004 4.06681L9.1404 2.08683C8.83373 1.92016 8.42041 1.83349 8.00041 1.83349Z" fill="#00D19D"/>
<path d="M11.3328 9.32686C11.0595 9.32686 10.8328 9.10019 10.8328 8.82686V6.68021L4.7528 3.17354C4.5128 3.03354 4.43279 2.72686 4.57279 2.49353C4.71279 2.25353 5.0128 2.17351 5.2528 2.31351L11.5795 5.96688C11.7328 6.05354 11.8328 6.22018 11.8328 6.40018V8.84021C11.8328 9.10021 11.6061 9.32686 11.3328 9.32686Z" fill="#00D19D"/>
</svg>
