<svg width="23" height="23" viewBox="0 0 23 23" fill="none" xmlns="http://www.w3.org/2000/svg">
<path d="M12.459 14.1353H11.5007C11.1078 14.1353 10.7819 13.8094 10.7819 13.4165C10.7819 13.0236 11.1078 12.6978 11.5007 12.6978H12.459C13.1203 12.6978 13.6569 12.1611 13.6569 11.4998V2.63525H5.75068C4.61985 2.63525 3.58482 3.24857 3.02899 4.23565C2.83732 4.58065 2.39653 4.70527 2.05153 4.51361C1.70653 4.32194 1.58191 3.88109 1.77358 3.53609C2.57858 2.09859 4.10235 1.19775 5.75068 1.19775H14.3757C14.7686 1.19775 15.0944 1.52359 15.0944 1.9165V11.4998C15.0944 12.9565 13.9157 14.1353 12.459 14.1353Z" fill="#002399"/>
<path d="M18.2077 19.8853H17.2493C16.8564 19.8853 16.5306 19.5594 16.5306 19.1665C16.5306 18.5053 15.9939 17.9686 15.3327 17.9686C14.6714 17.9686 14.1348 18.5053 14.1348 19.1665C14.1348 19.5594 13.8089 19.8853 13.416 19.8853H9.58268C9.18977 19.8853 8.86393 19.5594 8.86393 19.1665C8.86393 18.5053 8.32727 17.9686 7.66602 17.9686C7.00477 17.9686 6.4681 18.5053 6.4681 19.1665C6.4681 19.5594 6.14227 19.8853 5.74935 19.8853H4.79102C2.80727 19.8853 1.19727 18.2753 1.19727 16.2915C1.19727 15.8986 1.5231 15.5728 1.91602 15.5728C2.30893 15.5728 2.63477 15.8986 2.63477 16.2915C2.63477 17.4798 3.60268 18.4478 4.79102 18.4478H5.12641C5.44266 17.3457 6.45852 16.5311 7.66602 16.5311C8.87352 16.5311 9.88937 17.3457 10.2056 18.4478H12.8027C13.1189 17.3457 14.1348 16.5311 15.3423 16.5311C16.5498 16.5311 17.5656 17.3457 17.8818 18.4478H18.2077C19.396 18.4478 20.3639 17.4798 20.3639 16.2915V14.1353H18.2077C17.2877 14.1353 16.5306 13.3782 16.5306 12.4582V9.58317C16.5306 8.66317 17.2781 7.90609 18.2077 7.90609L17.1823 6.11401C16.9714 5.74026 16.569 5.51025 16.1377 5.51025H15.0931V11.4998C15.0931 12.9565 13.9143 14.1353 12.4577 14.1353H11.4993C11.1064 14.1353 10.7806 13.8094 10.7806 13.4165C10.7806 13.0236 11.1064 12.6978 11.4993 12.6978H12.4577C13.1189 12.6978 13.6556 12.1611 13.6556 11.4998V4.7915C13.6556 4.39859 13.9814 4.07275 14.3743 4.07275H16.1377C17.0865 4.07275 17.9585 4.58068 18.4281 5.40485L20.0669 8.27026C20.1914 8.49067 20.1914 8.76859 20.0669 8.98901C19.9423 9.20942 19.7027 9.34359 19.4439 9.34359H18.2077C18.0735 9.34359 17.9681 9.449 17.9681 9.58317V12.4582C17.9681 12.5923 18.0735 12.6978 18.2077 12.6978H21.0827C21.4756 12.6978 21.8014 13.0236 21.8014 13.4165V16.2915C21.8014 18.2753 20.1914 19.8853 18.2077 19.8853Z" fill="#002399"/>
<path d="M7.66667 21.8021C6.21 21.8021 5.03125 20.6233 5.03125 19.1667C5.03125 17.71 6.21 16.5312 7.66667 16.5312C9.12333 16.5312 10.3021 17.71 10.3021 19.1667C10.3021 20.6233 9.12333 21.8021 7.66667 21.8021ZM7.66667 17.9688C7.00542 17.9688 6.46875 18.5054 6.46875 19.1667C6.46875 19.8279 7.00542 20.3646 7.66667 20.3646C8.32792 20.3646 8.86458 19.8279 8.86458 19.1667C8.86458 18.5054 8.32792 17.9688 7.66667 17.9688Z" fill="#002399"/>
<path d="M15.3327 21.8021C13.876 21.8021 12.6973 20.6233 12.6973 19.1667C12.6973 17.71 13.876 16.5312 15.3327 16.5312C16.7893 16.5312 17.9681 17.71 17.9681 19.1667C17.9681 20.6233 16.7893 21.8021 15.3327 21.8021ZM15.3327 17.9688C14.6714 17.9688 14.1348 18.5054 14.1348 19.1667C14.1348 19.8279 14.6714 20.3646 15.3327 20.3646C15.9939 20.3646 16.5306 19.8279 16.5306 19.1667C16.5306 18.5054 15.9939 17.9688 15.3327 17.9688Z" fill="#002399"/>
<path d="M21.0833 14.1354H18.2083C17.2883 14.1354 16.5312 13.3783 16.5312 12.4583V9.58333C16.5312 8.66333 17.2883 7.90625 18.2083 7.90625H19.4446C19.7033 7.90625 19.9429 8.04042 20.0675 8.27042L21.7063 11.1454C21.7638 11.2508 21.8021 11.3754 21.8021 11.5V13.4167C21.8021 13.8096 21.4763 14.1354 21.0833 14.1354ZM18.2083 9.34375C18.0742 9.34375 17.9688 9.44917 17.9688 9.58333V12.4583C17.9688 12.5925 18.0742 12.6979 18.2083 12.6979H20.3646V11.6917L19.0229 9.34375H18.2083Z" fill="#002399"/>
<path d="M7.66602 8.38525H1.91602C1.5231 8.38525 1.19727 8.05942 1.19727 7.6665C1.19727 7.27359 1.5231 6.94775 1.91602 6.94775H7.66602C8.05893 6.94775 8.38477 7.27359 8.38477 7.6665C8.38477 8.05942 8.05893 8.38525 7.66602 8.38525Z" fill="#002399"/>
<path d="M5.74935 11.2603H1.91602C1.5231 11.2603 1.19727 10.9344 1.19727 10.5415C1.19727 10.1486 1.5231 9.82275 1.91602 9.82275H5.74935C6.14227 9.82275 6.4681 10.1486 6.4681 10.5415C6.4681 10.9344 6.14227 11.2603 5.74935 11.2603Z" fill="#002399"/>
<path d="M3.83268 14.1353H1.91602C1.5231 14.1353 1.19727 13.8094 1.19727 13.4165C1.19727 13.0236 1.5231 12.6978 1.91602 12.6978H3.83268C4.2256 12.6978 4.55143 13.0236 4.55143 13.4165C4.55143 13.8094 4.2256 14.1353 3.83268 14.1353Z" fill="#002399"/>
</svg>
