<svg xmlns="http://www.w3.org/2000/svg" width="115.063" height="42.062" viewBox="0 0 115.063 42.062">
  <g id="Grupo_3760" data-name="Grupo 3760" transform="translate(-520.937 -1243.938)">
    <path id="Retângulo_3243" data-name="Retângulo 3243" d="M0,0H88a13,13,0,0,1,13,13V42a0,0,0,0,1,0,0H0a0,0,0,0,1,0,0V0A0,0,0,0,1,0,0Z" transform="translate(535 1244)" fill="#070707"/>
    <g id="Grupo_3668" data-name="Grupo 3668" transform="translate(524.937 1251.779)">
      <g id="Caminho_1702" data-name="Caminho 1702" transform="translate(-163.68 -28.615)" fill="#fd3141">
        <path d="M 174.0616760253906 58.64205551147461 C 170.7544250488281 58.64205551147461 167.6451110839844 57.35413360595703 165.3065185546875 55.01553344726562 C 162.9679107666016 52.67692565917969 161.6799774169922 49.5676155090332 161.6799774169922 46.26035308837891 C 161.6799774169922 43.93857574462891 163.0326232910156 40.75551605224609 166.8289489746094 38.78491592407227 L 167.3586120605469 38.50997161865234 C 167.0927276611328 37.26836013793945 167.1113433837891 36.15216827392578 167.2398529052734 35.23971557617188 C 167.4874877929688 33.48130416870117 168.2467346191406 31.72351455688477 169.4355010986328 30.15636444091797 C 170.4239959716797 28.85322570800781 171.7020111083984 27.6963939666748 173.0341033935547 26.89897537231445 L 176.7169494628906 24.69435501098633 L 176.0360260009766 28.93227386474609 C 175.8260650634766 30.23907470703125 176.8693695068359 31.25651550292969 179.3000335693359 33.26655578613281 C 181.8204956054688 35.35085296630859 185.0936737060547 38.05773544311523 186.1257171630859 42.68955993652344 L 186.4429779052734 42.47289657592773 L 186.4432830810547 45.23257446289062 C 186.4548797607422 45.57410049438477 186.4551696777344 45.92401123046875 186.443359375 46.28353881835938 C 186.4374084472656 49.58226776123047 185.1500396728516 52.68243789672852 182.8168487548828 55.01559448242188 C 180.478271484375 57.35415649414062 177.3689422607422 58.64205551147461 174.0616760253906 58.64205551147461 Z M 169.3669281005859 42.78228759765625 C 169.2040863037109 44.33342742919922 169.44970703125 45.59601211547852 170.0929565429688 46.42690658569336 C 170.7273101806641 47.24629592895508 171.4780578613281 47.30997467041016 171.6930541992188 47.30997467041016 C 171.9792327880859 47.30997467041016 172.1337432861328 47.22042465209961 172.1499481201172 47.18308639526367 C 172.2313995361328 46.99545288085938 172.1706390380859 45.90433502197266 170.38525390625 43.99401473999023 C 170.0057678222656 43.58795547485352 169.6675415039062 43.18331527709961 169.3669281005859 42.78228759765625 Z" stroke="none"/>
        <path d="M 174.0616760253906 56.64205551147461 C 179.7953033447266 56.64205551147461 184.4433898925781 51.99414443969727 184.4433898925781 46.26035308837891 L 184.4429779052734 46.26063537597656 C 184.8232116699219 35.636474609375 173.1178894042969 34.48703384399414 174.0613555908203 28.61500549316406 C 170.5386352539062 30.72377395629883 166.2526245117188 36.64264297485352 171.846435546875 42.62838363647461 C 179.7765502929688 51.11339569091797 164.6226959228516 52.64691543579102 167.7503662109375 40.56001663208008 C 164.5825958251953 42.204345703125 163.6799774169922 44.69932556152344 163.6799774169922 46.26035308837891 C 163.6799774169922 51.99398422241211 168.3280792236328 56.64205551147461 174.0616760253906 56.64205551147461 M 174.0616760253906 60.64205551147461 C 172.1219329833984 60.64205551147461 170.2380828857422 60.26125335693359 168.4624633789062 59.51022338867188 C 166.7494201660156 58.78566360473633 165.2118072509766 57.74924468994141 163.8923034667969 56.42974472045898 C 162.5727996826172 55.11024475097656 161.536376953125 53.57262420654297 160.8118133544922 51.85959625244141 C 160.060791015625 50.08396530151367 159.6799774169922 48.20010375976562 159.6799774169922 46.26035308837891 C 159.6799774169922 44.62154388427734 160.1869812011719 42.88348388671875 161.1076049804688 41.3663330078125 C 162.0730285644531 39.77535629272461 163.4406890869141 38.44873428344727 165.1800689697266 37.41419982910156 C 165.1115417480469 36.51053237915039 165.1576080322266 35.68350601196289 165.2593841552734 34.96079635620117 C 165.5545043945312 32.86532592773438 166.4475708007812 30.78601455688477 167.8420715332031 28.94765472412109 C 168.9814453125 27.44560432434082 170.4605407714844 26.10860443115234 172.0068511962891 25.18294525146484 L 179.3725433349609 20.77370452880859 L 178.0107116699219 29.24955558776855 C 178.0106506347656 29.24990463256836 178.0105895996094 29.25025177001953 178.0105438232422 29.25059509277344 C 178.0438995361328 29.3222770690918 178.1643218994141 29.5376091003418 178.5464324951172 29.93675422668457 C 179.0579833984375 30.47112464904785 179.7946624755859 31.08032417297363 180.5746002197266 31.72529411315918 C 182.7135162353516 33.49407958984375 185.5732574462891 35.85919570922852 187.1931762695312 39.53866577148438 L 188.4429779052734 38.68514633178711 L 188.4433288574219 45.18743133544922 C 188.4550628662109 45.55508804321289 188.4553070068359 45.93267059326172 188.4432678222656 46.31845855712891 C 188.4357299804688 48.23772048950195 188.0550689697266 50.10178756713867 187.3115539550781 51.85964584350586 C 186.5869903564453 53.57269668579102 185.5505676269531 55.11032485961914 184.2310638427734 56.42982482910156 C 182.9115600585938 57.74930572509766 181.3739318847656 58.78571319580078 179.6608734130859 59.51025390625 C 177.8852691650391 60.26126480102539 176.0014190673828 60.64205551147461 174.0616760253906 60.64205551147461 Z" stroke="none" fill="#070707"/>
      </g>
    </g>
    <text id="DESTAQUE_MEGA_BLACK" data-name="DESTAQUE
MEGA BLACK" transform="translate(548.5 1261.793)" fill="#fff" font-size="12" font-family="Poppins-Black, Poppins" font-weight="800"><tspan x="0" y="0">DESTAQUE</tspan><tspan fill="#f03543"><tspan x="0" y="13">MEGA BLACK</tspan></tspan></text>
  </g>
</svg>
