<svg width="24" height="25" viewBox="0 0 24 25" fill="none" xmlns="http://www.w3.org/2000/svg">
<path d="M12.9998 15.2878H11.9998C11.5898 15.2878 11.2498 14.9478 11.2498 14.5378C11.2498 14.1278 11.5898 13.7878 11.9998 13.7878H12.9998C13.6898 13.7878 14.2498 13.2278 14.2498 12.5378V3.28784H5.99978C4.81978 3.28784 3.73975 3.92782 3.15975 4.95782C2.95975 5.31782 2.49979 5.44786 2.13979 5.24786C1.77979 5.04786 1.64975 4.58784 1.84975 4.22784C2.68975 2.72784 4.27978 1.78784 5.99978 1.78784H14.9998C15.4098 1.78784 15.7498 2.12784 15.7498 2.53784V12.5378C15.7498 14.0578 14.5198 15.2878 12.9998 15.2878Z" fill="#354350"/>
<path d="M19 21.2878H18C17.59 21.2878 17.25 20.9478 17.25 20.5378C17.25 19.8478 16.69 19.2878 16 19.2878C15.31 19.2878 14.75 19.8478 14.75 20.5378C14.75 20.9478 14.41 21.2878 14 21.2878H10C9.59 21.2878 9.25 20.9478 9.25 20.5378C9.25 19.8478 8.69 19.2878 8 19.2878C7.31 19.2878 6.75 19.8478 6.75 20.5378C6.75 20.9478 6.41 21.2878 6 21.2878H5C2.93 21.2878 1.25 19.6078 1.25 17.5378C1.25 17.1278 1.59 16.7878 2 16.7878C2.41 16.7878 2.75 17.1278 2.75 17.5378C2.75 18.7778 3.76 19.7878 5 19.7878H5.34998C5.67998 18.6378 6.74 17.7878 8 17.7878C9.26 17.7878 10.32 18.6378 10.65 19.7878H13.36C13.69 18.6378 14.75 17.7878 16.01 17.7878C17.27 17.7878 18.33 18.6378 18.66 19.7878H19C20.24 19.7878 21.25 18.7778 21.25 17.5378V15.2878H19C18.04 15.2878 17.25 14.4978 17.25 13.5378V10.5378C17.25 9.57784 18.03 8.78784 19 8.78784L17.93 6.91785C17.71 6.52785 17.29 6.28784 16.84 6.28784H15.75V12.5378C15.75 14.0578 14.52 15.2878 13 15.2878H12C11.59 15.2878 11.25 14.9478 11.25 14.5378C11.25 14.1278 11.59 13.7878 12 13.7878H13C13.69 13.7878 14.25 13.2278 14.25 12.5378V5.53784C14.25 5.12784 14.59 4.78784 15 4.78784H16.84C17.83 4.78784 18.74 5.31786 19.23 6.17786L20.94 9.16785C21.07 9.39785 21.07 9.68785 20.94 9.91785C20.81 10.1478 20.56 10.2878 20.29 10.2878H19C18.86 10.2878 18.75 10.3978 18.75 10.5378V13.5378C18.75 13.6778 18.86 13.7878 19 13.7878H22C22.41 13.7878 22.75 14.1278 22.75 14.5378V17.5378C22.75 19.6078 21.07 21.2878 19 21.2878Z" fill="#354350"/>
<path d="M8 23.2878C6.48 23.2878 5.25 22.0578 5.25 20.5378C5.25 19.0178 6.48 17.7878 8 17.7878C9.52 17.7878 10.75 19.0178 10.75 20.5378C10.75 22.0578 9.52 23.2878 8 23.2878ZM8 19.2878C7.31 19.2878 6.75 19.8478 6.75 20.5378C6.75 21.2278 7.31 21.7878 8 21.7878C8.69 21.7878 9.25 21.2278 9.25 20.5378C9.25 19.8478 8.69 19.2878 8 19.2878Z" fill="#354350"/>
<path d="M16 23.2878C14.48 23.2878 13.25 22.0578 13.25 20.5378C13.25 19.0178 14.48 17.7878 16 17.7878C17.52 17.7878 18.75 19.0178 18.75 20.5378C18.75 22.0578 17.52 23.2878 16 23.2878ZM16 19.2878C15.31 19.2878 14.75 19.8478 14.75 20.5378C14.75 21.2278 15.31 21.7878 16 21.7878C16.69 21.7878 17.25 21.2278 17.25 20.5378C17.25 19.8478 16.69 19.2878 16 19.2878Z" fill="#354350"/>
<path d="M22 15.2878H19C18.04 15.2878 17.25 14.4978 17.25 13.5378V10.5378C17.25 9.57784 18.04 8.78784 19 8.78784H20.29C20.56 8.78784 20.81 8.92785 20.94 9.16785L22.65 12.1678C22.71 12.2778 22.75 12.4078 22.75 12.5378V14.5378C22.75 14.9478 22.41 15.2878 22 15.2878ZM19 10.2878C18.86 10.2878 18.75 10.3978 18.75 10.5378V13.5378C18.75 13.6778 18.86 13.7878 19 13.7878H21.25V12.7379L19.85 10.2878H19Z" fill="#354350"/>
<path d="M8 9.28784H2C1.59 9.28784 1.25 8.94784 1.25 8.53784C1.25 8.12784 1.59 7.78784 2 7.78784H8C8.41 7.78784 8.75 8.12784 8.75 8.53784C8.75 8.94784 8.41 9.28784 8 9.28784Z" fill="#354350"/>
<path d="M6 12.2878H2C1.59 12.2878 1.25 11.9478 1.25 11.5378C1.25 11.1278 1.59 10.7878 2 10.7878H6C6.41 10.7878 6.75 11.1278 6.75 11.5378C6.75 11.9478 6.41 12.2878 6 12.2878Z" fill="#354350"/>
<path d="M4 15.2878H2C1.59 15.2878 1.25 14.9478 1.25 14.5378C1.25 14.1278 1.59 13.7878 2 13.7878H4C4.41 13.7878 4.75 14.1278 4.75 14.5378C4.75 14.9478 4.41 15.2878 4 15.2878Z" fill="#354350"/>
</svg>
