<svg width="20" height="29" viewBox="0 0 20 29" fill="none" xmlns="http://www.w3.org/2000/svg">
<path d="M14.6221 5.13245L4.52526 0.19435C3.20763 -0.450308 1.71213 0.587773 1.71511 2.14436C1.72008 5.24791 1.72803 9.5018 1.72902 10.2053C1.73101 11.3064 2.56571 12.2023 3.58921 12.2023C4.61469 12.2023 5.44939 11.3053 5.45039 10.2021L5.45337 5.18698L13.0094 8.91594C15.6953 10.2437 16.8768 13.6744 15.6427 16.5652C15.0484 17.9572 13.9782 19.0199 12.6298 19.5576C12.0217 19.8003 11.33 19.9179 10.5172 19.9179H10.082L9.4639 19.9211V19.9232C8.88657 19.9254 7.48248 19.9286 7.48248 19.9286L3.75615 22.2742L3.75118 20.0024H0V29.0008L8.46325 24.0809L11.024 24.0884L11.4761 24.0542C12.3247 23.9815 13.1654 23.7816 13.9743 23.4598C16.2915 22.5361 18.1319 20.7047 19.1583 18.3025C21.2819 13.327 19.2488 7.41923 14.6221 5.13245Z" fill="white"/>
</svg>
