<svg width="31" height="28" viewBox="0 0 31 28" fill="none" xmlns="http://www.w3.org/2000/svg">
<path d="M24.5222 27.9826C22.8771 27.9826 21.2285 27.3438 19.9767 26.0629L12.6951 18.6318C11.4809 17.3927 10.8105 15.7452 10.8105 13.993C10.8105 12.2409 11.4775 10.5934 12.6951 9.35431L19.9767 1.92324C22.4837 -0.635221 26.5606 -0.635221 29.0677 1.92324C31.5747 4.48171 31.5747 8.64226 29.0677 11.2007L26.3315 13.993L29.0677 16.7889C30.2818 18.028 30.9522 19.6754 30.9522 21.4276C30.9522 23.1798 30.2853 24.8273 29.0677 26.0663C27.8159 27.3438 26.1673 27.9861 24.5222 27.9861V27.9826ZM24.5222 3.09253C23.6535 3.09253 22.7813 3.4311 22.1178 4.10823L14.8361 11.5393C14.1931 12.1955 13.8409 13.0646 13.8409 13.993C13.8409 14.9215 14.1931 15.7906 14.8361 16.4468L22.1178 23.8779C23.4448 25.2287 25.5996 25.2287 26.9266 23.8779C27.5696 23.2217 27.9219 22.3526 27.9219 21.4241C27.9219 20.4957 27.5696 19.6266 26.9266 18.9704L22.046 13.9896L26.9266 9.00876C28.2536 7.65448 28.2536 5.45553 26.9266 4.10125C26.2631 3.42411 25.3943 3.08555 24.5222 3.08555V3.09253Z" fill="white"/>
<path d="M6.43001 27.986C4.71306 27.986 3.09872 27.3019 1.88454 26.0628C0.670365 24.8237 0 23.1763 0 21.4241C0 19.6719 0.666945 18.0244 1.88454 16.7853L4.62414 13.993L1.88454 11.2007C-0.622476 8.64223 -0.622476 4.48168 1.88454 1.92321C3.09872 0.684119 4.71306 0 6.43001 0C8.14696 0 9.76129 0.680628 10.9755 1.92321L18.2571 9.35428C19.4713 10.5934 20.1416 12.2408 20.1416 13.993C20.1416 15.7452 19.4747 17.3927 18.2571 18.6318L10.9755 26.0628C9.76129 27.3019 8.14696 27.986 6.43001 27.986ZM6.43001 3.08901C5.52365 3.08901 4.6686 3.44852 4.0256 4.10471C2.69856 5.4555 2.69856 7.65794 4.0256 9.01222L8.90624 13.993L4.0256 18.9738C3.3826 19.63 3.03032 20.4991 3.03032 21.4276C3.03032 22.356 3.3826 23.2251 4.0256 23.8813C4.6686 24.5375 5.52023 24.897 6.43001 24.897C7.33979 24.897 8.19142 24.5375 8.83442 23.8813L16.116 16.4503C16.7591 15.7941 17.1113 14.925 17.1113 13.9965C17.1113 13.0681 16.7591 12.199 16.116 11.5428L8.83442 4.11169C8.19142 3.4555 7.33979 3.09599 6.43001 3.09599V3.08901Z" fill="#00D19D"/>
</svg>
