<?xml version="1.0" encoding="utf-8"?>
<!-- Generator: Adobe Illustrator 26.2.1, SVG Export Plug-In . SVG Version: 6.00 Build 0)  -->
<svg version="1.1" id="Camada_1" xmlns="http://www.w3.org/2000/svg" xmlns:xlink="http://www.w3.org/1999/xlink" x="0px" y="0px"
	 viewBox="0 0 45 45" style="enable-background:new 0 0 45 45;" xml:space="preserve">
<style type="text/css">
	.st0{fill:#FDFDFD;}
	.st1{fill:#01C2EF;}
	.st2{fill:#FDCC06;}
	.st3{fill:#FE435D;}
	.st4{fill:#8FD74C;}
	.st5{fill:#CBD0D9;}
	.st6{fill:#FEFDFE;}
	.st7{fill:#FE0724;}
	.st8{fill:#5484D4;}
</style>
<g id="dKW2rr.tif">
	<g>
		<path class="st1" d="M20.51,32.39c3.38,1.17,6.75,2.35,10.13,3.51c4.19,1.44,8.39,2.87,12.58,4.31c0.16,0.06,0.37,0.04,0.49,0.25
			c-0.26,0.45-0.84,0.34-1.18,0.64c-13.4,0-26.8,0-40.2,0c-0.4-0.31-0.99-0.31-1.29-0.78C7.53,37.67,14.02,35.03,20.51,32.39z"/>
		<path class="st2" d="M20.51,32.39c-6.49,2.64-12.99,5.29-19.48,7.93c-0.61-0.33-0.71-1-1.02-1.54c0-0.32,0-0.64,0-0.95
			c0.05-0.01,0.1-0.02,0.15-0.03c0.04-0.04,0.08-0.08,0.12-0.12c0,0-0.01,0.01-0.01,0.01c1.17-0.27,2.25-0.8,3.37-1.23
			c5.84-2.26,11.67-4.53,17.51-6.81c0.07,0.09,0.15,0.17,0.2,0.27c0.24,0.5,0.45,0.44,0.68-0.01c0.14-0.28,0.32-0.54,0.49-0.8
			c0.04-0.05,0.08-0.09,0.12-0.14l-0.01,0.01c0.26,0.06,0.49-0.06,0.72-0.15c2.11-0.82,4.23-1.63,6.34-2.45
			c1.79-0.7,3.57-1.42,5.36-2.13c1.41-0.01,2.83-0.15,4.23,0.09c0.16,0.03,0.31,0.04,0.43,0.17c-0.2,0.1-0.4,0.2-0.61,0.29
			c-5.17,2.12-10.35,4.24-15.52,6.36C22.54,31.51,21.5,31.89,20.51,32.39z"/>
		<path class="st3" d="M22.52,29.1c-0.16,0.27-0.35,0.52-0.49,0.8c-0.23,0.45-0.44,0.51-0.68,0.01c-0.05-0.1-0.13-0.18-0.2-0.27
			c-1.01-1.86-2.1-3.67-3.23-5.46c-1.17-2.07-2.36-4.13-3.52-6.2c-0.37-0.67-0.67-1.38-0.99-2.09c-1.35-3.03-0.72-5.81,1.19-8.35
			c2.26-3.01,6.34-4.23,9.87-3.04c3.65,1.23,6.16,4.61,6.2,8.34c0.01,1.17-0.39,2.23-0.87,3.25c-1.14,2.47-2.62,4.76-3.94,7.14
			c-0.17,0.32-0.34,0.64-0.51,0.95c-0.95,1.57-1.91,3.13-2.73,4.78c0,0,0.01-0.01,0.01-0.01C22.6,29.01,22.56,29.06,22.52,29.1z
			 M21.67,16.03c1.36,0.01,2.44-1.04,2.46-2.38c0.02-1.38-1.06-2.49-2.42-2.5c-1.35-0.01-2.48,1.12-2.47,2.46
			C19.25,14.96,20.33,16.03,21.67,16.03z"/>
		<path class="st4" d="M17.92,24.19c1.13,1.79,2.22,3.6,3.23,5.46c-5.84,2.27-11.67,4.55-17.51,6.81c-1.11,0.43-2.2,0.95-3.37,1.23
			c0.14-1.04,0.58-1.99,0.9-2.98c0.91-2.87,1.87-5.72,2.8-8.59c0.46-1.42,1.08-1.9,2.58-1.91c1.79-0.02,3.59,0,5.38-0.01
			C13.93,24.2,15.92,24.19,17.92,24.19z"/>
		<path class="st5" d="M23.58,31.14c5.17-2.12,10.35-4.24,15.52-6.36c0.21-0.08,0.4-0.19,0.61-0.29c0.6,0.18,0.92,0.61,1.1,1.18
			c1.31,4.03,2.63,8.05,3.94,12.07c0.06,0.17,0.17,0.36,0.03,0.51c-0.15,0.17-0.35,0-0.5-0.05c-4.82-1.65-9.64-3.3-14.46-4.96
			c-1.78-0.61-3.55-1.23-5.33-1.85C24.19,31.3,23.89,31.22,23.58,31.14z"/>
		<path class="st4" d="M22.63,28.97c0.82-1.65,1.78-3.21,2.73-4.78c2.96,0,5.92,0.01,8.88,0.01c0.27,0,0.54,0.02,0.81,0.03
			c-1.79,0.71-3.57,1.43-5.36,2.13c-2.11,0.83-4.23,1.64-6.34,2.45C23.12,28.92,22.89,29.04,22.63,28.97z"/>
		<path class="st4" d="M0.28,37.68c-0.04,0.04-0.08,0.08-0.12,0.12C0.18,37.73,0.18,37.66,0.28,37.68z"/>
		<path class="st4" d="M22.52,29.1c0.04-0.05,0.08-0.09,0.12-0.14C22.6,29.01,22.56,29.06,22.52,29.1z"/>
	</g>
</g>
</svg>
