<svg xmlns="http://www.w3.org/2000/svg" width="12.072" height="7.149" viewBox="0 0 12.072 7.149">
  <path id="Union_93" data-name="Union 93" d="M420.483,449.556c-.019.018-.037.037-.055.056l-4.578,4.4a1.311,1.311,0,0,0,.013,1.908,1.447,1.447,0,0,0,1.974,0l3.641-3.5,3.641,3.5a1.446,1.446,0,0,0,1.987,0,1.311,1.311,0,0,0,0-1.907h0l-4.586-4.4-.047-.048a1.418,1.418,0,0,0-.742-.374,1.477,1.477,0,0,0-.254-.022A1.431,1.431,0,0,0,420.483,449.556Z" transform="translate(-415.445 -449.161)" fill="#a6b2bc"/>
</svg>
