<svg id="print" xmlns="http://www.w3.org/2000/svg" width="19.001" height="19" viewBox="0 0 19.001 19">
  <path id="Caminho_1300" data-name="Caminho 1300" d="M19.818,7.875H6.024a2.649,2.649,0,0,0-2.649,2.649V17.74A2.558,2.558,0,0,0,5.933,20.3H6.3V22.11A1.842,1.842,0,0,0,8.14,23.952H17.61a1.842,1.842,0,0,0,1.842-1.842V20.3h.366a2.558,2.558,0,0,0,2.558-2.558V10.433A2.558,2.558,0,0,0,19.818,7.875ZM17.99,22.11a.381.381,0,0,1-.38.38H8.14a.381.381,0,0,1-.38-.38V14.832a.381.381,0,0,1,.38-.38H17.61a.381.381,0,0,1,.38.38Zm1.187-9.855a1.1,1.1,0,1,1,1-1A1.1,1.1,0,0,1,19.178,12.256Z" transform="translate(-3.375 -4.952)" fill="#fff"/>
  <path id="Caminho_1301" data-name="Caminho 1301" d="M18.486,3.375H10.447A2.562,2.562,0,0,0,7.916,5.567h13.1a2.562,2.562,0,0,0-2.531-2.192Z" transform="translate(-4.966 -3.375)" fill="#fff"/>
</svg>
