<svg width="38" height="44" viewBox="0 0 38 44" fill="none" xmlns="http://www.w3.org/2000/svg">
<g>
<path d="M18.8806 18.1934C18.834 18.1934 18.803 18.1934 18.7564 18.1934C18.6787 18.1778 18.57 18.1778 18.4769 18.1934C13.9738 18.0536 10.5732 14.5133 10.5732 10.15C10.5732 5.70904 14.1912 2.09106 18.6322 2.09106C23.0731 2.09106 26.6911 5.70904 26.6911 10.15C26.6756 14.5133 23.2594 18.0536 18.9272 18.1934C18.9117 18.1934 18.8961 18.1934 18.8806 18.1934ZM18.6322 4.42023C15.48 4.42023 12.9024 6.99784 12.9024 10.15C12.9024 13.2555 15.3247 15.7555 18.4148 15.8642C18.4924 15.8487 18.7098 15.8487 18.9117 15.8642C21.9551 15.7245 24.3464 13.2245 24.3619 10.15C24.3619 6.99784 21.7843 4.42023 18.6322 4.42023Z" fill="#002399"/>
<path d="M18.8971 35.1649C15.8537 35.1649 12.7947 34.3885 10.4811 32.8357C8.32269 31.4071 7.14258 29.4506 7.14258 27.3233C7.14258 25.196 8.32269 23.224 10.4811 21.7799C15.1394 18.6899 22.6859 18.6899 27.3132 21.7799C29.456 23.2085 30.6516 25.165 30.6516 27.2923C30.6516 29.4196 29.4715 31.3916 27.3132 32.8357C24.984 34.3885 21.9406 35.1649 18.8971 35.1649ZM11.7699 23.7364C10.2792 24.7302 9.47175 26.0035 9.47175 27.3389C9.47175 28.6587 10.2947 29.932 11.7699 30.9103C15.6363 33.5034 22.1579 33.5034 26.0244 30.9103C27.515 29.9165 28.3225 28.6432 28.3225 27.3078C28.3225 25.9879 27.4995 24.7147 26.0244 23.7364C22.1579 21.1588 15.6363 21.1588 11.7699 23.7364Z" fill="#002399"/>
</g>
</svg>
