<svg width="23" height="23" viewBox="0 0 23 23" fill="none" xmlns="http://www.w3.org/2000/svg">
<path d="M21.8024 8.62504L21.8024 14.375C21.8024 19.5788 19.5791 21.8021 14.3753 21.8021L8.62533 21.8021C3.42158 21.8021 1.19824 19.5788 1.19824 14.375L1.19824 8.62504C1.19824 3.42129 3.42158 1.19796 8.62533 1.19796L14.3753 1.19796C19.5791 1.19796 21.8024 3.42129 21.8024 8.62504ZM2.63574 14.375C2.63574 18.793 4.20741 20.3646 8.62533 20.3646L14.3753 20.3646C18.7932 20.3646 20.3649 18.793 20.3649 14.375L20.3649 8.62504C20.3649 4.20712 18.7932 2.63546 14.3753 2.63546L8.62533 2.63546C4.20741 2.63546 2.63574 4.20712 2.63574 8.62504L2.63574 14.375Z" fill="#0B1841"/>
<path d="M15.6013 12.7075C15.6013 12.8896 15.5342 13.0716 15.3905 13.2154C15.1126 13.4933 14.6526 13.4933 14.3747 13.2154L11.4997 10.3404L8.62466 13.2154C8.34674 13.4933 7.88674 13.4933 7.60883 13.2154C7.33091 12.9375 7.33091 12.4775 7.60883 12.1996L10.9917 8.81664C11.2697 8.53872 11.7297 8.53872 12.0076 8.81664L15.3905 12.1996C15.5342 12.3433 15.6013 12.5254 15.6013 12.7075Z" fill="#0B1841"/>
</svg>
