<svg width="17" height="17" viewBox="0 0 17 17" fill="none" xmlns="http://www.w3.org/2000/svg">
<path d="M6.37516 0.885455L10.6252 0.885456C14.4714 0.885456 16.1147 2.52879 16.1147 6.37504L16.1147 10.625C16.1147 14.4713 14.4714 16.1146 10.6252 16.1146L6.37516 16.1146C2.52891 16.1146 0.885578 14.4713 0.885579 10.625L0.885579 6.37504C0.885579 2.52879 2.52891 0.885455 6.37516 0.885455ZM10.6252 15.0521C13.8906 15.0521 15.0522 13.8905 15.0522 10.625L15.0522 6.37504C15.0522 3.10962 13.8906 1.94796 10.6252 1.94796L6.37516 1.94796C3.10975 1.94795 1.94808 3.10962 1.94808 6.37504L1.94808 10.625C1.94808 13.8905 3.10975 15.0521 6.37516 15.0521L10.6252 15.0521Z" fill="#01249A"/>
<path d="M9.3924 5.46834C9.52698 5.46834 9.66156 5.51793 9.76781 5.62418C9.97323 5.82959 9.97323 6.16959 9.76781 6.37501L7.64281 8.50001L9.76781 10.625C9.97323 10.8304 9.97323 11.1704 9.76781 11.3758C9.5624 11.5813 9.2224 11.5813 9.01698 11.3758L6.51656 8.87543C6.31115 8.67001 6.31115 8.33001 6.51656 8.12459L9.01698 5.62418C9.12323 5.51793 9.25781 5.46834 9.3924 5.46834Z" fill="#01249A"/>
</svg>
