<svg width="17" height="17" viewBox="0 0 17 17" fill="none" xmlns="http://www.w3.org/2000/svg">
<path d="M10.6248 16.1145H6.37484C2.52859 16.1145 0.885254 14.4712 0.885254 10.625L0.885254 6.37496C0.885254 2.52871 2.52859 0.885376 6.37484 0.885376L10.6248 0.885376C14.4711 0.885376 16.1144 2.52871 16.1144 6.37496V10.625C16.1144 14.4712 14.4711 16.1145 10.6248 16.1145ZM6.37484 1.94788C3.10942 1.94788 1.94775 3.10954 1.94775 6.37496L1.94775 10.625C1.94775 13.8904 3.10942 15.052 6.37484 15.052L10.6248 15.052C13.8903 15.052 15.0519 13.8904 15.0519 10.625L15.0519 6.37496C15.0519 3.10954 13.8903 1.94788 10.6248 1.94788L6.37484 1.94788Z" fill="#01249A"/>
<path d="M7.6076 11.5317C7.47302 11.5317 7.33844 11.4821 7.23219 11.3758C7.02677 11.1704 7.02677 10.8304 7.23219 10.625L9.35719 8.49999L7.23219 6.37499C7.02677 6.16957 7.02677 5.82957 7.23219 5.62416C7.4376 5.41874 7.7776 5.41874 7.98302 5.62416L10.4834 8.12457C10.6889 8.32999 10.6889 8.66999 10.4834 8.87541L7.98302 11.3758C7.87677 11.4821 7.74219 11.5317 7.6076 11.5317Z" fill="#01249A"/>
</svg>
