<svg width="26" height="24" viewBox="0 0 26 24" fill="none" xmlns="http://www.w3.org/2000/svg">
<path d="M12.0668 22.75H8.13856C3.60038 22.75 1.57422 20.79 1.57422 16.4V12.6C1.57422 8.21 3.60038 6.25 8.13856 6.25H11.2398C11.6637 6.25 12.0151 6.59 12.0151 7C12.0151 7.41 11.6637 7.75 11.2398 7.75H8.13856C4.43772 7.75 3.12485 9.02 3.12485 12.6V16.4C3.12485 19.98 4.43772 21.25 8.13856 21.25H12.0668C15.7677 21.25 17.0805 19.98 17.0805 16.4V13.4C17.0805 12.99 17.432 12.65 17.8559 12.65C18.2797 12.65 18.6312 12.99 18.6312 13.4V16.4C18.6312 20.79 16.605 22.75 12.0668 22.75Z" fill="white"/>
<path d="M17.8562 14.15H14.5482C11.6433 14.15 10.4648 13.01 10.4648 10.2V6.99999C10.4648 6.69999 10.6509 6.41999 10.9404 6.30999C11.2298 6.18999 11.5606 6.25999 11.7881 6.46999L18.4041 12.87C18.6212 13.08 18.6935 13.41 18.5695 13.69C18.4558 13.97 18.1663 14.15 17.8562 14.15ZM12.0155 8.80999V10.2C12.0155 12.19 12.491 12.65 14.5482 12.65H15.9851L12.0155 8.80999Z" fill="white"/>
<path d="M16.4064 2.75H12.2714C11.8476 2.75 11.4961 2.41 11.4961 2C11.4961 1.59 11.8476 1.25 12.2714 1.25H16.4064C16.8303 1.25 17.1817 1.59 17.1817 2C17.1817 2.41 16.8303 2.75 16.4064 2.75Z" fill="white"/>
<path d="M7.5175 5.75C7.09366 5.75 6.74219 5.41 6.74219 5C6.74219 2.93 8.4789 1.25 10.6188 1.25H13.3272C13.751 1.25 14.1025 1.59 14.1025 2C14.1025 2.41 13.751 2.75 13.3272 2.75H10.6188C9.33691 2.75 8.29282 3.76 8.29282 5C8.29282 5.41 7.94134 5.75 7.5175 5.75Z" fill="white"/>
<path d="M20.1191 17.75C19.6952 17.75 19.3438 17.41 19.3438 17C19.3438 16.59 19.6952 16.25 20.1191 16.25C21.2975 16.25 22.2486 15.32 22.2486 14.19V8C22.2486 7.59 22.6001 7.25 23.0239 7.25C23.4478 7.25 23.7992 7.59 23.7992 8V14.19C23.7992 16.15 22.1452 17.75 20.1191 17.75Z" fill="white"/>
<path d="M23.0247 8.74999H19.9235C17.1737 8.74999 16.0469 7.65999 16.0469 4.99999V1.99999C16.0469 1.69999 16.233 1.41999 16.5224 1.30999C16.8119 1.18999 17.1427 1.25999 17.3701 1.46999L23.5726 7.46999C23.7897 7.67999 23.8621 8.00999 23.738 8.28999C23.6243 8.56999 23.3348 8.74999 23.0247 8.74999ZM17.5975 3.80999V4.99999C17.5975 6.82999 18.0317 7.24999 19.9235 7.24999H21.1536L17.5975 3.80999Z" fill="white"/>
</svg>
