<svg width="13" height="13" viewBox="0 0 13 13" fill="none" xmlns="http://www.w3.org/2000/svg">
<path d="M8.12565 12.3231H4.87565C1.9344 12.3231 0.677734 11.0664 0.677734 8.12516V4.87516C0.677734 1.93391 1.9344 0.677246 4.87565 0.677246H5.95898C6.18107 0.677246 6.36523 0.861413 6.36523 1.0835C6.36523 1.30558 6.18107 1.48975 5.95898 1.48975H4.87565C2.37857 1.48975 1.49023 2.37808 1.49023 4.87516V8.12516C1.49023 10.6222 2.37857 11.5106 4.87565 11.5106H8.12565C10.6227 11.5106 11.5111 10.6222 11.5111 8.12516V7.04183C11.5111 6.81975 11.6952 6.63558 11.9173 6.63558C12.1394 6.63558 12.3236 6.81975 12.3236 7.04183V8.12516C12.3236 11.0664 11.0669 12.3231 8.12565 12.3231Z" fill="#002399"/>
<path d="M4.60495 9.5823C4.27454 9.5823 3.9712 9.46313 3.74912 9.24646C3.4837 8.98105 3.36995 8.59646 3.42954 8.19021L3.66245 6.5598C3.70579 6.24563 3.91162 5.83938 4.1337 5.6173L8.40204 1.34896C9.47995 0.271048 10.5741 0.271048 11.652 1.34896C12.2425 1.93938 12.5079 2.54063 12.4537 3.14188C12.405 3.62938 12.145 4.10605 11.652 4.59355L7.3837 8.86188C7.16162 9.08396 6.75537 9.2898 6.4412 9.33313L4.81079 9.56605C4.74037 9.5823 4.66995 9.5823 4.60495 9.5823ZM8.9762 1.92313L4.70787 6.19146C4.60495 6.29438 4.48579 6.53271 4.46412 6.67355L4.2312 8.30396C4.20954 8.46105 4.24204 8.59105 4.32329 8.6723C4.40454 8.75355 4.53454 8.78605 4.69162 8.76438L6.32204 8.53146C6.46287 8.5098 6.70662 8.39063 6.80412 8.28771L11.0725 4.01938C11.4245 3.6673 11.6087 3.35313 11.6358 3.06063C11.6683 2.70855 11.4841 2.3348 11.0725 1.91771C10.2058 1.05105 9.60995 1.2948 8.9762 1.92313Z" fill="#002399"/>
<path d="M10.7526 5.3244C10.7147 5.3244 10.6767 5.31899 10.6442 5.30815C9.21966 4.90732 8.08758 3.77524 7.68675 2.35065C7.62716 2.13399 7.75175 1.9119 7.96842 1.8469C8.18508 1.78732 8.40717 1.9119 8.46675 2.12857C8.79175 3.28232 9.70716 4.19774 10.8609 4.52274C11.0776 4.58232 11.2022 4.80982 11.1426 5.02649C11.0938 5.21065 10.9313 5.3244 10.7526 5.3244Z" fill="#002399"/>
</svg>
