<svg width="34" height="34" viewBox="0 0 34 34" fill="none" xmlns="http://www.w3.org/2000/svg">
<circle cx="17" cy="17" r="17" fill="#00D19D"/>
<path d="M23.0378 25.9977C21.9877 25.9977 20.9353 25.5934 20.1363 24.7824L15.4881 20.078C14.7131 19.2936 14.2852 18.2507 14.2852 17.1414C14.2852 16.0322 14.7109 14.9892 15.4881 14.2048L20.1363 9.5004C21.7366 7.88072 24.339 7.88072 25.9393 9.5004C27.5397 11.1201 27.5397 13.754 25.9393 15.3737L24.1927 17.1414L25.9393 18.9113C26.7144 19.6958 27.1423 20.7387 27.1423 21.848C27.1423 22.9572 26.7166 24.0002 25.9393 24.7846C25.1403 25.5934 24.0879 25.9999 23.0378 25.9999V25.9977ZM23.0378 10.2406C22.4832 10.2406 21.9265 10.455 21.503 10.8837L16.8548 15.588C16.4444 16.0034 16.2195 16.5536 16.2195 17.1414C16.2195 17.7292 16.4444 18.2794 16.8548 18.6948L21.503 23.3992C22.3501 24.2543 23.7255 24.2543 24.5726 23.3992C24.9831 22.9837 25.2079 22.4335 25.2079 21.8458C25.2079 21.258 24.9831 20.7078 24.5726 20.2924L21.4571 17.1392L24.5726 13.986C25.4197 13.1287 25.4197 11.7366 24.5726 10.8792C24.1491 10.4506 23.5945 10.2362 23.0378 10.2362V10.2406Z" fill="#002399"/>
<path d="M11.5322 25.9999C10.4363 25.9999 9.40576 25.5669 8.63071 24.7826C7.85565 23.9983 7.42773 22.9555 7.42773 21.8464C7.42773 20.7373 7.85347 19.6945 8.63071 18.9102L10.3795 17.1428L8.63071 15.3753C7.03039 13.7559 7.03039 11.1224 8.63071 9.50298C9.40576 8.71867 10.4363 8.28564 11.5322 8.28564C12.6282 8.28564 13.6587 8.71646 14.4338 9.50298L19.0819 14.2066C19.857 14.9909 20.2849 16.0337 20.2849 17.1428C20.2849 18.2519 19.8591 19.2947 19.0819 20.079L14.4338 24.7826C13.6587 25.5669 12.6282 25.9999 11.5322 25.9999ZM11.5322 10.2409C10.9537 10.2409 10.4079 10.4684 9.99742 10.8838C9.15032 11.7388 9.15032 13.1329 9.99742 13.9901L13.1129 17.1428L9.99742 20.2955C9.58697 20.7108 9.36209 21.2609 9.36209 21.8486C9.36209 22.4363 9.58697 22.9864 9.99742 23.4018C10.4079 23.8171 10.9515 24.0447 11.5322 24.0447C12.113 24.0447 12.6566 23.8171 13.0671 23.4018L17.7152 18.6981C18.1256 18.2828 18.3505 17.7327 18.3505 17.145C18.3505 16.5573 18.1256 16.0072 17.7152 15.5918L13.0671 10.8882C12.6566 10.4729 12.113 10.2453 11.5322 10.2453V10.2409Z" fill="white"/>
</svg>
