<svg width="32" height="32" viewBox="0 0 32 32" fill="none" xmlns="http://www.w3.org/2000/svg">
<path d="M9.93829 25.2391C9.83476 25.2391 9.73123 25.2262 9.6277 25.2132C8.85118 25.1097 8.19113 24.6179 7.86758 23.919L6.23688 20.3341C3.64848 18.4186 2.16016 15.5585 2.16016 12.4524C2.16016 6.92618 6.9487 2.42236 12.8373 2.42236C16.9917 2.42236 20.7837 4.70014 22.505 8.23331C23.165 9.54045 23.5145 10.9641 23.5145 12.4524C23.5145 17.8363 18.9718 22.2495 13.3032 22.4695L11.6725 24.4367C11.2325 24.9415 10.5983 25.2391 9.93829 25.2391ZM12.8373 4.35071C8.02288 4.35071 4.10146 7.97447 4.10146 12.4395C4.10146 14.989 5.36976 17.3445 7.5699 18.8975C7.71227 19.001 7.82874 19.1304 7.89345 19.2858L9.6277 23.1037C9.69241 23.246 9.82182 23.2849 9.88653 23.2849C9.95124 23.2978 10.0807 23.2848 10.1713 23.1813L12.0867 20.8777C12.2679 20.6577 12.5396 20.5282 12.8373 20.5282C17.6517 20.5282 21.5732 16.9045 21.5732 12.4395C21.5732 11.2617 21.3014 10.1357 20.7708 9.08745C19.373 6.20138 16.254 4.35071 12.8373 4.35071Z" fill="#00D19D"/>
<path d="M22.2084 30.2351C21.5354 30.2351 20.9142 29.9374 20.4741 29.4197L18.8435 27.4655C15.7115 27.336 12.7607 25.8995 10.8712 23.5699C10.5735 23.2075 10.5865 22.6899 10.8841 22.3405L12.0877 20.891C12.2689 20.671 12.5407 20.5415 12.8384 20.5415C17.6528 20.5415 21.5742 16.9178 21.5742 12.4528C21.5742 11.275 21.3024 10.1491 20.7718 9.10075C20.6036 8.76426 20.6424 8.36307 20.8754 8.06541C21.1083 7.76774 21.4966 7.6383 21.8589 7.71595C26.6475 8.81602 29.9865 12.8151 29.9865 17.4484C29.9865 20.5544 28.4982 23.4147 25.9098 25.3301L24.2791 28.915C23.9426 29.6397 23.2826 30.1315 22.4931 30.2221C22.4025 30.2351 22.299 30.2351 22.2084 30.2351ZM12.916 22.9228C14.5338 24.5664 16.8633 25.5242 19.3094 25.5242C19.5941 25.5242 19.8659 25.6536 20.06 25.8736L21.9754 28.1773C22.066 28.2937 22.1825 28.3067 22.2601 28.2938C22.3119 28.2938 22.4543 28.2549 22.5319 28.0996L24.2662 24.2818C24.3438 24.1265 24.4473 23.984 24.5897 23.8935C26.7898 22.3404 28.0582 19.985 28.0582 17.4354C28.0582 14.3293 26.1557 11.5727 23.2567 10.2138C23.4379 10.9386 23.5285 11.6762 23.5285 12.4398C23.5285 17.8237 18.9858 22.2369 13.3172 22.4569L12.916 22.9228Z" fill="#00D19D"/>
<path d="M16.0725 13.4105H9.60151C9.07089 13.4105 8.63086 12.9705 8.63086 12.4399C8.63086 11.9093 9.07089 11.4692 9.60151 11.4692H16.0725C16.6031 11.4692 17.0432 11.9093 17.0432 12.4399C17.0432 12.9705 16.6031 13.4105 16.0725 13.4105Z" fill="#00D19D"/>
</svg>
