<svg width="22" height="22" viewBox="0 0 22 22" fill="none" xmlns="http://www.w3.org/2000/svg">
<path d="M4.76622 9.58838C4.59206 9.58838 4.40872 9.51505 4.28039 9.38672C4.08789 9.18505 4.02373 8.89172 4.13373 8.63505L5.83872 4.56505C5.87539 4.48255 5.89372 4.42755 5.92122 4.38172C7.27789 1.25588 9.01039 0.49505 12.0721 1.66838C12.2462 1.73255 12.3837 1.87005 12.4571 2.04422C12.5304 2.21838 12.5304 2.41088 12.4571 2.58505L9.77122 8.81838C9.66122 9.07505 9.41373 9.23088 9.13873 9.23088H6.52622C6.00372 9.23088 5.50872 9.33172 5.03206 9.53338C4.94956 9.57005 4.85789 9.58838 4.76622 9.58838ZM9.72539 2.52088C8.58872 2.52088 7.89206 3.26338 7.16789 4.95005C7.15873 4.97755 7.14039 5.00505 7.13123 5.03255L5.93039 7.88338C6.13206 7.86505 6.32456 7.85588 6.52622 7.85588H8.68039L10.8896 2.72255C10.4587 2.58505 10.0737 2.52088 9.72539 2.52088Z" fill="#002399"/>
<path d="M16.7649 9.41438C16.7007 9.41438 16.6274 9.40522 16.5632 9.38688C16.2149 9.28605 15.8482 9.23105 15.4632 9.23105H9.13824C8.90907 9.23105 8.68907 9.11188 8.56074 8.91938C8.44157 8.72688 8.41407 8.47939 8.50574 8.26855L11.1641 2.09938C11.3016 1.76938 11.7049 1.54022 12.0441 1.65938C12.1541 1.69605 12.2549 1.74188 12.3649 1.78772L14.5282 2.69522C15.7932 3.21772 16.6366 3.76772 17.1866 4.42772C17.2966 4.55605 17.3882 4.69355 17.4799 4.84022C17.5807 4.99605 17.6724 5.17938 17.7366 5.37189C17.7641 5.43605 17.8099 5.55522 17.8374 5.68355C18.0941 6.55438 17.9657 7.61772 17.4157 8.99272C17.2966 9.24938 17.0399 9.41438 16.7649 9.41438ZM10.1832 7.85605H15.4724C15.7657 7.85605 16.0499 7.88355 16.3341 7.92938C16.5907 7.13188 16.6457 6.51772 16.4991 6.02272C16.4807 5.94022 16.4624 5.90355 16.4532 5.86689C16.3982 5.72022 16.3616 5.63772 16.3157 5.56438C16.2516 5.46355 16.2057 5.38105 16.1324 5.29855C15.7382 4.82189 15.0416 4.38188 13.9966 3.95105L12.1907 3.19938L10.1832 7.85605Z" fill="#002399"/>
<path d="M14.575 20.8543H7.425C7.16833 20.8543 6.93 20.836 6.69167 20.8085C3.47417 20.5976 1.64083 18.7551 1.42083 15.501C1.39333 15.2993 1.375 15.0518 1.375 14.8043V13.0168C1.375 10.9543 2.60333 9.09346 4.50083 8.26846C5.15167 7.99346 5.83 7.85596 6.53583 7.85596H15.4825C16.005 7.85596 16.5092 7.92929 16.9767 8.07596C19.1308 8.72679 20.6433 10.7618 20.6433 13.0168V14.8043C20.6433 15.006 20.6342 15.1985 20.625 15.3818C20.4233 18.966 18.3333 20.8543 14.575 20.8543ZM6.52667 9.23096C6.00417 9.23096 5.50917 9.33179 5.0325 9.53346C3.63917 10.1385 2.74083 11.5043 2.74083 13.0168V14.8043C2.74083 14.9968 2.75917 15.1893 2.7775 15.3726C2.95167 17.9851 4.235 19.2685 6.81083 19.4426C7.04 19.4701 7.22333 19.4885 7.41583 19.4885H14.5658C17.5908 19.4885 19.0758 18.1593 19.2225 15.3176C19.2317 15.1526 19.2408 14.9876 19.2408 14.8043V13.0168C19.2408 11.3576 18.1317 9.87262 16.555 9.38679C16.2067 9.28596 15.84 9.23096 15.455 9.23096H6.52667Z" fill="#002399"/>
<path d="M2.05273 13.704C1.6769 13.704 1.36523 13.3923 1.36523 13.0165V10.3307C1.36523 7.44315 3.4094 4.94982 6.23273 4.39982C6.48023 4.35398 6.7369 4.44565 6.9019 4.63815C7.05773 4.83065 7.10357 5.10565 7.00273 5.33482L5.39857 9.16648C5.32523 9.33148 5.1969 9.45982 5.04107 9.53315C3.64773 10.1382 2.7494 11.504 2.7494 13.0165C2.74023 13.3923 2.43773 13.704 2.05273 13.704ZM5.13273 6.25148C3.9594 6.91148 3.1069 8.06648 2.84107 9.41398C3.2444 9.00148 3.7119 8.65315 4.24357 8.39648L5.13273 6.25148Z" fill="#002399"/>
<path d="M19.947 13.704C19.5712 13.704 19.2595 13.3923 19.2595 13.0165C19.2595 11.3573 18.1504 9.8723 16.5737 9.38646C16.3904 9.33146 16.2345 9.20313 16.152 9.02896C16.0695 8.8548 16.0604 8.65313 16.1337 8.47896C16.5645 7.40646 16.6745 6.6273 16.5004 6.0223C16.482 5.9398 16.4637 5.90313 16.4545 5.86646C16.3354 5.60063 16.3995 5.28896 16.6104 5.0873C16.8212 4.88563 17.142 4.8398 17.3987 4.9773C19.397 6.0223 20.6345 8.07563 20.6345 10.3306V13.0165C20.6345 13.3923 20.3229 13.704 19.947 13.704ZM17.6462 8.3323C18.2237 8.59813 18.737 8.97396 19.1679 9.42313C18.9937 8.5248 18.5629 7.70896 17.9304 7.0673C17.8845 7.4523 17.7929 7.87396 17.6462 8.3323Z" fill="#002399"/>
</svg>
