<svg width="51" height="34" viewBox="0 0 51 34" fill="none" xmlns="http://www.w3.org/2000/svg">
<rect x="0.75" y="0.25" width="49.5" height="33.75" rx="14.25" fill="white"/>
<path d="M23.3309 25C22.3079 25 21.3462 24.615 20.6228 23.9177C19.8994 23.2203 19.5 22.2932 19.5 21.3071C19.5 20.321 19.8974 19.3938 20.6228 18.6965L22.255 17.125L20.6228 15.5535C19.1291 14.1137 19.1291 11.7702 20.6228 10.3323C21.3462 9.63304 22.3059 9.25 23.3309 9.25C24.3558 9.25 25.3156 9.63304 26.039 10.3323L30.3772 14.5144C31.1006 15.2117 31.5 16.1389 31.5 17.125C31.5 18.1111 31.1026 19.0383 30.3772 19.7356L26.039 23.9177C25.3156 24.615 24.3538 25 23.3309 25ZM23.3309 10.9884C22.7909 10.9884 22.2815 11.1908 21.8984 11.5601C21.1077 12.3202 21.1077 13.5597 21.8984 14.3219L24.8062 17.125L21.8984 19.9281C21.5153 20.2974 21.3054 20.7865 21.3054 21.309C21.3054 21.8315 21.5153 22.3207 21.8984 22.6899C22.2815 23.0592 22.7888 23.2616 23.3309 23.2616C23.8729 23.2616 24.3803 23.0592 24.7634 22.6899L29.1016 18.5079C29.4847 18.1386 29.6946 17.6495 29.6946 17.127C29.6946 16.6045 29.4847 16.1153 29.1016 15.746L24.7613 11.562C24.3782 11.1927 23.8709 10.9904 23.3288 10.9904L23.3309 10.9884Z" fill="#0029B5"/>
</svg>
