<svg xmlns="http://www.w3.org/2000/svg" xmlns:xlink="http://www.w3.org/1999/xlink" width="16.637" height="16.64" viewBox="0 0 16.637 16.64">
  <defs>
    <clipPath id="clip-path">
      <rect id="Retângulo_2864" data-name="Retângulo 2864" width="16.637" height="16.64" fill="#fff"/>
    </clipPath>
  </defs>
  <g id="Grupo_3182" data-name="Grupo 3182" clip-path="url(#clip-path)">
    <path id="Caminho_1608" data-name="Caminho 1608" d="M138.478,139.889H129.12c-.064-.021-.128-.044-.193-.062a1.654,1.654,0,0,1-1.225-1.561c-.008-.433,0-.866,0-1.3,0-.131,0-.262,0-.406h.224q2.893,0,5.786,0a3.175,3.175,0,0,0,.619-.053,2.758,2.758,0,0,0,2.242-2.739q0-2.937,0-5.874v-.2c.615,0,1.2-.019,1.791.005a1.634,1.634,0,0,1,1.471,1.2c.02.071.043.14.065.21v9.36c-.013.037-.028.073-.037.11a1.664,1.664,0,0,1-1.124,1.233c-.085.03-.173.052-.26.078" transform="translate(-123.262 -123.249)" fill="#fff"/>
    <path id="Caminho_1609" data-name="Caminho 1609" d="M12.2,6.1q0,2.166,0,4.333A1.663,1.663,0,0,1,10.432,12.2H1.768A1.665,1.665,0,0,1,0,10.433Q0,6.1,0,1.767A1.664,1.664,0,0,1,1.769,0h8.664A1.663,1.663,0,0,1,12.2,1.768q0,2.166,0,4.333" transform="translate(0 0.001)" fill="#fff"/>
  </g>
</svg>
