<svg xmlns="http://www.w3.org/2000/svg" width="7.003" height="10.8" viewBox="0 0 7.003 10.8">
  <path id="Caminho_1368" data-name="Caminho 1368" d="M916.616,466.836a1.208,1.208,0,0,0-.373-.713c-.014-.013-.03-.025-.045-.038l-4.315-4.1a1.37,1.37,0,0,0-1.869,0q-.031.029-.06.06a1.213,1.213,0,0,0,.057,1.714l3.426,3.258-3.423,3.255q-.032.03-.062.062a1.214,1.214,0,0,0,.062,1.715,1.37,1.37,0,0,0,1.869,0l4.308-4.1c.016-.014.033-.027.049-.041s.046-.044.067-.067A1.21,1.21,0,0,0,916.616,466.836Z" transform="translate(-909.627 -461.615)" fill="#b7bec3"/>
</svg>
