<svg xmlns="http://www.w3.org/2000/svg" width="35" height="35" viewBox="0 0 35 35">
  <g id="Grupo_3189" data-name="Grupo 3189" transform="translate(-19 -23)">
    <rect id="Retângulo_1579" data-name="Retângulo 1579" width="35" height="35" rx="17.5" transform="translate(19 23)" fill="#d2d5d8"/>
    <path id="user" d="M12.394,12.307a2.806,2.806,0,0,1-.605,1.811,1.814,1.814,0,0,1-1.457.755H2.062a1.813,1.813,0,0,1-1.457-.755A2.809,2.809,0,0,1,0,12.307a13.931,13.931,0,0,1,.082-1.554,8.347,8.347,0,0,1,.3-1.472A4.9,4.9,0,0,1,.954,8.012a2.713,2.713,0,0,1,.91-.862,2.512,2.512,0,0,1,1.3-.334A4.185,4.185,0,0,0,6.2,8.056,4.185,4.185,0,0,0,9.228,6.817a2.514,2.514,0,0,1,1.3.334,2.713,2.713,0,0,1,.91.862,4.9,4.9,0,0,1,.566,1.268,8.347,8.347,0,0,1,.3,1.472,13.93,13.93,0,0,1,.082,1.554ZM9.915,3.718A3.581,3.581,0,0,1,8.826,6.347,3.584,3.584,0,0,1,6.2,7.437,3.58,3.58,0,0,1,3.568,6.347,3.583,3.583,0,0,1,2.479,3.718,3.583,3.583,0,0,1,3.568,1.089,3.58,3.58,0,0,1,6.2,0,3.584,3.584,0,0,1,8.826,1.089,3.581,3.581,0,0,1,9.915,3.718Z" transform="translate(30.303 33.063)" fill="#8b98a3" opacity="0.9"/>
  </g>
</svg>
