<svg width="83" height="83" viewBox="0 0 83 83" fill="none" xmlns="http://www.w3.org/2000/svg">
<g filter="url(#filter0_d_432_19855)">
<circle cx="41.3536" cy="37.3536" r="37.3536" fill="#00D19D"/>
<path d="M54.6216 57.124C52.3141 57.124 50.0019 56.2355 48.2461 54.4537L38.0329 44.1169C36.3299 42.3933 35.3896 40.1016 35.3896 37.6643C35.3896 35.227 36.3251 32.9353 38.0329 31.2117L48.2461 20.875C51.7624 17.3161 57.4807 17.3161 60.997 20.875C64.5134 24.4338 64.5134 30.2213 60.997 33.7801L57.1593 37.6643L60.997 41.5533C62.7 43.2769 63.6403 45.5686 63.6403 48.0059C63.6403 50.4432 62.7048 52.7349 60.997 54.4585C59.2413 56.2355 56.929 57.1289 54.6216 57.1289V57.124ZM54.6216 22.5015C53.4031 22.5015 52.1798 22.9724 51.2491 23.9143L41.0359 34.2511C40.1341 35.1639 39.6399 36.3728 39.6399 37.6643C39.6399 38.9558 40.1341 40.1648 41.0359 41.0775L51.2491 51.4143C53.1105 53.2933 56.1327 53.2933 57.994 51.4143C58.8959 50.5015 59.39 49.2926 59.39 48.0011C59.39 46.7096 58.8959 45.5006 57.994 44.5879L51.1484 37.6595L57.994 30.7311C59.8553 28.8472 59.8553 25.7884 57.994 23.9046C57.0633 22.9627 55.8448 22.4918 54.6216 22.4918V22.5015Z" fill="#002399"/>
<path d="M29.341 57.1289C26.9328 57.1289 24.6685 56.1774 22.9655 54.4541C21.2625 52.7307 20.3223 50.4394 20.3223 48.0025C20.3223 45.5656 21.2577 43.2743 22.9655 41.5509L26.8081 37.6673L22.9655 33.7838C19.4492 30.2255 19.4492 24.4389 22.9655 20.8806C24.6685 19.1573 26.9328 18.2058 29.341 18.2058C31.7492 18.2058 34.0134 19.1524 35.7164 20.8806L45.9296 31.2158C47.6326 32.9391 48.5729 35.2304 48.5729 37.6673C48.5729 40.1043 47.6374 42.3956 45.9296 44.1189L35.7164 54.4541C34.0134 56.1774 31.7492 57.1289 29.341 57.1289ZM29.341 22.502C28.0697 22.502 26.8704 23.002 25.9686 23.9147C24.1073 25.7933 24.1073 28.8565 25.9686 30.74L32.8141 37.6673L25.9686 44.5947C25.0667 45.5073 24.5726 46.7161 24.5726 48.0074C24.5726 49.2986 25.0667 50.5074 25.9686 51.42C26.8704 52.3327 28.0649 52.8327 29.341 52.8327C30.617 52.8327 31.8115 52.3327 32.7134 51.42L42.9266 41.0849C43.8285 40.1723 44.3226 38.9635 44.3226 37.6722C44.3226 36.3809 43.8285 35.1722 42.9266 34.2595L32.7134 23.9244C31.8115 23.0117 30.617 22.5117 29.341 22.5117V22.502Z" fill="white"/>
</g>
<defs>
<filter id="filter0_d_432_19855" x="0" y="0" width="82.707" height="82.7072" filterUnits="userSpaceOnUse" color-interpolation-filters="sRGB">
<feFlood flood-opacity="0" result="BackgroundImageFix"/>
<feColorMatrix in="SourceAlpha" type="matrix" values="0 0 0 0 0 0 0 0 0 0 0 0 0 0 0 0 0 0 127 0" result="hardAlpha"/>
<feOffset dy="4"/>
<feGaussianBlur stdDeviation="2"/>
<feComposite in2="hardAlpha" operator="out"/>
<feColorMatrix type="matrix" values="0 0 0 0 0 0 0 0 0 0 0 0 0 0 0 0 0 0 0.15 0"/>
<feBlend mode="normal" in2="BackgroundImageFix" result="effect1_dropShadow_432_19855"/>
<feBlend mode="normal" in="SourceGraphic" in2="effect1_dropShadow_432_19855" result="shape"/>
</filter>
</defs>
</svg>
