<svg width="24" height="25" viewBox="0 0 24 25" fill="none" xmlns="http://www.w3.org/2000/svg">
<path d="M9 22.75H7C2.59 22.75 1.25 21.41 1.25 17V7C1.25 2.59 2.59 1.25 7 1.25H8.5C10.25 1.25 10.8 1.82 11.5 2.75L13 4.75C13.33 5.19 13.38 5.25 14 5.25H17C21.41 5.25 22.75 6.59 22.75 11V13C22.75 13.41 22.41 13.75 22 13.75C21.59 13.75 21.25 13.41 21.25 13V11C21.25 7.43 20.58 6.75 17 6.75H14C12.72 6.75 12.3 6.30999 11.8 5.64999L10.3 3.64999C9.77999 2.95999 9.62 2.75 8.5 2.75H7C3.42 2.75 2.75 3.43 2.75 7V17C2.75 20.57 3.42 21.25 7 21.25H9C9.41 21.25 9.75 21.59 9.75 22C9.75 22.41 9.41 22.75 9 22.75Z" fill="#ffffff"/>
<path d="M11.0173 23.5503C11.0173 23.8863 11.2203 24.0613 11.5283 24.0613C11.8363 24.0613 12.0393 23.8863 12.0393 23.5503V22.1853H12.0533C12.2423 22.5143 12.5923 22.7033 13.0613 22.7033C14.1393 22.7033 14.6363 21.7863 14.6363 20.8063C14.6363 19.4833 13.8873 18.8603 13.0333 18.8603C12.5363 18.8603 12.1233 19.0703 11.9553 19.5043H11.9413V19.3433C11.9413 19.0283 11.7803 18.8603 11.4793 18.8603C11.1643 18.8603 11.0173 19.0283 11.0173 19.3433V23.5503ZM13.6143 20.7713C13.6143 21.2473 13.4533 21.9053 12.8023 21.9053C12.1793 21.9123 11.9833 21.2963 11.9833 20.7713C11.9833 20.1903 12.2073 19.6583 12.8023 19.6583C13.3483 19.6723 13.6143 20.1693 13.6143 20.7713ZM18.2016 17.9923C18.2016 17.6563 17.9986 17.4813 17.6906 17.4813C17.3826 17.4813 17.1796 17.6563 17.1796 17.9923V19.3783H17.1656C16.9626 19.0493 16.6126 18.8603 16.1576 18.8603C15.0796 18.8603 14.5826 19.7773 14.5826 20.7573C14.5826 22.0803 15.3316 22.7033 16.1856 22.7033C16.6826 22.7033 17.0956 22.4933 17.2636 22.0593H17.2776V22.2203C17.2776 22.5353 17.4386 22.7033 17.7396 22.7033C18.0546 22.7033 18.2016 22.5353 18.2016 22.2203V17.9923ZM15.6046 20.7923C15.6046 20.3163 15.7656 19.6583 16.4166 19.6583C17.0396 19.6513 17.2356 20.2673 17.2356 20.7923C17.2356 21.3733 17.0116 21.9053 16.4166 21.9053C15.8706 21.8913 15.6046 21.3943 15.6046 20.7923ZM18.7779 22.1923C18.7779 22.5283 18.9809 22.7033 19.2889 22.7033C19.5969 22.7033 19.7999 22.5283 19.7999 22.1923V19.6233H20.1149C20.4159 19.6233 20.5769 19.5323 20.5769 19.2873C20.5769 19.0423 20.4159 18.9513 20.1149 18.9513H19.7999V18.5103C19.7999 18.3703 19.8769 18.2723 20.0239 18.2723C20.1009 18.2723 20.1709 18.2933 20.2479 18.2933C20.4299 18.2933 20.5769 18.1323 20.5769 17.9433C20.5769 17.6003 20.2759 17.4533 19.9049 17.4533C19.3099 17.4533 18.7779 17.7963 18.7779 18.4403V18.9513H18.5469C18.2599 18.9513 18.1409 19.0633 18.1409 19.2873C18.1409 19.5113 18.2599 19.6233 18.5469 19.6233H18.7779V22.1923Z" fill="#ffffff"/>
</svg>
