<svg id="Grupo_3134" data-name="Grupo 3134" xmlns="http://www.w3.org/2000/svg" xmlns:xlink="http://www.w3.org/1999/xlink" width="18.081" height="20.324" viewBox="0 0 18.081 20.324">
  <defs>
    <clipPath id="clip-path">
      <rect id="Retângulo_2807" data-name="Retângulo 2807" width="18.081" height="20.324" fill="#fff"/>
    </clipPath>
  </defs>
  <g id="Grupo_3133" data-name="Grupo 3133" clip-path="url(#clip-path)">
    <path id="Caminho_1550" data-name="Caminho 1550" d="M8.884,0H9.2a.833.833,0,0,1,.563.913c-.021.595-.006,1.19,0,1.786,0,.055.008.11.013.188.075-.053.129-.089.181-.128.512-.384,1.021-.774,1.538-1.152a.72.72,0,0,1,1.136.366.738.738,0,0,1-.316.83q-1.2.905-2.409,1.806a.325.325,0,0,0-.146.3c.005,1.257,0,2.514,0,3.77,0,.056.006.112.01.185.05-.023.08-.034.106-.05Q11.546,7.8,13.213,6.795a.3.3,0,0,0,.115-.2c.095-.854.178-1.709.271-2.564a3.516,3.516,0,0,1,.125-.758.689.689,0,0,1,.833-.4.74.74,0,0,1,.534.821c-.073.689-.144,1.378-.219,2.1.082-.045.139-.074.194-.107.543-.326,1.085-.655,1.629-.979a.727.727,0,1,1,.749,1.242c-.422.258-.848.51-1.272.766-.174.1-.346.211-.54.33.085.038.142.066.2.091.592.242,1.186.479,1.775.727a.718.718,0,0,1,.416.929.727.727,0,0,1-1,.4c-.941-.381-1.879-.768-2.822-1.143a.344.344,0,0,0-.266.021c-1.123.668-2.24,1.344-3.359,2.019a1.41,1.41,0,0,0-.114.086c.072.045.126.081.182.115,1.085.654,2.171,1.306,3.253,1.965a.334.334,0,0,0,.344.026q1.4-.581,2.8-1.145a.726.726,0,1,1,.547,1.342c-.644.268-1.29.529-1.964.805.084.053.143.093.2.129.531.32,1.063.638,1.593.961a1.065,1.065,0,0,1,.247.2.724.724,0,0,1,.007.93.713.713,0,0,1-.93.155c-.557-.327-1.109-.665-1.663-1-.06-.036-.123-.069-.194-.108a.453.453,0,0,0-.009.077q.1,1.006.21,2.012a.727.727,0,0,1-.729.841.742.742,0,0,1-.725-.762q-.146-1.49-.31-2.978a.346.346,0,0,0-.147-.224c-1.082-.659-2.168-1.31-3.254-1.963-.047-.028-.1-.049-.153-.076a.443.443,0,0,0-.012.061c0,1.316,0,2.633,0,3.949a.333.333,0,0,0,.126.219c.321.253.653.494.98.74.506.381,1.015.76,1.517,1.146a.722.722,0,0,1-.222,1.246.733.733,0,0,1-.707-.133c-.5-.379-1-.755-1.5-1.131-.055-.041-.112-.078-.195-.136,0,.687-.016,1.335.005,1.981a.836.836,0,0,1-.563.913H8.884a.82.82,0,0,1-.574-.9c.02-.588.005-1.177,0-1.766,0-.063-.006-.126-.011-.214-.072.049-.12.08-.166.115-.518.388-1.032.782-1.553,1.164A.72.72,0,0,1,5.5,18.48a.728.728,0,0,1,.249-.944q1.209-.914,2.424-1.82a.325.325,0,0,0,.146-.3c0-1.25,0-2.5,0-3.751,0-.063-.007-.125-.011-.208-.076.041-.128.066-.178.1-1.057.637-2.111,1.277-3.173,1.906a.426.426,0,0,0-.23.373q-.141,1.491-.305,2.979a.721.721,0,1,1-1.434-.146c.023-.33.067-.658.1-.986.037-.371.073-.742.113-1.148-.1.055-.163.087-.223.124-.532.32-1.056.652-1.6.953a1.042,1.042,0,0,1-.56.12.663.663,0,0,1-.57-.556.7.7,0,0,1,.335-.765c.557-.341,1.119-.675,1.678-1.012.057-.034.111-.073.185-.122-.1-.042-.165-.071-.232-.1-.58-.237-1.161-.469-1.739-.711a.725.725,0,1,1,.568-1.332q1.4.567,2.8,1.142a.3.3,0,0,0,.308-.015c1.1-.668,2.2-1.33,3.305-1.994.049-.03.1-.064.159-.106-.045-.032-.074-.056-.106-.075-1.131-.681-2.26-1.362-3.395-2.036a.322.322,0,0,0-.249-.008c-.948.38-1.892.77-2.84,1.152A.725.725,0,1,1,.488,7.85c.188-.079.378-.154.568-.231l1.391-.57c-.084-.054-.142-.095-.2-.132C1.712,6.6,1.179,6.279.651,5.955A1.05,1.05,0,0,1,.379,5.73a.717.717,0,0,1,.03-.913.7.7,0,0,1,.916-.142c.557.328,1.109.665,1.663,1,.058.035.118.066.205.114-.013-.153-.02-.264-.031-.375-.06-.585-.129-1.17-.177-1.756a.72.72,0,1,1,1.432-.148q.165,1.478.3,2.959a.46.46,0,0,0,.248.4C6.026,7.5,7.075,8.134,8.126,8.767c.052.031.108.056.171.088a.555.555,0,0,0,.016-.082c0-1.31,0-2.62,0-3.929a.329.329,0,0,0-.127-.219c-.8-.612-1.614-1.216-2.42-1.825a.728.728,0,1,1,.869-1.16c.514.383,1.025.769,1.537,1.153.038.028.082.049.146.086,0-.68.015-1.327-.005-1.974A.821.821,0,0,1,8.884,0" transform="translate(-0.001)" fill="#fff"/>
  </g>
</svg>
