<svg width="33" height="47" viewBox="0 0 33 47" fill="none" xmlns="http://www.w3.org/2000/svg">
<g clip-path="url(#clip0_1431_4708)">
<path d="M11.8281 47C11.458 46.7393 11.3579 46.3843 11.3615 45.9364C11.3799 43.535 11.3701 41.1348 11.3701 38.7334V38.1875C10.3612 38.1875 9.38896 38.1961 8.41794 38.1851C6.2194 38.1606 4.29447 37.414 2.69076 35.906C0.9588 34.2794 0.0280873 32.2562 0.0195374 29.878C-0.00611216 22.691 -0.00733357 15.5027 0.0170946 8.31557C0.0305301 4.1688 3.161 0.654818 7.26981 0.0832292C7.35653 0.0709896 7.43837 0.028151 7.52143 0C13.5075 0 19.4924 0 25.4786 0C26.0661 0.146875 26.6646 0.257031 27.2374 0.446745C30.6512 1.58013 32.9756 4.7563 32.9853 8.36086C33.0037 15.5173 33.0098 22.6751 32.9841 29.8315C32.9682 34.4336 29.2307 38.1398 24.6297 38.1851C23.6538 38.1948 22.6779 38.1863 21.6311 38.1863V38.6869C21.6311 41.103 21.6214 43.5191 21.6397 45.9352C21.6433 46.3843 21.542 46.7381 21.1731 47H11.8281ZM21.6507 36.7163C22.6999 36.7163 23.7051 36.7285 24.7103 36.7139C28.4234 36.6612 31.5038 33.5989 31.5172 29.8719C31.5429 22.6824 31.5429 15.4929 31.5172 8.30456C31.5038 4.58005 28.4148 1.49568 24.7005 1.47854C19.2359 1.45284 13.7701 1.45284 8.30435 1.47854C4.59127 1.4969 1.49866 4.58617 1.48523 8.30456C1.45958 15.4941 1.46202 22.6836 1.48767 29.8719C1.495 32.0102 2.40861 33.7604 4.03431 35.1472C6.1962 36.9917 8.7807 36.7591 11.3359 36.6931V32.3137C10.8742 32.3137 10.4479 32.3198 10.0216 32.3125C9.49522 32.3039 9.163 32.0004 9.17643 31.5573C9.18987 31.1302 9.50988 30.8486 10.0204 30.8474C14.3405 30.8438 18.6607 30.8438 22.982 30.8474C23.4913 30.8474 23.8126 31.1289 23.8272 31.5561C23.8419 31.9992 23.5084 32.3039 22.9832 32.3125C22.546 32.3198 22.1075 32.3137 21.6519 32.3137V36.7175L21.6507 36.7163ZM12.87 32.3321V45.4933H20.141V32.3321H12.87Z" fill="#00D19D"/>
<path d="M16.4986 24.969C13.4145 24.969 10.3305 24.969 7.24643 24.969C6.46839 24.969 6.23877 24.7389 6.23877 23.958C6.23877 18.389 6.23877 12.8212 6.23877 7.25219C6.23877 6.47253 6.46717 6.24365 7.24765 6.24365C13.4158 6.24365 19.5839 6.24365 25.7532 6.24365C26.5312 6.24365 26.7609 6.47376 26.7609 7.25342C26.7609 12.8224 26.7609 18.3902 26.7609 23.9592C26.7609 24.7377 26.53 24.969 25.752 24.969C22.6679 24.969 19.5839 24.969 16.4998 24.969H16.4986ZM7.724 23.4672H25.2573V7.73688H7.724V23.4672Z" fill="#00D19D"/>
<path d="M16.5062 44.0615C15.2946 44.064 14.2954 43.0579 14.3028 41.8425C14.3101 40.6467 15.2994 39.6614 16.494 39.6577C17.7081 39.6553 18.706 40.6589 18.6974 41.8755C18.6889 43.0701 17.6983 44.0578 16.5062 44.0603V44.0615ZM16.4928 42.5903C16.8873 42.5952 17.2256 42.2623 17.2293 41.867C17.2342 41.4716 16.9032 41.1338 16.5074 41.1289C16.1117 41.124 15.7758 41.4545 15.7709 41.8523C15.7672 42.2488 16.097 42.5867 16.4928 42.5903Z" fill="#00D19D"/>
<path d="M20.4292 17.2406C20.4646 19.3581 18.9354 21.0802 16.859 21.2833C14.8339 21.4804 12.953 20.0508 12.6024 18.0044C12.4095 16.8734 12.6708 15.7853 13.0751 14.7327C13.7127 13.0718 14.6862 11.619 15.8685 10.3032C16.2862 9.83811 16.71 9.81608 17.1253 10.2506C18.7938 11.9959 20.0323 13.9751 20.3914 16.4193C20.4048 16.5099 20.4231 16.6005 20.4268 16.6923C20.4317 16.8759 20.428 17.0595 20.428 17.2418L20.4292 17.2406ZM16.539 11.745C15.4789 13.051 14.6178 14.3925 14.2098 15.9787C14.1048 16.39 14.0388 16.8196 14.0266 17.2443C13.9838 18.7387 15.0453 19.8501 16.4865 19.855C17.9204 19.8599 19.0124 18.7412 18.9782 17.2626C18.9281 15.1121 17.8704 13.3998 16.5403 11.7463L16.539 11.745Z" fill="#00D19D"/>
</g>
<defs>
<clipPath id="clip0_1431_4708">
<rect width="33" height="47" fill="white"/>
</clipPath>
</defs>
</svg>
