<svg width="40" height="40" viewBox="0 0 40 40" fill="none" xmlns="http://www.w3.org/2000/svg">
<g clip-path="url(#clip0_1431_4716)">
<path d="M25.0813 0C25.5092 0.145833 25.9611 0.244792 26.3619 0.445833C27.486 1.01146 28.1957 1.92812 28.4441 3.16458C28.6539 4.20937 28.8616 5.25729 28.9952 6.31458C29.3072 8.78854 27.1123 10.7406 24.6742 10.1875C23.4573 9.91146 22.2434 9.62292 21.0275 9.34062C20.9159 9.31458 20.801 9.29688 20.6507 9.26771C20.4065 10.2 20.1665 11.1146 19.9285 12.0292C19.4056 14.0417 18.8848 16.0552 18.3588 18.0667C18.2095 18.6396 17.8286 18.9375 17.3025 18.9177C16.8318 18.899 16.4258 18.5635 16.3653 18.0812C16.3371 17.8583 16.3872 17.6156 16.4446 17.3927C17.2431 14.2969 18.0477 11.2031 18.8514 8.10833C18.8775 8.00833 18.8932 7.90521 18.9182 7.80417C19.0779 7.18333 19.654 6.87812 20.275 7.03333C21.9262 7.44479 23.5783 7.85521 25.2389 8.22292C26.244 8.44583 27.153 7.55521 26.9923 6.54271C26.8378 5.56667 26.6656 4.59375 26.4809 3.62292C26.2836 2.5875 25.3798 1.92708 24.3037 2.04479C23.2047 2.16458 22.1088 2.31875 21.0129 2.45937C20.1362 2.57188 19.2543 2.66042 18.3828 2.80833C16.9999 3.04167 15.8528 3.72604 15.0523 4.87292C11.08 10.5646 7.34142 16.401 4.51194 22.7625C3.62166 24.7646 2.91298 26.849 2.17821 28.9156C2.01539 29.3729 2.0227 29.9229 2.07384 30.4177C2.18447 31.4813 2.86706 32.1865 3.80639 32.55C4.76973 32.9229 5.7863 33.1656 6.79348 33.4125C8.56777 33.8469 10.2878 34.4271 11.9358 35.2135C14.4866 36.4323 17.1439 37.3083 19.9452 37.7115C24.3204 38.3406 28.5641 37.8312 32.6387 36.1156C33.8578 35.6031 35.0174 34.95 36.1978 34.3469C36.9023 33.9875 37.5963 34.2458 37.7727 34.9583C37.8834 35.4042 37.6882 35.8198 37.2217 36.0969C35.7208 36.9896 34.1563 37.75 32.5187 38.3594C30.1641 39.2344 27.7365 39.7771 25.2264 39.9396C25.1251 39.9458 25.026 39.9813 24.9247 40.0031H22.1119C21.9982 39.9823 21.8855 39.949 21.7706 39.9417C18.198 39.7115 14.8039 38.7896 11.5716 37.2708C9.63444 36.3604 7.63888 35.6344 5.53477 35.2188C4.44618 35.0042 3.38474 34.7052 2.42453 34.125C1.33699 33.4688 0.544814 32.574 0.18578 31.3344C0.117939 31.0979 0.0615786 30.8604 0 30.625C0 30.1823 0 29.7396 0 29.2969C0.0699282 28.9823 0.108545 28.6573 0.215003 28.3552C0.773385 26.7771 1.28689 25.1792 1.92772 23.6344C4.91898 16.4229 9.07084 9.87292 13.5442 3.51771C14.4939 2.16875 15.8612 1.28542 17.48 0.948958C18.914 0.65 20.3836 0.519792 21.8364 0.3125C22.5534 0.210417 23.2704 0.104167 23.9875 0C24.3517 0 24.717 0 25.0813 0Z" fill="#00D19D"/>
<path d="M32.05 21.2748C33.2263 20.3384 34.5841 19.5696 36.1184 19.1978C37.0086 18.9821 37.9344 18.8894 38.8497 18.8051C39.5083 18.7446 39.9707 19.1738 39.9989 19.7561C40.027 20.3384 39.597 20.7884 38.9405 20.8092C36.5348 20.8863 34.4651 21.7488 32.7232 23.4103C32.2984 23.8144 31.7452 23.778 31.2505 23.3634C29.7622 22.1144 28.085 21.2238 26.1854 20.7957C23.4227 20.1728 20.9888 20.8936 18.8377 22.6811C17.3578 23.9113 16.2326 25.4342 15.2463 27.0696C14.9165 27.6165 14.5189 27.8061 14.0263 27.6707C13.4167 27.503 13.0619 26.828 13.3771 26.2832C15.0689 23.3655 17.1334 20.7957 20.3156 19.3915C23.3037 18.0728 26.2825 18.3425 29.1871 19.6915C30.1609 20.1436 31.072 20.7301 32.05 21.2759V21.2748Z" fill="#00D19D"/>
<path d="M26.3795 34.7039C24.9037 34.6466 23.479 34.3789 22.0898 33.905C21.4699 33.6935 21.1703 33.1727 21.3425 32.6039C21.5085 32.0539 22.0815 31.7706 22.7004 31.9748C24.1355 32.4477 25.5946 32.7154 27.1121 32.5904C29.2851 32.4112 31.1544 31.5831 32.6761 30.005C33.0362 29.631 33.4558 29.5373 33.8764 29.731C34.2824 29.9185 34.5454 30.3456 34.441 30.781C34.3805 31.0321 34.2323 31.2904 34.0528 31.4789C32.5394 33.0591 30.6827 34.0258 28.5452 34.4394C27.8333 34.5769 27.1028 34.6175 26.3805 34.7029L26.3795 34.7039Z" fill="#00D19D"/>
</g>
<defs>
<clipPath id="clip0_1431_4716">
<rect width="40" height="40" fill="white"/>
</clipPath>
</defs>
</svg>
