<svg width="35" height="43" viewBox="0 0 35 43" fill="none" xmlns="http://www.w3.org/2000/svg">
<g clip-path="url(#clip0_1431_4858)">
<path d="M18.8746 43.0002C17.6275 42.6874 16.9055 41.9252 16.8011 40.7211C15.9984 40.4933 15.2194 40.3169 14.4747 40.0492C13.6796 39.7637 13.0372 39.243 12.554 38.5553C11.9568 37.705 11.2574 36.8998 10.8109 35.9791C9.84997 33.9981 10.0716 32.0948 11.5652 30.3931C11.5921 30.3627 11.6082 30.3249 11.6566 30.244C9.87149 30.0047 8.34245 29.3548 7.34282 27.777C6.81772 28.4541 6.19362 28.9486 5.40812 29.2236C2.8999 30.1013 0.273311 28.4499 0.0494967 25.8537C0.0215199 25.5336 0.00645553 25.2113 0.00645553 24.89C0.00322744 21.3343 0.00322744 17.7797 0.00645553 14.224C0.00645553 14.0298 -0.0290534 13.7862 0.0731693 13.6529C0.216281 13.464 0.47668 13.2382 0.677898 13.2456C0.878039 13.2529 1.11046 13.5017 1.24819 13.6981C1.3375 13.8261 1.29339 14.0508 1.29339 14.2324C1.29554 17.8994 1.29769 21.5674 1.29339 25.2344C1.29339 26.0942 1.49245 26.8763 2.1682 27.4725C3.02364 28.2284 4.01682 28.4226 5.07563 27.989C6.16995 27.5408 6.73487 26.6799 6.75423 25.5231C6.78006 23.9977 6.76069 22.4713 6.76177 20.9459C6.76177 20.8199 6.75423 20.6929 6.7693 20.568C6.81234 20.1963 7.06736 19.9654 7.41707 19.9696C7.76463 19.9738 8.0261 20.211 8.04332 20.5848C8.06269 21.0036 8.04762 21.4236 8.04762 21.9632C8.22086 21.7784 8.32093 21.6577 8.43607 21.5527C8.92674 21.1055 9.40449 20.6425 9.91991 20.2236C10.3568 19.8688 10.7646 19.8898 11.0153 20.211C11.2714 20.5407 11.167 20.8892 10.6936 21.2252C9.64122 21.9737 8.79223 22.8943 8.32846 24.0922C7.46979 26.3073 8.59102 28.3481 11.011 28.8362C13.1426 29.2656 15.1677 28.9024 16.9679 27.6384C17.7932 27.0589 18.2903 26.259 18.5195 25.2963C18.5454 25.1871 18.5637 25.0769 18.6002 24.9709C18.7229 24.6108 19.007 24.4344 19.3535 24.5152C19.7193 24.6003 19.8753 24.8554 19.8334 25.2039C19.7451 25.9514 19.4966 26.6505 19.05 27.2657C18.7627 27.6615 18.4335 28.0279 18.1279 28.4027C23.3735 29.5323 26.9104 26.1183 26.9492 22.0776C26.9642 20.5239 26.9588 18.9702 26.9492 17.4165C26.9416 16.3541 26.7608 15.3274 26.1819 14.4025C25.6687 13.5826 24.9251 13.2204 23.9395 13.3212C23.465 13.3695 23.0959 13.5605 22.8301 13.9469C22.7742 14.0277 22.715 14.1075 22.6483 14.181C22.4029 14.4508 22.107 14.5043 21.8047 14.3038C21.5012 14.1033 21.4356 13.7978 21.612 13.4902C22.0823 12.6682 22.7924 12.1832 23.763 12.0761C24.9951 11.9407 26.0421 12.2966 26.9266 13.2498V8.36505C26.7501 8.44799 26.5984 8.51202 26.4531 8.58761C25.1124 9.28888 23.7103 9.84108 22.248 10.2526C22.0285 10.3145 21.8057 10.4521 21.6465 10.6127C20.5253 11.7517 19.5579 12.9926 19.1232 14.5505C19.0339 14.8707 18.9962 15.2077 18.9618 15.5394C18.9144 15.9982 18.6756 16.2806 18.3 16.2764C17.9062 16.2722 17.6587 15.9688 17.6749 15.4838C17.72 14.0308 18.342 12.7847 19.149 11.6079C19.3309 11.3423 19.531 11.0882 19.7796 10.7502C19.5461 10.7681 19.389 10.787 19.2308 10.7901C18.3291 10.8079 17.4284 10.8373 16.5267 10.8279C16.2341 10.8247 16.0565 10.9119 15.8929 11.1418C15.3323 11.926 14.8105 12.7228 14.6297 13.6855C14.5178 14.2828 14.5931 14.857 15.045 15.2875C15.893 16.0927 16.6785 16.9304 17.0583 18.0894C18.3302 17.7031 19.5794 17.4207 20.9363 17.6747C20.9363 17.2978 20.9341 16.9556 20.9363 16.6123C20.9374 16.3887 20.9277 16.163 20.9546 15.9415C21.0019 15.5478 21.2806 15.3221 21.6497 15.3473C21.9962 15.3714 22.2135 15.614 22.2297 16.0045C22.2566 16.647 22.2577 17.2915 22.3158 17.9309C22.333 18.123 22.46 18.3508 22.6106 18.4789C24.485 20.0714 25.1307 23.3384 23.8921 25.311C23.6016 25.7729 23.1432 26.1456 22.7193 26.512C22.4481 26.7461 22.0338 26.6568 21.838 26.4038C21.6293 26.134 21.6702 25.795 21.9424 25.5378C23.324 24.2297 23.6081 22.9017 22.8914 21.0971C22.1587 19.2515 20.8986 18.5608 18.9048 18.9135C18.7778 18.9355 18.653 18.967 18.526 18.987C17.7405 19.113 17.238 19.3618 17.125 20.3244C16.9378 21.9191 15.8983 23.1211 14.7093 24.1741C14.4091 24.4407 14.0336 24.404 13.7882 24.1405C13.5504 23.8854 13.5859 23.5494 13.8625 23.2397C14.3306 22.7138 14.847 22.2172 15.2387 21.6409C16.1598 20.2887 16.2706 18.8746 15.3291 17.4742C14.3736 16.0517 13.0124 15.4985 11.2983 15.7609C10.2072 15.9278 9.21081 16.3394 8.27789 16.9021C8.16276 16.9713 8.07129 17.1561 8.05946 17.2947C8.02933 17.6558 8.05623 18.0222 8.04655 18.3854C8.03578 18.8243 7.79906 19.0878 7.42568 19.0993C7.03615 19.1119 6.76607 18.839 6.76284 18.3833C6.75316 17.2359 6.75961 16.0874 6.75961 14.94C6.75961 12.6441 6.75208 10.3492 6.76715 8.05326C6.7693 7.71627 6.666 7.50526 6.41098 7.27115C5.94506 6.84283 5.52541 6.36202 5.13158 5.86862C4.8841 5.55997 4.98094 5.17784 5.27469 4.98153C5.56307 4.78837 5.92462 4.81881 6.14305 5.14005C7.16743 6.64652 8.78578 7.32889 10.3611 8.05536C13.0436 9.29098 15.88 9.78229 18.837 9.56813C21.0321 9.40856 23.1066 8.79547 25.0779 7.8559C26.169 7.33624 27.2806 6.83339 28.1489 5.9652C28.3975 5.71639 28.6009 5.42455 28.8311 5.1579C29.1044 4.84191 29.4402 4.78312 29.7361 4.98993C30.0234 5.19149 30.1116 5.57257 29.8598 5.88121C29.452 6.38197 29.013 6.86173 28.5438 7.3079C28.3297 7.51156 28.2307 7.69003 28.2318 7.98292C28.2415 12.6441 28.2608 17.3052 28.2307 21.9663C28.2103 25.1745 26.7124 27.5534 23.8136 29.0641C22.263 29.8724 20.5909 29.9291 18.88 29.7832C17.3381 29.6519 15.7897 29.6089 14.294 30.1338C11.7621 31.023 10.7797 33.5635 12.1451 35.8206C12.6369 36.6342 13.2341 37.3984 13.8614 38.1207C14.521 38.8808 15.4647 39.1642 16.4482 39.3038C16.7452 39.3458 17.0465 39.3605 17.3456 39.3868C17.8997 39.4351 18.1117 39.6471 18.101 40.1951C18.0913 40.6812 18.0945 41.1473 18.54 41.4864C18.8596 41.7299 19.2028 41.815 19.5827 41.668C19.9958 41.5084 20.3014 41.2239 20.3316 40.7788C20.4273 39.35 20.2552 37.9569 19.6278 36.6457C19.5654 36.5166 19.3685 36.3959 19.2157 36.3686C18.0967 36.1712 17.0217 35.8489 16.0102 35.3377C15.8833 35.2736 15.7563 35.2086 15.6358 35.134C15.2441 34.8894 15.129 34.5346 15.3291 34.2133C15.5217 33.9047 15.8574 33.8701 16.276 34.038C17.1325 34.3813 17.9804 34.7739 18.8714 34.9965C20.6727 35.4469 22.4707 35.1718 24.1924 34.6091C25.3211 34.2406 26.3778 33.658 27.4656 33.1698C27.5431 33.1352 27.6109 33.0806 27.6862 33.0397C28.1016 32.8119 28.4664 32.8654 28.6676 33.1835C28.8742 33.5089 28.7827 33.8753 28.3641 34.0989C27.4753 34.5734 26.5876 35.0616 25.659 35.4532C24.1902 36.0715 22.6289 36.3539 21.0202 36.4463C21.1827 37.1045 21.3979 37.7291 21.4808 38.3695C21.5862 39.1842 21.6529 40.0167 21.6099 40.8345C21.5572 41.8318 20.9621 42.5079 20.0012 42.8627C19.8829 42.9068 19.7667 42.954 19.6483 43.0002H18.8746ZM13.3073 14.5589C13.2072 13.0556 13.8549 11.8651 14.6523 10.6589C12.3001 10.2704 10.147 9.4516 8.07237 8.34615V11.4798C9.08599 11.7475 9.94897 11.5061 10.7334 10.8825C11.1132 10.5801 11.4737 10.6095 11.7201 10.9066C11.9568 11.1922 11.9159 11.6058 11.5318 11.8494C11.0239 12.1727 10.4913 12.5044 9.91991 12.6745C9.33886 12.8467 8.69862 12.8267 8.07022 12.8918V15.551C9.72192 14.7174 11.4048 14.2072 13.3062 14.5578L13.3073 14.5589Z" fill="#00D19D"/>
<path d="M28.3266 0C29.2068 0.27085 30.1473 0.42832 30.9575 0.834595C33.3807 2.04712 34.8075 4.0344 34.9216 6.69775C35.055 9.82722 34.9776 12.9661 34.9905 16.0998C34.9905 16.1691 34.9862 16.2394 34.9765 16.3087C34.9195 16.694 34.6838 16.9113 34.3244 16.8924C33.9521 16.8725 33.7541 16.6635 33.7208 16.3077C33.7057 16.1544 33.7078 16.0001 33.7078 15.8468C33.7078 13.0617 33.7046 10.2765 33.7078 7.49141C33.71 5.84531 33.2021 4.39448 32.0572 3.16096C30.299 1.26606 27.2205 0.718066 24.8887 1.89805C23.7976 2.45024 22.7291 3.06333 21.5928 3.5053C18.3873 4.75037 15.2335 4.47847 12.17 2.99299C11.249 2.54683 10.3774 1.98203 9.42187 1.6272C5.69988 0.246704 1.55071 2.90691 1.34412 6.79224C1.26449 8.29976 1.30645 9.81357 1.29247 11.3242C1.29139 11.4775 1.29247 11.6329 1.27525 11.7851C1.23759 12.1263 1.02884 12.3247 0.686662 12.3405C0.321888 12.3573 0.0969981 12.1641 0.0345884 11.8072C0.019524 11.7253 0.00876368 11.6402 0.00983971 11.5573C0.0227521 9.9343 0.000155453 8.31025 0.0593371 6.68831C0.160484 3.92732 2.27811 1.25347 4.98217 0.416772C5.50942 0.253003 6.05174 0.137524 6.58653 0C7.07397 0 7.56034 0 8.04778 0C8.66757 0.149072 9.31964 0.221509 9.89855 0.462964C10.8272 0.850342 11.7063 1.349 12.608 1.79937C14.5233 2.75469 16.5355 3.2082 18.694 2.94995C20.2822 2.75994 21.7166 2.1689 23.1079 1.43403C23.8342 1.05085 24.5702 0.671875 25.3363 0.378979C25.8722 0.175317 26.4672 0.120728 27.0365 0C27.4658 0 27.8962 0 28.3255 0L28.3266 0Z" fill="#00D19D"/>
<path d="M34.9901 20.9938C35.059 23.2551 34.7631 25.4555 33.8711 27.5603C33.0533 29.4878 31.8686 31.1654 30.3213 32.5994C29.9974 32.8996 29.6444 32.9154 29.369 32.6582C29.1 32.4062 29.1215 32.0598 29.4002 31.7239C30.1921 30.7717 31.0648 29.8699 31.7448 28.8463C32.9403 27.0449 33.558 25.024 33.6483 22.874C33.7054 21.5334 33.6882 20.1886 33.7054 18.8459C33.7075 18.6926 33.7054 18.5373 33.7215 18.385C33.7602 18.0218 33.9916 17.8213 34.3478 17.8213C34.6835 17.8213 34.931 18.0082 34.9568 18.3514C34.9912 18.7966 34.9837 19.2448 34.9891 19.692C34.9934 20.1256 34.9891 20.5592 34.9891 20.9927L34.9901 20.9938Z" fill="#00D19D"/>
</g>
<defs>
<clipPath id="clip0_1431_4858">
<rect width="35" height="43" fill="white"/>
</clipPath>
</defs>
</svg>
