<svg width="33" height="45" viewBox="0 0 33 45" fill="none" xmlns="http://www.w3.org/2000/svg">
<g clip-path="url(#clip0_1431_4836)">
<path d="M6.43015 11.2411V9.06568C6.12127 9.06568 5.81862 9.06818 5.51473 9.06568C4.15965 9.04947 3.2542 8.16508 3.24423 6.82167C3.23178 5.29739 3.23178 3.77186 3.24423 2.24758C3.25544 0.910401 4.17709 0.00231829 5.51971 0.00231829C12.8369 -0.00142381 20.154 -0.00142381 27.4724 0.00231829C28.8362 0.00231829 29.7479 0.914143 29.7566 2.285C29.7665 3.79431 29.7678 5.30363 29.7566 6.81294C29.7454 8.16134 28.8436 9.04822 27.4936 9.06444C27.2009 9.06818 26.9094 9.06444 26.5819 9.06444V11.1887C26.9555 11.1887 27.3229 11.1887 27.6903 11.1887C30.7816 11.1974 32.996 13.4153 32.9973 16.5224C33.001 24.2249 33.001 31.9262 32.9973 39.6287C32.996 42.777 30.7704 44.9961 27.6193 44.9961C20.1926 44.9986 12.7671 44.9986 5.34036 44.9961C2.25035 44.9948 0.00476251 42.762 0.00227157 39.6835C-0.00271031 31.9499 -0.00271031 24.2174 0.00227157 16.4838C0.00351704 13.7857 1.74593 11.6802 4.37512 11.2561C5.02401 11.1513 5.70279 11.2398 6.4289 11.2398L6.43015 11.2411ZM1.43332 19.2766V36.8732H31.5575V19.2766H1.43332ZM31.5351 38.3476H1.40343C1.40343 38.7879 1.40343 39.1921 1.40343 39.595C1.40716 42.0049 2.99514 43.5928 5.40637 43.5928C9.64595 43.594 13.8855 43.5928 18.1264 43.5928C21.3571 43.5928 24.5866 43.6015 27.8174 43.589C29.7092 43.5816 31.2499 42.2918 31.5202 40.4382C31.6173 39.7709 31.5364 39.0773 31.5364 38.3464L31.5351 38.3476ZM31.5961 17.8384C31.5961 17.3395 31.5986 16.8904 31.5961 16.4414C31.5787 14.2023 29.9708 12.597 27.7327 12.5957C20.2437 12.5932 12.7546 12.5945 5.26563 12.5957C5.00284 12.5957 4.73257 12.5957 4.47849 12.6531C1.95891 13.2219 1.0796 15.3075 1.47442 17.8372H31.5961V17.8384ZM16.4861 7.66115C20.1204 7.66115 23.7559 7.66115 27.3902 7.66115C28.0901 7.66115 28.3504 7.40294 28.3529 6.70941C28.3567 5.27868 28.3567 3.8467 28.3529 2.41597C28.3517 1.66506 28.0951 1.40685 27.3466 1.40685C20.1079 1.40685 12.8692 1.40685 5.63055 1.40685C4.90943 1.40685 4.64663 1.67005 4.64414 2.38853C4.64041 3.78808 4.64165 5.18887 4.64414 6.58966C4.64414 7.43912 4.86833 7.66115 5.72023 7.6624C9.30843 7.6624 12.8966 7.6624 16.4848 7.6624L16.4861 7.66115ZM25.1172 9.10061H7.89607V11.1563H25.1172V9.10061Z" fill="#00D19D"/>
<path d="M19.0456 25.4562C19.9374 25.4562 20.6946 25.4624 21.4519 25.4537C21.8853 25.4487 22.2913 25.5285 22.4383 25.9838C22.5852 26.4379 22.4196 26.8158 22.0372 27.1314C18.8625 29.7521 15.6965 32.3853 12.5268 35.0135C11.9913 35.4576 11.5491 35.4763 11.1643 35.0809C10.8479 34.7565 10.8242 34.3823 11.1057 33.8846C11.919 32.4527 12.7373 31.0244 13.5518 29.5937C13.6278 29.4615 13.6975 29.3268 13.8121 29.116C13.0761 29.116 12.4035 29.116 11.7309 29.116C11.3872 29.116 11.0223 29.1384 10.8367 28.7642C10.6399 28.365 10.7159 28.0008 10.9749 27.6316C12.4122 25.5834 13.8383 23.529 15.2569 21.4683C15.501 21.1128 15.8074 20.9494 16.2321 20.9507C17.8935 20.9569 19.555 20.9557 21.2177 20.9507C21.6337 20.9507 21.9326 21.1079 22.1045 21.4983C22.2801 21.8962 22.1593 22.2317 21.8815 22.5199C21.0732 23.3594 20.2562 24.1901 19.4429 25.0258C19.3358 25.1356 19.2349 25.2504 19.0444 25.4562H19.0456ZM19.9286 22.2978C18.6645 22.2978 17.5224 22.2879 16.3803 22.3116C16.2533 22.3141 16.0976 22.4762 16.0079 22.6022C14.8957 24.1751 13.791 25.7531 12.6875 27.3322C12.6152 27.4357 12.5617 27.553 12.472 27.7127C13.2679 27.7127 13.9815 27.7014 14.6952 27.7164C15.4748 27.7326 15.8298 28.3413 15.4723 29.0361C15.3515 29.2706 15.212 29.4952 15.0813 29.7247C14.6615 30.4544 14.2406 31.1853 13.8208 31.915C13.8445 31.9325 13.8682 31.9487 13.8918 31.9662C15.9182 30.2698 17.9458 28.5733 20.0731 26.7921C19.2374 26.7921 18.5424 26.7846 17.8475 26.7946C17.4352 26.8008 17.1238 26.6599 16.9457 26.2707C16.7602 25.8616 16.871 25.5161 17.1637 25.2067C17.6457 24.699 18.1277 24.1938 18.6097 23.6874C19.0219 23.2546 19.4329 22.8192 19.9261 22.2991L19.9286 22.2978Z" fill="#00D19D"/>
</g>
<defs>
<clipPath id="clip0_1431_4836">
<rect width="33" height="45" fill="white"/>
</clipPath>
</defs>
</svg>
