<svg width="37" height="39" viewBox="0 0 37 39" fill="none" xmlns="http://www.w3.org/2000/svg">
<path d="M20.9243 0C21.3508 0.100547 21.7847 0.175195 22.2021 0.304688C25.2239 1.24389 27.122 4.25344 26.7763 7.426C26.4963 9.99832 26.2948 12.579 26.0586 15.1559C25.9869 15.9382 25.9159 16.7213 25.839 17.5668C25.9491 17.4853 26.0239 17.4365 26.0918 17.3794C28.0336 15.7371 30.2366 15.2725 32.6154 16.1065C34.9882 16.9391 36.444 18.6903 36.8855 21.1864C37.2991 23.5242 36.5942 25.5534 34.8916 27.201C31.8419 30.1526 28.7815 33.0936 25.7258 36.0384C25.2895 36.4589 24.8601 36.8878 24.4118 37.296C23.4141 38.2048 22.2466 38.7547 20.9115 38.9345C20.8391 38.9444 20.7696 38.9771 20.6987 39H19.3402C18.9138 38.9002 18.4799 38.8256 18.0618 38.6968C13.4098 37.2618 11.9102 31.2693 15.3214 27.7662C15.5418 27.5399 15.7524 27.3053 15.9795 27.0616C15.5411 26.763 15.0799 26.4492 14.5856 26.1125C14.4928 26.1856 14.3766 26.2747 14.2618 26.3677C11.8347 28.3283 8.21366 27.7745 6.58124 25.1047C4.56166 21.8034 2.5934 18.4686 0.671928 15.1079C-0.736345 12.6453 0.154958 9.50473 2.57227 8.03918C4.96995 6.58658 8.14272 7.30488 9.64759 9.69592C10.6785 11.3329 11.6294 13.0208 12.6158 14.6859C12.683 14.7994 12.7509 14.9122 12.8943 15.0005C12.9796 14.0842 13.0619 13.1686 13.1502 12.2522C13.3698 9.96709 13.4943 7.66746 13.8369 5.40135C14.2641 2.57842 16.5403 0.476836 19.3538 0.0662695C19.4263 0.0556055 19.4949 0.0220898 19.5659 0C20.0187 0 20.4715 0 20.9243 0ZM24.6979 13.4702C24.8511 11.8005 25.0224 10.1484 25.1454 8.4924C25.2141 7.57377 25.3212 6.63305 25.2027 5.72965C24.8805 3.27463 22.6307 1.47316 20.0979 1.52496C17.6754 1.57447 15.5267 3.51 15.2611 5.92617C15.0618 7.74135 14.9109 9.56186 14.7418 11.3801C14.7056 11.7655 14.6807 12.1517 14.6513 12.5364C15.3003 12.4686 15.8988 12.3916 16.4995 12.349C17.018 12.3124 17.3644 12.6133 17.3818 13.068C17.3991 13.5289 17.0912 13.8183 16.5659 13.8709C15.9916 13.928 15.4203 14.0271 14.846 14.075C14.5547 14.0994 14.4694 14.2358 14.4483 14.5031C14.3811 15.3502 14.2845 16.1949 14.2279 17.0427C14.215 17.2407 14.2739 17.4693 14.3713 17.6445C14.7448 18.3193 15.1675 18.9668 15.535 19.6447C16.4097 21.258 16.4407 22.9079 15.6807 24.5761C15.6354 24.6759 15.5931 24.7772 15.5177 24.9539C16.0173 25.2472 16.5018 25.5305 16.9856 25.8162C17.1682 25.9243 17.2935 25.8664 17.4422 25.7225C19.6104 23.6224 21.787 21.5323 23.9522 19.4292C24.073 19.3119 24.1628 19.1153 24.1816 18.9462C24.3107 17.7488 24.4141 16.5483 24.5356 15.3494C24.556 15.1498 24.5039 15.05 24.3092 14.9906C23.7092 14.8071 23.116 14.6006 22.5153 14.4193C22.1998 14.3241 21.9704 14.1558 21.9039 13.8206C21.793 13.2638 22.2405 12.8053 22.8028 12.937C23.4239 13.0825 24.033 13.2813 24.6986 13.471L24.6979 13.4702ZM21.2104 24.1838C19.5893 25.7499 17.9818 27.2657 16.4165 28.8257C14.7984 30.4383 14.5086 32.987 15.6633 34.9682C16.8256 36.9632 19.1885 37.945 21.3832 37.2694C22.0172 37.0744 22.6828 36.7735 23.1688 36.3355C24.8745 34.7976 26.5076 33.1789 28.1936 31.5672C26.5212 28.4715 24.2103 26.031 21.2104 24.1838ZM29.3264 30.4688C30.949 28.8973 32.5694 27.3945 34.1112 25.8131C35.3301 24.5616 35.7316 22.994 35.3671 21.2809C34.9588 19.3637 33.792 18.0573 31.9407 17.4837C30.0804 16.9079 28.3778 17.3146 26.9461 18.6636C25.4661 20.0568 24.0164 21.482 22.5553 22.895C22.4888 22.959 22.436 23.0374 22.3741 23.1113C25.2903 24.9966 27.5899 27.4333 29.3272 30.4695L29.3264 30.4688ZM10.9095 26.0157C12.2792 26.0013 13.3886 25.4422 14.1237 24.2539C14.8882 23.0161 14.9396 21.7044 14.2309 20.4263C13.4649 19.0453 12.6309 17.7023 11.8377 16.3358C11.7276 16.1454 11.6174 16.1012 11.4151 16.1652C9.14647 16.8843 7.15859 18.0725 5.459 19.7544C5.29976 19.9121 5.30353 20.0233 5.41221 20.2054C6.20465 21.5277 6.97444 22.8645 7.77442 24.1815C8.48384 25.35 9.54646 25.9358 10.9095 26.015V26.0157ZM10.9034 14.7225C9.96683 13.1831 9.13062 11.6292 8.11932 10.2017C7.28915 9.02941 6.00389 8.62494 4.59789 8.88621C2.03794 9.36152 0.750417 12.1456 2.02435 14.4391C2.77981 15.7988 3.59942 17.1212 4.38883 18.461C4.41449 18.5044 4.43185 18.5532 4.45525 18.6042C6.32691 16.8035 8.43479 15.5383 10.9042 14.7225H10.9034Z" fill="#00D19D"/>
<path d="M19.6723 12.4094C20.0882 12.4185 20.4052 12.7491 20.4006 13.1703C20.3961 13.5832 20.0587 13.9237 19.655 13.9237C19.2429 13.9237 18.8822 13.5466 18.8995 13.133C18.9169 12.7217 19.2603 12.4002 19.6731 12.4094H19.6723Z" fill="#00D19D"/>
</svg>
