<svg width="72" height="72" viewBox="0 0 72 72" fill="none" xmlns="http://www.w3.org/2000/svg">
<path d="M36 64.9498C35.07 64.9498 34.17 64.8298 33.42 64.5598C21.96 60.6298 3.75 46.6798 3.75 26.0698C3.75 15.5698 12.24 7.0498 22.68 7.0498C27.75 7.0498 32.49 9.02981 36 12.5698C39.51 9.02981 44.25 7.0498 49.32 7.0498C59.76 7.0498 68.25 15.5998 68.25 26.0698C68.25 46.7098 50.04 60.6298 38.58 64.5598C37.83 64.8298 36.93 64.9498 36 64.9498ZM22.68 11.5498C14.73 11.5498 8.25 18.0598 8.25 26.0698C8.25 46.5598 27.96 57.9598 34.89 60.3298C35.43 60.5098 36.6 60.5098 37.14 60.3298C44.04 57.9598 63.78 46.5898 63.78 26.0698C63.78 18.0598 57.3 11.5498 49.35 11.5498C44.79 11.5498 40.56 13.6798 37.83 17.3698C36.99 18.5098 35.07 18.5098 34.23 17.3698C31.44 13.6498 27.24 11.5498 22.68 11.5498Z" fill="#00D19D"/>
</svg>
