<svg width="25" height="26" viewBox="0 0 25 26" fill="none" xmlns="http://www.w3.org/2000/svg">
<path d="M18.9486 18.7768H7.85481C6.82356 18.7768 5.83398 18.3325 5.13606 17.5603C4.43814 16.7881 4.08398 15.7514 4.16732 14.7041L5.0319 4.16789C5.06315 3.83996 4.94856 3.52261 4.72981 3.2793C4.51106 3.03599 4.20898 2.90904 3.88606 2.90904H2.08398C1.6569 2.90904 1.30273 2.54937 1.30273 2.11566C1.30273 1.68194 1.6569 1.32227 2.08398 1.32227H3.89649C4.65691 1.32227 5.37564 1.6502 5.88606 2.21086C6.16731 2.52821 6.37565 2.89847 6.49023 3.31103H19.5007C20.5527 3.31103 21.5215 3.73417 22.2298 4.49582C22.9277 5.26806 23.2819 6.27302 23.1986 7.34145L22.6361 15.2753C22.5215 17.2112 20.8548 18.7768 18.9486 18.7768ZM6.54232 4.88722L5.72982 14.831C5.67773 15.4446 5.87565 16.0264 6.2819 16.4813C6.68815 16.9362 7.25064 17.1795 7.85481 17.1795H18.9486C20.0319 17.1795 21.0111 16.2486 21.0944 15.1484L21.6569 7.21451C21.6986 6.59038 21.5007 5.99798 21.0944 5.56426C20.6882 5.11997 20.1256 4.87663 19.5111 4.87663H6.54232V4.88722Z" fill="#002399"/>
<path d="M16.9271 24.0664C15.7812 24.0664 14.8438 23.1143 14.8438 21.9507C14.8438 20.787 15.7812 19.835 16.9271 19.835C18.0729 19.835 19.0104 20.787 19.0104 21.9507C19.0104 23.1143 18.0729 24.0664 16.9271 24.0664ZM16.9271 21.4217C16.6354 21.4217 16.4062 21.6545 16.4062 21.9507C16.4062 22.2469 16.6354 22.4796 16.9271 22.4796C17.2188 22.4796 17.4479 22.2469 17.4479 21.9507C17.4479 21.6545 17.2188 21.4217 16.9271 21.4217Z" fill="#002399"/>
<path d="M8.5931 24.0664C7.44727 24.0664 6.50977 23.1143 6.50977 21.9507C6.50977 20.787 7.44727 19.835 8.5931 19.835C9.73893 19.835 10.6764 20.787 10.6764 21.9507C10.6764 23.1143 9.73893 24.0664 8.5931 24.0664ZM8.5931 21.4217C8.30143 21.4217 8.07227 21.6545 8.07227 21.9507C8.07227 22.2469 8.30143 22.4796 8.5931 22.4796C8.88477 22.4796 9.11393 22.2469 9.11393 21.9507C9.11393 21.6545 8.88477 21.4217 8.5931 21.4217Z" fill="#002399"/>
<path d="M21.875 9.25621H9.375C8.94792 9.25621 8.59375 8.89654 8.59375 8.46282C8.59375 8.0291 8.94792 7.66943 9.375 7.66943H21.875C22.3021 7.66943 22.6562 8.0291 22.6562 8.46282C22.6562 8.89654 22.3021 9.25621 21.875 9.25621Z" fill="#002399"/>
</svg>
