<svg width="66" height="45" viewBox="0 0 66 45" fill="none" xmlns="http://www.w3.org/2000/svg">
<rect width="66" height="45" rx="19" fill="white"/>
<path d="M30.1078 33C28.7439 33 27.4615 32.4867 26.497 31.5569C25.5325 30.6271 25 29.3909 25 28.0761C25 26.7613 25.5298 25.5251 26.497 24.5953L28.6733 22.5L26.497 20.4047C24.5055 18.4849 24.5055 15.3603 26.497 13.4431C27.4615 12.5107 28.7412 12 30.1078 12C31.4744 12 32.7541 12.5107 33.7186 13.4431L39.503 19.0192C40.4675 19.949 41 21.1852 41 22.5C41 23.8148 40.4702 25.051 39.503 25.9808L33.7186 31.5569C32.7541 32.4867 31.4717 33 30.1078 33ZM30.1078 14.3179C29.3878 14.3179 28.7086 14.5877 28.1978 15.0801C27.1437 16.0937 27.1437 17.7463 28.1978 18.7625L32.0749 22.5L28.1978 26.2375C27.687 26.7299 27.4072 27.382 27.4072 28.0787C27.4072 28.7754 27.687 29.4275 28.1978 29.9199C28.7086 30.4123 29.3851 30.6821 30.1078 30.6821C30.8305 30.6821 31.507 30.4123 32.0178 29.9199L37.8022 24.3439C38.313 23.8515 38.5928 23.1993 38.5928 22.5026C38.5928 21.8059 38.313 21.1538 37.8022 20.6614L32.0151 15.0827C31.5043 14.5903 30.8278 14.3205 30.1051 14.3205L30.1078 14.3179Z" fill="#0029B5"/>
</svg>
