<svg width="25" height="25" viewBox="0 0 25 25" fill="none" xmlns="http://www.w3.org/2000/svg">
<path d="M12.5 23.2684C11.87 23.2684 11.28 23.0285 10.84 22.5785L9.32001 21.0584C9.20001 20.9384 8.88 20.8084 8.72 20.8084H6.56C5.26 20.8084 4.20999 19.7583 4.20999 18.4583V16.2984C4.20999 16.1384 4.07999 15.8185 3.95999 15.6985L2.44 14.1784C2 13.7384 1.75 13.1484 1.75 12.5184C1.75 11.8884 1.99 11.2984 2.44 10.8584L3.95999 9.33834C4.07999 9.21834 4.20999 8.89837 4.20999 8.73837V6.57846C4.20999 5.27846 5.26 4.22836 6.56 4.22836H8.72C8.88 4.22836 9.20001 4.09836 9.32001 3.97836L10.84 2.45834C11.72 1.57834 13.28 1.57834 14.16 2.45834L15.68 3.97836C15.8 4.09836 16.12 4.22836 16.28 4.22836H18.44C19.74 4.22836 20.79 5.27846 20.79 6.57846V8.73837C20.79 8.89837 20.92 9.21834 21.04 9.33834L22.56 10.8584C23 11.2984 23.25 11.8884 23.25 12.5184C23.25 13.1484 23.01 13.7384 22.56 14.1784L21.04 15.6985C20.92 15.8185 20.79 16.1384 20.79 16.2984V18.4583C20.79 19.7583 19.74 20.8084 18.44 20.8084H16.28C16.12 20.8084 15.8 20.9384 15.68 21.0584L14.16 22.5785C13.72 23.0285 13.13 23.2684 12.5 23.2684ZM5.01999 14.6384C5.41999 15.0384 5.70999 15.7384 5.70999 16.2984V18.4583C5.70999 18.9283 6.09 19.3084 6.56 19.3084H8.72C9.28 19.3084 9.98001 19.5984 10.38 19.9984L11.9 21.5184C12.22 21.8384 12.78 21.8384 13.1 21.5184L14.62 19.9984C15.02 19.5984 15.72 19.3084 16.28 19.3084H18.44C18.91 19.3084 19.29 18.9283 19.29 18.4583V16.2984C19.29 15.7384 19.58 15.0384 19.98 14.6384L21.5 13.1184C21.66 12.9584 21.75 12.7484 21.75 12.5184C21.75 12.2884 21.66 12.0784 21.5 11.9184L19.98 10.3984C19.58 9.9984 19.29 9.29837 19.29 8.73837V6.57846C19.29 6.10846 18.91 5.72836 18.44 5.72836H16.28C15.72 5.72836 15.02 5.43842 14.62 5.03842L13.1 3.5184C12.78 3.1984 12.22 3.1984 11.9 3.5184L10.38 5.03842C9.98001 5.43842 9.28 5.72836 8.72 5.72836H6.56C6.09 5.72836 5.70999 6.10846 5.70999 6.57846V8.73837C5.70999 9.29837 5.41999 9.9984 5.01999 10.3984L3.5 11.9184C3.34 12.0784 3.25 12.2884 3.25 12.5184C3.25 12.7484 3.34 12.9584 3.5 13.1184L5.01999 14.6384Z" fill="white"/>
<path d="M15.5002 16.5186C14.9402 16.5186 14.4902 16.0686 14.4902 15.5186C14.4902 14.9686 14.9402 14.5186 15.4902 14.5186C16.0402 14.5186 16.4902 14.9686 16.4902 15.5186C16.4902 16.0686 16.0502 16.5186 15.5002 16.5186Z" fill="white"/>
<path d="M9.51001 10.5186C8.95001 10.5186 8.5 10.0686 8.5 9.51855C8.5 8.96855 8.95 8.51855 9.5 8.51855C10.05 8.51855 10.5 8.96855 10.5 9.51855C10.5 10.0686 10.06 10.5186 9.51001 10.5186Z" fill="white"/>
<path d="M9.49994 16.2685C9.30994 16.2685 9.11994 16.1986 8.96994 16.0486C8.67994 15.7586 8.67994 15.2785 8.96994 14.9885L14.9699 8.9885C15.2599 8.6985 15.7399 8.6985 16.0299 8.9885C16.3199 9.2785 16.3199 9.75855 16.0299 10.0486L10.0299 16.0486C9.87994 16.1986 9.68994 16.2685 9.49994 16.2685Z" fill="white"/>
</svg>
