<svg width="23" height="23" viewBox="0 0 23 23" fill="none" xmlns="http://www.w3.org/2000/svg">
<path d="M5.54191 18.4541C4.9793 18.4541 4.45359 18.2604 4.07544 17.9007C3.59584 17.4488 3.36527 16.7663 3.44827 16.0284L3.78953 13.0402C3.85409 12.4776 4.19534 11.7305 4.59193 11.3247L12.1641 3.30985C14.0548 1.30845 16.0285 1.25311 18.0299 3.14383C20.0313 5.03456 20.0867 7.0083 18.1959 9.0097L10.6238 17.0245C10.2364 17.4396 9.51704 17.8269 8.95444 17.9192L5.98461 18.4264C5.82782 18.4357 5.68948 18.4541 5.54191 18.4541ZM15.1247 3.13461C14.4145 3.13461 13.7965 3.57732 13.1694 4.24138L5.59724 12.2654C5.41278 12.4591 5.20065 12.9203 5.16376 13.1877L4.82251 16.176C4.78562 16.4804 4.8594 16.7294 5.02542 16.8862C5.19143 17.043 5.44045 17.0983 5.74481 17.0522L8.71464 16.5449C8.98211 16.4988 9.42481 16.259 9.60927 16.0653L17.1814 8.0505C18.3251 6.83306 18.7401 5.70784 17.0707 4.13993C16.3329 3.42975 15.6965 3.13461 15.1247 3.13461Z" fill="white"/>
<path d="M16.4251 10.55C16.4066 10.55 16.379 10.55 16.3605 10.55C13.4829 10.2641 11.1679 8.07825 10.7252 5.2191C10.6699 4.84096 10.9281 4.49048 11.3063 4.42592C11.6844 4.37058 12.0349 4.62883 12.0995 5.00697C12.4499 7.23895 14.2577 8.95444 16.5081 9.17579C16.8862 9.21269 17.1629 9.55394 17.126 9.93208C17.0799 10.2826 16.7756 10.55 16.4251 10.55Z" fill="white"/>
<path d="M19.8006 21.4328H3.19905C2.82091 21.4328 2.50732 21.1192 2.50732 20.741C2.50732 20.3629 2.82091 20.0493 3.19905 20.0493H19.8006C20.1787 20.0493 20.4923 20.3629 20.4923 20.741C20.4923 21.1192 20.1787 21.4328 19.8006 21.4328Z" fill="white"/>
</svg>
