<svg width="21" height="21" viewBox="0 0 21 21" fill="none" xmlns="http://www.w3.org/2000/svg">
<path d="M17.2988 9.84375H13.7637C12.005 9.84375 11.1562 8.98625 11.1562 7.23625V3.70125C11.1562 1.9425 12.0137 1.09375 13.7637 1.09375H17.2988C19.0575 1.09375 19.9062 1.95125 19.9062 3.70125V7.23625C19.9062 8.98625 19.0488 9.84375 17.2988 9.84375ZM13.7637 2.40625C12.7312 2.40625 12.4688 2.66875 12.4688 3.70125V7.23625C12.4688 8.26875 12.7312 8.53125 13.7637 8.53125H17.2988C18.3313 8.53125 18.5938 8.26875 18.5938 7.23625V3.70125C18.5938 2.66875 18.3313 2.40625 17.2988 2.40625H13.7637Z" fill="#00D19D"/>
<path d="M7.23625 9.84375H3.70125C1.9425 9.84375 1.09375 9.065 1.09375 7.455V3.4825C1.09375 1.8725 1.95125 1.09375 3.70125 1.09375H7.23625C8.995 1.09375 9.84375 1.8725 9.84375 3.4825V7.44625C9.84375 9.065 8.98625 9.84375 7.23625 9.84375ZM3.70125 2.40625C2.52875 2.40625 2.40625 2.73875 2.40625 3.4825V7.44625C2.40625 8.19875 2.52875 8.5225 3.70125 8.5225H7.23625C8.40875 8.5225 8.53125 8.19 8.53125 7.44625V3.4825C8.53125 2.73 8.40875 2.40625 7.23625 2.40625H3.70125Z" fill="#00D19D"/>
<path d="M7.23625 19.9062H3.70125C1.9425 19.9062 1.09375 19.0488 1.09375 17.2988V13.7637C1.09375 12.005 1.95125 11.1562 3.70125 11.1562H7.23625C8.995 11.1562 9.84375 12.0137 9.84375 13.7637V17.2988C9.84375 19.0488 8.98625 19.9062 7.23625 19.9062ZM3.70125 12.4688C2.66875 12.4688 2.40625 12.7312 2.40625 13.7637V17.2988C2.40625 18.3313 2.66875 18.5938 3.70125 18.5938H7.23625C8.26875 18.5938 8.53125 18.3313 8.53125 17.2988V13.7637C8.53125 12.7312 8.26875 12.4688 7.23625 12.4688H3.70125Z" fill="#00D19D"/>
<path d="M17.9375 15.9688H12.6875C12.3288 15.9688 12.0312 15.6712 12.0312 15.3125C12.0312 14.9538 12.3288 14.6562 12.6875 14.6562H17.9375C18.2962 14.6562 18.5938 14.9538 18.5938 15.3125C18.5938 15.6712 18.2962 15.9688 17.9375 15.9688Z" fill="#00D19D"/>
<path d="M15.3125 18.5938C14.9538 18.5938 14.6562 18.2962 14.6562 17.9375V12.6875C14.6562 12.3288 14.9538 12.0312 15.3125 12.0312C15.6712 12.0312 15.9688 12.3288 15.9688 12.6875V17.9375C15.9688 18.2962 15.6712 18.5938 15.3125 18.5938Z" fill="#00D19D"/>
</svg>
