<svg width="25" height="24" viewBox="0 0 25 24" fill="none" xmlns="http://www.w3.org/2000/svg">
<path d="M18.9714 17.3938H7.92099C6.89377 17.3938 5.90806 16.9822 5.21287 16.2668C4.51768 15.5515 4.16491 14.5911 4.24791 13.621L5.10912 3.86068C5.14025 3.55689 5.0261 3.26291 4.80821 3.03752C4.59031 2.81213 4.28941 2.69453 3.96776 2.69453H2.17273C1.74731 2.69453 1.39453 2.36135 1.39453 1.95957C1.39453 1.55779 1.74731 1.22461 2.17273 1.22461H3.97815C4.73559 1.22461 5.45152 1.52839 5.95994 2.04776C6.24009 2.34175 6.44761 2.68474 6.56174 3.06692H19.5213C20.5693 3.06692 21.5342 3.45889 22.2398 4.16446C22.935 4.87982 23.2878 5.81078 23.2048 6.80053L22.6445 14.1502C22.5303 15.9435 20.8702 17.3938 18.9714 17.3938ZM6.61363 4.52704L5.80431 13.7386C5.75243 14.3069 5.94957 14.8459 6.35423 15.2673C6.75889 15.6887 7.31919 15.914 7.92099 15.914H18.9714C20.0505 15.914 21.0258 15.0517 21.1088 14.0326L21.6691 6.68294C21.7106 6.10477 21.5135 5.556 21.1088 5.15422C20.7042 4.74264 20.1438 4.51723 19.5317 4.51723H6.61363V4.52704Z" fill="white"/>
<path d="M16.9585 22.2938C15.8171 22.2938 14.8833 21.4119 14.8833 20.3339C14.8833 19.256 15.8171 18.374 16.9585 18.374C18.0998 18.374 19.0337 19.256 19.0337 20.3339C19.0337 21.4119 18.0998 22.2938 16.9585 22.2938ZM16.9585 19.8439C16.668 19.8439 16.4397 20.0595 16.4397 20.3339C16.4397 20.6083 16.668 20.8239 16.9585 20.8239C17.249 20.8239 17.4773 20.6083 17.4773 20.3339C17.4773 20.0595 17.249 19.8439 16.9585 19.8439Z" fill="white"/>
<path d="M8.65771 22.2938C7.51635 22.2938 6.58252 21.4119 6.58252 20.3339C6.58252 19.256 7.51635 18.374 8.65771 18.374C9.79906 18.374 10.7329 19.256 10.7329 20.3339C10.7329 21.4119 9.79906 22.2938 8.65771 22.2938ZM8.65771 19.8439C8.36718 19.8439 8.13891 20.0595 8.13891 20.3339C8.13891 20.6083 8.36718 20.8239 8.65771 20.8239C8.94823 20.8239 9.1765 20.6083 9.1765 20.3339C9.1765 20.0595 8.94823 19.8439 8.65771 19.8439Z" fill="white"/>
<path d="M21.887 8.57442H9.43591C9.0105 8.57442 8.65771 8.24123 8.65771 7.83945C8.65771 7.43768 9.0105 7.10449 9.43591 7.10449H21.887C22.3125 7.10449 22.6652 7.43768 22.6652 7.83945C22.6652 8.24123 22.3125 8.57442 21.887 8.57442Z" fill="white"/>
</svg>
