<svg width="21" height="18" viewBox="0 0 21 18" fill="none" xmlns="http://www.w3.org/2000/svg">
<path d="M14.9204 17.2756H5.44713C5.05873 17.2756 4.73664 16.9714 4.73664 16.6045C4.73664 16.2377 5.05873 15.9335 5.44713 15.9335H14.9204C17.6298 15.9335 18.9466 14.6899 18.9466 12.131V5.86815C18.9466 3.30931 17.6298 2.06568 14.9204 2.06568H5.44713C2.73778 2.06568 1.42099 3.30931 1.42099 5.86815C1.42099 6.23498 1.0989 6.53917 0.710496 6.53917C0.322091 6.53917 0 6.23498 0 5.86815C0 2.6025 1.98939 0.723633 5.44713 0.723633H14.9204C18.3782 0.723633 20.3675 2.6025 20.3675 5.86815V12.131C20.3675 15.3967 18.3782 17.2756 14.9204 17.2756Z" fill="white"/>
<path d="M10.1841 9.77837C9.38832 9.77837 8.58309 9.54575 7.96733 9.07156L5.00219 6.83481C4.69905 6.60219 4.64221 6.18168 4.88852 5.89538C5.13482 5.60907 5.58005 5.5554 5.8832 5.78802L8.84834 8.02477C9.56831 8.57053 10.7904 8.57053 11.5103 8.02477L14.4755 5.78802C14.7786 5.5554 15.2333 5.60013 15.4701 5.89538C15.7165 6.18168 15.6691 6.61114 15.3565 6.83481L12.3913 9.07156C11.785 9.54575 10.9798 9.77837 10.1841 9.77837Z" fill="white"/>
<path d="M6.39446 13.6965H0.710496C0.322091 13.6965 0 13.3923 0 13.0255C0 12.6587 0.322091 12.3545 0.710496 12.3545H6.39446C6.78287 12.3545 7.10496 12.6587 7.10496 13.0255C7.10496 13.3923 6.78287 13.6965 6.39446 13.6965Z" fill="white"/>
<path d="M3.55248 10.1184H0.710496C0.322091 10.1184 0 9.81422 0 9.44739C0 9.08056 0.322091 8.77637 0.710496 8.77637H3.55248C3.94088 8.77637 4.26297 9.08056 4.26297 9.44739C4.26297 9.81422 3.94088 10.1184 3.55248 10.1184Z" fill="white"/>
</svg>
