<svg width="23" height="23" viewBox="0 0 23 23" fill="none" xmlns="http://www.w3.org/2000/svg">
<path d="M10.6568 17.4894C10.4747 17.4894 10.2926 17.4223 10.1489 17.2785L8.71137 15.841C8.43345 15.5631 8.43345 15.1031 8.71137 14.8252C8.98928 14.5473 9.44928 14.5473 9.7272 14.8252L10.676 15.774L13.2826 13.3685C13.5701 13.1002 14.0301 13.1194 14.2984 13.4069C14.5668 13.6944 14.5476 14.1544 14.2601 14.4227L11.1455 17.2977C11.0114 17.4223 10.8389 17.4894 10.6568 17.4894Z" fill="#002399"/>
<path d="M4.97368 6.11405C4.7916 6.11405 4.59993 6.03738 4.46576 5.90322C4.18785 5.6253 4.18785 5.1653 4.46576 4.88738L7.94451 1.40863C8.22243 1.13072 8.68243 1.13072 8.96035 1.40863C9.23826 1.68655 9.23826 2.14655 8.96035 2.42447L5.4816 5.90322C5.33785 6.03738 5.15576 6.11405 4.97368 6.11405Z" fill="#00D19D"/>
<path d="M18.0262 6.11405C17.8441 6.11405 17.662 6.04697 17.5182 5.90322L14.0395 2.42447C13.7616 2.14655 13.7616 1.68655 14.0395 1.40863C14.3174 1.13072 14.7774 1.13072 15.0553 1.40863L18.5341 4.88738C18.812 5.1653 18.812 5.6253 18.5341 5.90322C18.3999 6.03738 18.2082 6.11405 18.0262 6.11405Z" fill="#00D19D"/>
<path d="M19.3678 10.1585C19.3007 10.1585 19.2336 10.1585 19.1665 10.1585H18.9461L3.83317 10.1585C3.16234 10.1681 2.39567 10.1681 1.83984 9.61228C1.399 9.18103 1.19775 8.5102 1.19775 7.52311C1.19775 4.8877 3.124 4.8877 4.044 4.8877L18.9557 4.8877C19.8757 4.8877 21.8019 4.8877 21.8019 7.52311C21.8019 8.51978 21.6007 9.18103 21.1598 9.61228C20.6615 10.1106 19.9907 10.1585 19.3678 10.1585ZM4.044 8.72103L19.1761 8.72103C19.6073 8.73061 20.0098 8.73061 20.144 8.59645C20.2111 8.52936 20.3548 8.29936 20.3548 7.52311C20.3548 6.4402 20.0865 6.3252 18.9461 6.3252L4.044 6.3252C2.90359 6.3252 2.63525 6.4402 2.63525 7.52311C2.63525 8.29936 2.78859 8.52936 2.84609 8.59645C2.98025 8.72103 3.39234 8.72103 3.814 8.72103H4.044Z" fill="#00D19D"/>
<path d="M14.2696 21.802H8.49088C5.06005 21.802 4.29338 19.7607 3.9963 17.9878L2.64505 9.69822C2.57797 9.3053 2.8463 8.94114 3.23922 8.87405C3.62255 8.80697 3.9963 9.0753 4.06338 9.46822L5.41463 17.7482C5.69255 19.4445 6.26755 20.3645 8.49088 20.3645H14.2696C16.7326 20.3645 17.0105 19.502 17.3267 17.8345L18.9367 9.44905C19.0134 9.05614 19.3871 8.79739 19.78 8.88364C20.173 8.9603 20.4221 9.33405 20.3455 9.72697L18.7355 18.1124C18.3617 20.0578 17.7388 21.802 14.2696 21.802Z" fill="#00D19D"/>
</svg>
