<svg width="5" height="8" viewBox="0 0 5 8" fill="none" xmlns="http://www.w3.org/2000/svg">
<path d="M1.5962 7.5C1.16998 7.5 0.769231 7.32888 0.467821 7.01896C0.166412 6.70903 0 6.29696 0 5.85869C0 5.42043 0.165563 5.00836 0.467821 4.69843L1.1479 4L0.467821 3.30157C-0.154525 2.66164 -0.154525 1.6201 0.467821 0.981043C0.769231 0.670242 1.16913 0.5 1.5962 0.5C2.02326 0.5 2.42316 0.670242 2.72457 0.981043L4.53218 2.83974C4.83359 3.14966 5 3.56174 5 4C5 4.43826 4.83444 4.85034 4.53218 5.16026L2.72457 7.01896C2.42316 7.32888 2.02241 7.5 1.5962 7.5ZM1.5962 1.27264C1.3712 1.27264 1.15894 1.36256 0.999321 1.52669C0.669893 1.86455 0.669893 2.41544 0.999321 2.75418L2.2109 4L0.999321 5.24582C0.839701 5.40995 0.75225 5.62734 0.75225 5.85957C0.75225 6.09179 0.839701 6.30918 0.999321 6.47331C1.15894 6.63744 1.37035 6.72736 1.5962 6.72736C1.82204 6.72736 2.03345 6.63744 2.19307 6.47331L4.00068 4.61462C4.1603 4.45049 4.24775 4.2331 4.24775 4.00087C4.24775 3.76865 4.1603 3.55126 4.00068 3.38713L2.19222 1.52756C2.0326 1.36343 1.82119 1.27351 1.59535 1.27351L1.5962 1.27264Z" fill="#00D19D"/>
</svg>
