<svg width="26" height="26" viewBox="0 0 26 26" fill="none" xmlns="http://www.w3.org/2000/svg">
<path d="M13.1728 12.5882C13.1403 12.5882 13.1186 12.5882 13.0861 12.5882C13.032 12.5773 12.9561 12.5773 12.8911 12.5882C9.74945 12.4907 7.37695 10.0207 7.37695 6.9765C7.37695 3.87817 9.90112 1.354 12.9995 1.354C16.0978 1.354 18.622 3.87817 18.622 6.9765C18.6111 10.0207 16.2278 12.4907 13.2053 12.5882C13.1945 12.5882 13.1836 12.5882 13.1728 12.5882ZM12.9995 2.979C10.8003 2.979 9.00195 4.77734 9.00195 6.9765C9.00195 9.14317 10.692 10.8873 12.8478 10.9632C12.902 10.9523 13.0536 10.9523 13.1945 10.9632C15.3178 10.8657 16.9861 9.1215 16.997 6.9765C16.997 4.77734 15.1986 2.979 12.9995 2.979Z" fill="#002399"/>
<path d="M13.1837 24.4293C11.0604 24.4293 8.92624 23.8877 7.31208 22.8043C5.80624 21.8077 4.98291 20.4427 4.98291 18.9585C4.98291 17.4743 5.80624 16.0985 7.31208 15.091C10.5621 12.9352 15.8271 12.9352 19.0554 15.091C20.5504 16.0877 21.3846 17.4527 21.3846 18.9368C21.3846 20.421 20.5612 21.7968 19.0554 22.8043C17.4304 23.8877 15.3071 24.4293 13.1837 24.4293ZM8.21124 16.456C7.17124 17.1493 6.60791 18.0377 6.60791 18.9693C6.60791 19.8902 7.18208 20.7785 8.21124 21.461C10.9087 23.2702 15.4587 23.2702 18.1562 21.461C19.1962 20.7677 19.7596 19.8793 19.7596 18.9477C19.7596 18.0268 19.1854 17.1385 18.1562 16.456C15.4587 14.6577 10.9087 14.6577 8.21124 16.456Z" fill="#002399"/>
</svg>
