<svg width="19" height="20" viewBox="0 0 19 20" fill="none" xmlns="http://www.w3.org/2000/svg">
<path d="M0.25 4.11914C0.25 2.25842 1.75842 0.75 3.61914 0.75L15.3809 0.75C17.2416 0.75 18.75 2.25842 18.75 4.11914L18.75 15.8809C18.75 17.7416 17.2416 19.25 15.3809 19.25L3.61914 19.25C1.75842 19.25 0.25 17.7416 0.25 15.8809L0.25 4.11914Z" fill="#FED725"/>
<path d="M3.68331 9.62866V9.60058C3.75844 9.59272 3.71114 9.53432 3.72394 9.50063C3.70112 9.27153 3.76512 9.05085 3.79795 8.82792C3.82689 8.63363 3.86974 8.44047 3.92428 8.25179C3.98049 8.05694 4.06063 7.86883 4.12686 7.67623C4.22592 7.38704 4.37117 7.12032 4.52644 6.85977C4.63273 6.6812 4.73791 6.50151 4.87816 6.34485C4.99836 6.21064 5.10466 6.06352 5.22598 5.93044C5.33228 5.81364 5.44914 5.70639 5.56601 5.60026C5.68956 5.48796 5.812 5.37341 5.94556 5.27345C6.23272 5.05951 6.53436 4.86635 6.85936 4.71586C7.07084 4.61815 7.27898 4.51146 7.50548 4.44913C7.70305 4.39466 7.89671 4.32728 8.09428 4.27337C8.18277 4.24923 8.28071 4.25765 8.36753 4.22958C8.59069 4.15995 8.82054 4.15995 9.04815 4.15433C9.31472 4.14759 9.58241 4.17735 9.84787 4.16107C10.1061 4.14479 10.3465 4.22565 10.5953 4.25484C10.7444 4.27225 10.8897 4.32616 11.0349 4.36996C11.129 4.3986 11.2191 4.43903 11.3115 4.47272C11.4417 4.52045 11.5759 4.55919 11.7022 4.61478C12.0472 4.76696 12.3656 4.96855 12.6794 5.17631C12.8035 5.25829 12.9187 5.35544 13.0339 5.45146C13.1536 5.55085 13.2727 5.65248 13.384 5.76142C13.4858 5.86081 13.5816 5.9675 13.6717 6.07812C13.8264 6.26848 13.9817 6.45996 14.1242 6.6593C14.3863 7.02542 14.5705 7.43421 14.7235 7.85648C14.7669 7.97552 14.7458 8.02325 14.6133 8.02269C13.7134 8.02044 12.813 8.02044 11.9131 8.021C11.8402 8.021 11.7879 7.99124 11.7528 7.92835C11.641 7.73126 11.5041 7.55269 11.346 7.39153C11.2547 7.29832 11.1518 7.2169 11.0577 7.12593C10.8975 6.97039 10.6954 6.88279 10.5023 6.78396C10.366 6.71433 10.218 6.66548 10.0632 6.64077C9.91743 6.61775 9.77385 6.56721 9.62804 6.55823C9.43382 6.54644 9.23737 6.55261 9.0437 6.5717C8.88342 6.58743 8.72203 6.62 8.56899 6.66941C8.38812 6.72781 8.21337 6.80867 8.03974 6.88784C7.87 6.96477 7.72141 7.07708 7.57115 7.1877C7.38583 7.32359 7.22388 7.48419 7.08475 7.66275C6.86326 7.94745 6.67738 8.25685 6.5683 8.60499C6.50208 8.81669 6.42027 9.02445 6.4097 9.25187C6.40302 9.38776 6.36239 9.52253 6.35905 9.65842C6.35071 9.97624 6.3585 10.2946 6.39745 10.6113C6.42361 10.8225 6.47258 11.028 6.53547 11.2313C6.60615 11.4598 6.7002 11.6771 6.8154 11.886C6.93672 12.1061 7.07529 12.3122 7.25004 12.4924C7.32072 12.5654 7.3914 12.6396 7.47153 12.7002C7.63515 12.8237 7.80044 12.9462 7.97407 13.054C8.19779 13.1927 8.44433 13.2769 8.69921 13.3448C8.89622 13.3971 9.09323 13.4246 9.29469 13.4279C9.39709 13.4296 9.50005 13.4156 9.603 13.4162C9.80057 13.4162 9.99479 13.4021 10.1829 13.3325C10.2558 13.3055 10.3398 13.31 10.4122 13.2814C10.6615 13.1826 10.9153 13.0893 11.1301 12.9209C11.2397 12.8355 11.3566 12.7541 11.4473 12.6502C11.5742 12.5054 11.6822 12.3431 11.7923 12.1842C11.9014 12.0264 11.9654 11.8444 12.0122 11.6614C12.0483 11.5188 12.0105 11.4682 11.8708 11.4705C11.5486 11.4755 11.2258 11.4688 10.903 11.4693C10.2408 11.4693 9.57851 11.4716 8.91626 11.4727C8.83334 11.4727 8.79271 11.4306 8.79382 11.3447C8.79605 11.1841 8.80217 11.0241 8.80161 10.8635C8.79994 10.3794 8.79605 9.89538 8.79327 9.41135C8.79271 9.30072 8.82443 9.26647 8.93073 9.26198C8.93574 9.26198 8.9413 9.26198 8.94631 9.26198C9.34979 9.26198 9.75326 9.26198 10.1567 9.26198C10.5602 9.26198 10.9642 9.26254 11.3677 9.2631C12.5587 9.26423 13.7491 9.26535 14.94 9.26816C14.989 9.26816 15.0385 9.28163 15.0853 9.29567C15.1003 9.30016 15.1198 9.32543 15.1198 9.34115C15.122 9.50456 15.1248 9.66796 15.1198 9.83081C15.1148 10.0054 15.1047 10.1806 15.0925 10.3553C15.0819 10.5125 15.0714 10.6708 15.0497 10.827C15.0229 11.0218 14.9912 11.2167 14.9495 11.4093C14.9144 11.5715 14.8526 11.7265 14.8081 11.8866C14.7196 12.2044 14.5833 12.5059 14.4347 12.7996C14.2961 13.0731 14.1342 13.3325 13.9477 13.5768C13.7697 13.8103 13.5838 14.0372 13.374 14.241C13.2104 14.3999 13.0323 14.5443 12.8542 14.6869C12.6188 14.8761 12.3661 15.0412 12.0951 15.1737C11.8986 15.2698 11.7022 15.3691 11.4991 15.45C11.3021 15.5286 11.0973 15.5859 10.8958 15.6516C10.849 15.6668 10.8023 15.6825 10.755 15.692C10.6454 15.715 10.5357 15.7386 10.425 15.7549C10.3699 15.7628 10.3076 15.8128 10.2569 15.7409C10.253 15.7353 10.2291 15.7369 10.2207 15.7437C10.1862 15.7718 10.154 15.8026 10.1211 15.8324C10.0944 15.8335 10.0677 15.8341 10.041 15.8352C10.0126 15.8352 9.98366 15.8341 9.95528 15.8341C9.94303 15.8015 9.92801 15.7802 9.89851 15.8195C9.78777 15.8116 9.67702 15.8038 9.56571 15.7959C9.54345 15.7953 9.52064 15.7942 9.49838 15.7937C9.49337 15.7937 9.48836 15.7931 9.48391 15.7925C9.40655 15.7931 9.32864 15.7942 9.25128 15.7948C9.19062 15.7976 9.13052 15.7993 9.07041 15.8043C9.03535 15.8071 9.00085 15.8156 8.96579 15.8217L8.88899 15.8318C8.87007 15.833 8.85114 15.8335 8.83222 15.8347C8.81831 15.8347 8.8044 15.8341 8.79048 15.8335C8.68419 15.8144 8.57734 15.7965 8.47104 15.7763C8.28238 15.7398 8.08983 15.7162 7.90673 15.6611C7.66743 15.5898 7.43425 15.4972 7.20107 15.4062C6.90055 15.2883 6.61839 15.1316 6.35071 14.9514C6.14702 14.8138 5.94111 14.6762 5.75523 14.5162C5.56045 14.3483 5.38014 14.1607 5.20929 13.9676C5.044 13.7806 4.89485 13.5779 4.7457 13.3768C4.51141 13.0607 4.33221 12.7109 4.17806 12.3509C4.07065 12.1005 3.99886 11.8343 3.91816 11.5732C3.87754 11.4407 3.84915 11.3037 3.82077 11.1672C3.79406 11.0364 3.76679 10.905 3.75399 10.7725C3.73896 10.6164 3.73896 10.4592 3.73284 10.3025C3.7295 10.2205 3.72728 10.1385 3.72338 10.0565C3.72004 9.99365 3.71448 9.93132 3.71002 9.86899C3.70056 9.86394 3.6911 9.85832 3.68164 9.85327C3.68164 9.84372 3.68164 9.83474 3.68164 9.82519C3.69444 9.81958 3.70724 9.8134 3.72004 9.80778C3.70724 9.79992 3.69444 9.7915 3.68164 9.78364C3.68164 9.77915 3.68164 9.77409 3.68164 9.7696C3.70001 9.76567 3.71837 9.76174 3.73674 9.75781C3.73674 9.75051 3.73562 9.74321 3.73562 9.73591C3.71781 9.7331 3.70001 9.73085 3.6822 9.72805C3.6822 9.72355 3.6822 9.7185 3.6822 9.71401C3.69444 9.71064 3.70668 9.70727 3.71893 9.7039C3.71893 9.69997 3.71781 9.6966 3.71781 9.69267C3.70613 9.69042 3.69388 9.68818 3.6822 9.68593C3.6822 9.67189 3.6822 9.65786 3.6822 9.64382C3.69221 9.64269 3.70279 9.64213 3.71281 9.64101V9.63259C3.70279 9.63146 3.69221 9.6309 3.6822 9.62978L3.68331 9.62866Z" fill="black"/>
</svg>
