<svg width="26" height="26" viewBox="0 0 26 26" fill="none" xmlns="http://www.w3.org/2000/svg">
<path d="M12.9998 23.4542C12.664 23.4542 12.339 23.4109 12.0682 23.3134C7.92984 21.8942 1.354 16.8567 1.354 9.41423C1.354 5.62256 4.41984 2.5459 8.18984 2.5459C10.0207 2.5459 11.7323 3.2609 12.9998 4.53923C14.2673 3.2609 15.979 2.5459 17.8098 2.5459C21.5798 2.5459 24.6457 5.6334 24.6457 9.41423C24.6457 16.8676 18.0698 21.8942 13.9315 23.3134C13.6607 23.4109 13.3357 23.4542 12.9998 23.4542ZM8.18984 4.1709C5.319 4.1709 2.979 6.52173 2.979 9.41423C2.979 16.8134 10.0965 20.9301 12.599 21.7859C12.794 21.8509 13.2165 21.8509 13.4115 21.7859C15.9032 20.9301 23.0315 16.8242 23.0315 9.41423C23.0315 6.52173 20.6915 4.1709 17.8207 4.1709C16.174 4.1709 14.6465 4.94007 13.6607 6.27257C13.3573 6.68423 12.664 6.68423 12.3607 6.27257C11.3532 4.92923 9.8365 4.1709 8.18984 4.1709Z" fill="#002399"/>
</svg>
