<svg width="18" height="18" viewBox="0 0 18 18" fill="none" xmlns="http://www.w3.org/2000/svg">
<path d="M9 16.625C8.7693 16.625 8.54605 16.5939 8.36 16.524C5.51721 15.5058 1 11.8918 1 6.55246C1 3.83225 3.10605 1.625 5.69581 1.625C6.95349 1.625 8.1293 2.13795 9 3.05505C9.8707 2.13795 11.0465 1.625 12.3042 1.625C14.894 1.625 17 3.84003 17 6.55246C17 11.8996 12.4828 15.5058 9.64 16.524C9.45395 16.5939 9.2307 16.625 9 16.625ZM5.69581 2.7908C3.72372 2.7908 2.11628 4.47733 2.11628 6.55246C2.11628 11.8608 7.00558 14.8141 8.72465 15.4281C8.8586 15.4747 9.14884 15.4747 9.28279 15.4281C10.9944 14.8141 15.8912 11.8685 15.8912 6.55246C15.8912 4.47733 14.2837 2.7908 12.3116 2.7908C11.1805 2.7908 10.1312 3.34262 9.45395 4.29858C9.24558 4.59391 8.7693 4.59391 8.56093 4.29858C7.86884 3.33484 6.82698 2.7908 5.69581 2.7908Z" fill="#00D19D"/>
<path d="M2.75676 10.5038L2 7.35227V6.56439V6.17045L2.37838 5.38258L2.75676 4.5947C2.75676 4.46338 2.83243 4.12197 3.13514 3.80682V3.41288C3.38739 3.28157 3.96757 3.01894 4.27027 3.01894H4.64865L5.78378 2.625C6.03604 2.75631 6.61622 3.01894 6.91892 3.01894C7.2973 3.01894 7.2973 3.01894 7.2973 3.41288C7.2973 3.72803 7.8018 3.54419 8.05405 3.41288L8.43243 3.80682L8.81081 4.20076L9.18919 4.5947L9.56757 4.20076H9.94595L10.3243 3.41288H10.7027L11.4595 3.01894H11.8378C12.0901 2.88763 12.6703 2.625 12.973 2.625C13.2757 2.625 13.8559 2.88763 14.1081 3.01894L14.8649 3.80682L15.6216 4.5947L16 5.38258V6.56439V7.74621L15.6216 9.71591L14.4865 12.0795L13.3514 13.2614L11.8378 14.4432L11.0811 15.2311L9.18919 15.625H8.81081L8.05405 15.2311L6.54054 14.4432L5.78378 14.0492L4.27027 12.4735L2.75676 10.5038Z" fill="#00D19D" stroke="#00D19D"/>
</svg>
