<svg width="27" height="26" viewBox="0 0 27 26" fill="none" xmlns="http://www.w3.org/2000/svg">
<path d="M20.4638 19.229H8.48249C7.36874 19.229 6.29999 18.774 5.54624 17.9832C4.79249 17.1923 4.41 16.1307 4.5 15.0582L5.43375 4.26817C5.4675 3.93234 5.34374 3.60734 5.10749 3.35818C4.87124 3.10901 4.545 2.979 4.19625 2.979H2.25C1.78875 2.979 1.40625 2.61067 1.40625 2.1665C1.40625 1.72234 1.78875 1.354 2.25 1.354H4.20751C5.02876 1.354 5.80499 1.68983 6.35624 2.264C6.65999 2.589 6.88499 2.96818 7.00875 3.39068H21.06C22.1963 3.39068 23.2425 3.824 24.0075 4.604C24.7612 5.39484 25.1438 6.42401 25.0538 7.51817L24.4462 15.6432C24.3225 17.6257 22.5225 19.229 20.4638 19.229ZM7.065 5.00483L6.1875 15.1882C6.13125 15.8165 6.345 16.4123 6.78375 16.8782C7.2225 17.344 7.82999 17.5932 8.48249 17.5932H20.4638C21.6338 17.5932 22.6912 16.6398 22.7812 15.5132L23.3887 7.38818C23.4337 6.74901 23.22 6.14235 22.7812 5.69818C22.3425 5.24318 21.735 4.99399 21.0712 4.99399H7.065V5.00483Z" fill="white"/>
<path d="M18.2812 24.6458C17.0437 24.6458 16.0312 23.6708 16.0312 22.4792C16.0312 21.2875 17.0437 20.3125 18.2812 20.3125C19.5187 20.3125 20.5312 21.2875 20.5312 22.4792C20.5312 23.6708 19.5187 24.6458 18.2812 24.6458ZM18.2812 21.9375C17.9662 21.9375 17.7188 22.1758 17.7188 22.4792C17.7188 22.7825 17.9662 23.0208 18.2812 23.0208C18.5963 23.0208 18.8438 22.7825 18.8438 22.4792C18.8438 22.1758 18.5963 21.9375 18.2812 21.9375Z" fill="white"/>
<path d="M9.28125 24.6458C8.04375 24.6458 7.03125 23.6708 7.03125 22.4792C7.03125 21.2875 8.04375 20.3125 9.28125 20.3125C10.5187 20.3125 11.5312 21.2875 11.5312 22.4792C11.5312 23.6708 10.5187 24.6458 9.28125 24.6458ZM9.28125 21.9375C8.96625 21.9375 8.71875 22.1758 8.71875 22.4792C8.71875 22.7825 8.96625 23.0208 9.28125 23.0208C9.59625 23.0208 9.84375 22.7825 9.84375 22.4792C9.84375 22.1758 9.59625 21.9375 9.28125 21.9375Z" fill="white"/>
<path d="M23.625 9.479H10.125C9.66375 9.479 9.28125 9.11067 9.28125 8.6665C9.28125 8.22234 9.66375 7.854 10.125 7.854H23.625C24.0863 7.854 24.4688 8.22234 24.4688 8.6665C24.4688 9.11067 24.0863 9.479 23.625 9.479Z" fill="white"/>
</svg>
