<svg width="19" height="17" viewBox="0 0 19 17" fill="none" xmlns="http://www.w3.org/2000/svg">
<path d="M14.1425 12.5728H6.15499C5.41249 12.5728 4.69999 12.2753 4.19749 11.7582C3.69499 11.2411 3.44 10.5469 3.5 9.84567L4.1225 2.79067C4.145 2.57109 4.06249 2.35859 3.90499 2.19567C3.74749 2.03276 3.53 1.94775 3.2975 1.94775H2C1.6925 1.94775 1.4375 1.70692 1.4375 1.4165C1.4375 1.12609 1.6925 0.885254 2 0.885254H3.305C3.8525 0.885254 4.37 1.10483 4.7375 1.48025C4.94 1.69275 5.09 1.94067 5.1725 2.21692H14.54C15.2975 2.21692 15.995 2.50025 16.505 3.01025C17.0075 3.52734 17.2625 4.20026 17.2025 4.91567L16.7975 10.2282C16.715 11.5244 15.515 12.5728 14.1425 12.5728ZM5.21 3.27233L4.625 9.93066C4.5875 10.3415 4.73 10.7311 5.0225 11.0357C5.315 11.3402 5.72 11.5032 6.15499 11.5032H14.1425C14.9225 11.5032 15.6275 10.8798 15.6875 10.1432L16.0925 4.83068C16.1225 4.41276 15.98 4.01609 15.6875 3.72568C15.395 3.42818 14.99 3.26524 14.5475 3.26524H5.21V3.27233Z" fill="white"/>
<path d="M12.6875 16.1146C11.8625 16.1146 11.1875 15.4771 11.1875 14.6979C11.1875 13.9188 11.8625 13.2812 12.6875 13.2812C13.5125 13.2812 14.1875 13.9188 14.1875 14.6979C14.1875 15.4771 13.5125 16.1146 12.6875 16.1146ZM12.6875 14.3438C12.4775 14.3438 12.3125 14.4996 12.3125 14.6979C12.3125 14.8963 12.4775 15.0521 12.6875 15.0521C12.8975 15.0521 13.0625 14.8963 13.0625 14.6979C13.0625 14.4996 12.8975 14.3438 12.6875 14.3438Z" fill="white"/>
<path d="M6.6875 16.1146C5.8625 16.1146 5.1875 15.4771 5.1875 14.6979C5.1875 13.9188 5.8625 13.2812 6.6875 13.2812C7.5125 13.2812 8.1875 13.9188 8.1875 14.6979C8.1875 15.4771 7.5125 16.1146 6.6875 16.1146ZM6.6875 14.3438C6.4775 14.3438 6.3125 14.4996 6.3125 14.6979C6.3125 14.8963 6.4775 15.0521 6.6875 15.0521C6.8975 15.0521 7.0625 14.8963 7.0625 14.6979C7.0625 14.4996 6.8975 14.3438 6.6875 14.3438Z" fill="white"/>
<path d="M16.25 6.19775H7.25C6.9425 6.19775 6.6875 5.95692 6.6875 5.6665C6.6875 5.37609 6.9425 5.13525 7.25 5.13525H16.25C16.5575 5.13525 16.8125 5.37609 16.8125 5.6665C16.8125 5.95692 16.5575 6.19775 16.25 6.19775Z" fill="white"/>
</svg>
