<svg width="18" height="17" viewBox="0 0 18 17" fill="none" xmlns="http://www.w3.org/2000/svg">
<path d="M12.75 15.0521H5.25C4.9425 15.0521 4.6875 14.8113 4.6875 14.5209C4.6875 14.2304 4.9425 13.9896 5.25 13.9896H12.75C14.895 13.9896 15.9375 13.005 15.9375 10.9792V6.02085C15.9375 3.99502 14.895 3.01044 12.75 3.01044H5.25C3.105 3.01044 2.0625 3.99502 2.0625 6.02085C2.0625 6.31127 1.8075 6.5521 1.5 6.5521C1.1925 6.5521 0.9375 6.31127 0.9375 6.02085C0.9375 3.43544 2.5125 1.94794 5.25 1.94794H12.75C15.4875 1.94794 17.0625 3.43544 17.0625 6.02085V10.9792C17.0625 13.5646 15.4875 15.0521 12.75 15.0521Z" fill="white"/>
<path d="M9.00008 9.11623C8.37008 9.11623 7.73258 8.93206 7.24508 8.55665L4.89758 6.78581C4.65758 6.60165 4.61258 6.26873 4.80758 6.04206C5.00258 5.81539 5.35507 5.7729 5.59507 5.95706L7.94257 7.7279C8.51257 8.15998 9.48007 8.15998 10.0501 7.7279L12.3976 5.95706C12.6376 5.7729 12.9976 5.80831 13.1851 6.04206C13.3801 6.26873 13.3426 6.60873 13.0951 6.78581L10.7476 8.55665C10.2676 8.93206 9.63008 9.11623 9.00008 9.11623Z" fill="white"/>
<path d="M6 12.2188H1.5C1.1925 12.2188 0.9375 11.9779 0.9375 11.6875C0.9375 11.3971 1.1925 11.1562 1.5 11.1562H6C6.3075 11.1562 6.5625 11.3971 6.5625 11.6875C6.5625 11.9779 6.3075 12.2188 6 12.2188Z" fill="white"/>
<path d="M3.75 9.38538H1.5C1.1925 9.38538 0.9375 9.14454 0.9375 8.85413C0.9375 8.56371 1.1925 8.32288 1.5 8.32288H3.75C4.0575 8.32288 4.3125 8.56371 4.3125 8.85413C4.3125 9.14454 4.0575 9.38538 3.75 9.38538Z" fill="white"/>
</svg>
