<svg width="174" height="28" viewBox="0 0 174 28" fill="none" xmlns="http://www.w3.org/2000/svg">
<g clip-path="url(#clip0_1089_28492)">
<path d="M135.201 27.986H134.962C131.483 27.986 128.651 25.096 128.651 21.5462V6.43979C128.651 2.89005 131.483 0 134.962 0H135.201C138.679 0 141.511 2.89005 141.511 6.43979V21.5497C141.511 25.0995 138.679 27.9895 135.201 27.9895V27.986ZM134.962 3.0925C133.152 3.0925 131.682 4.59337 131.682 6.43979V21.5497C131.682 23.3962 133.152 24.897 134.962 24.897H135.201C137.01 24.897 138.481 23.3962 138.481 21.5497V6.43979C138.481 4.59337 137.01 3.0925 135.201 3.0925H134.962Z" fill="white"/>
<path d="M167.57 27.9826C165.925 27.9826 164.276 27.3438 163.025 26.0629L155.743 18.6318C154.529 17.3927 153.858 15.7452 153.858 13.993C153.858 12.2409 154.525 10.5934 155.743 9.35431L163.025 1.92324C165.532 -0.635221 169.608 -0.635221 172.116 1.92324C174.623 4.48171 174.623 8.64226 172.116 11.2007L169.379 13.993L172.116 16.7889C173.33 18.028 174 19.6754 174 21.4276C174 23.1798 173.333 24.8273 172.116 26.0663C170.864 27.3438 169.215 27.9861 167.57 27.9861V27.9826ZM167.57 3.09253C166.701 3.09253 165.829 3.4311 165.166 4.10823L157.884 11.5393C157.241 12.1955 156.889 13.0646 156.889 13.993C156.889 14.9215 157.241 15.7906 157.884 16.4468L165.166 23.8779C166.493 25.2287 168.647 25.2287 169.974 23.8779C170.617 23.2217 170.97 22.3526 170.97 21.4241C170.97 20.4957 170.617 19.6266 169.974 18.9704L165.094 13.9896L169.974 9.00876C171.301 7.65448 171.301 5.45553 169.974 4.10125C169.311 3.42411 168.442 3.08555 167.57 3.08555V3.09253Z" fill="white"/>
<path d="M149.477 27.986C147.76 27.986 146.146 27.3019 144.931 26.0628C143.717 24.8237 143.047 23.1763 143.047 21.4241C143.047 19.6719 143.714 18.0244 144.931 16.7853L147.671 13.993L144.931 11.2007C142.424 8.64223 142.424 4.48168 144.931 1.92321C146.146 0.684119 147.76 0 149.477 0C151.194 0 152.808 0.680628 154.022 1.92321L161.304 9.35428C162.518 10.5934 163.189 12.2408 163.189 13.993C163.189 15.7452 162.522 17.3927 161.304 18.6318L154.022 26.0628C152.808 27.3019 151.194 27.986 149.477 27.986ZM149.477 3.08901C148.571 3.08901 147.715 3.44852 147.072 4.10471C145.745 5.4555 145.745 7.65794 147.072 9.01222L151.953 13.993L147.072 18.9738C146.429 19.63 146.077 20.4991 146.077 21.4276C146.077 22.356 146.429 23.2251 147.072 23.8813C147.715 24.5375 148.567 24.897 149.477 24.897C150.387 24.897 151.238 24.5375 151.881 23.8813L159.163 16.4503C159.806 15.7941 160.158 14.925 160.158 13.9965C160.158 13.0681 159.806 12.199 159.163 11.5428L151.881 4.11169C151.238 3.4555 150.387 3.09599 149.477 3.09599V3.08901Z" fill="#00D19D"/>
<path d="M8.11959 3.21826C8.73181 3.21826 8.9336 3.42769 8.9336 4.04898V5.19383C8.9336 5.81861 8.72839 6.02454 8.11959 6.02454C5.98196 6.02454 5.24319 6.75055 5.24319 8.72612V8.98441H8.17089C8.75575 8.98441 8.9336 9.16591 8.9336 9.76276V10.9565C8.9336 11.5533 8.75575 11.7628 8.17089 11.7628H5.24319V21.6371C5.24319 22.234 5.06534 22.4434 4.45312 22.4434H3.10213C2.48992 22.4434 2.28812 22.234 2.28812 21.6371V11.7628H0.762708C0.177851 11.7628 0 11.5533 0 10.9565V9.76276C0 9.16591 0.177851 8.98441 0.762708 8.98441H2.29154V8.72612C2.29154 5.11355 4.14872 3.29505 7.89386 3.21826H8.12301H8.11959Z" fill="white"/>
<path d="M15.6576 8.59675C19.2967 8.59675 21.106 10.3908 21.106 13.9475V20.677C21.106 21.588 20.9008 21.8463 20.1894 22.157C19.1701 22.5968 17.6447 22.8306 15.6063 22.8306C13.4413 22.8306 11.9672 22.492 11.1497 21.7905C10.3357 21.1133 9.92871 20.0488 9.92871 18.6212C9.92871 15.5287 11.5567 14.4397 15.7089 14.4397C15.8867 14.4397 16.7007 14.492 18.1543 14.5688V13.8428C18.1543 12.1535 17.4429 11.2704 15.6097 11.2704C14.3613 11.2704 13.4721 11.6858 12.9351 12.5165C12.552 13.061 12.4255 13.1133 11.8406 12.9074L10.8214 12.4641C10.2605 12.2058 10.11 11.8149 10.3904 11.2948C11.3071 9.50077 13.065 8.59326 15.661 8.59326L15.6576 8.59675ZM18.1509 17.04C16.369 16.9632 15.4524 16.9109 15.3771 16.9109C13.5439 16.9109 12.9317 17.4554 12.9317 18.6002C12.9317 19.7451 13.4652 20.342 15.3258 20.342C16.4203 20.342 17.2617 20.2652 17.8704 20.1325C18.0483 20.0557 18.1509 19.951 18.1509 19.7695V17.04Z" fill="white"/>
<path d="M28.976 8.59692C29.5608 8.59692 29.766 8.77843 29.766 9.40321V10.5481C29.766 11.1449 29.5608 11.3543 28.976 11.3543H28.0594C27.1188 11.3543 26.3014 11.4591 25.6413 11.665C25.4634 11.6894 25.3882 11.7941 25.3882 11.9756V21.6406C25.3882 22.2374 25.2103 22.4468 24.6255 22.4468H23.2266C22.6417 22.4468 22.4365 22.2374 22.4365 21.6406V10.8587C22.4365 10.028 22.6144 9.71734 23.4284 9.37877C24.6768 8.91106 26.2535 8.65277 28.162 8.60041H28.976V8.59692Z" fill="white"/>
<path d="M44.0419 8.59682C47.3766 8.59682 49.032 10.3106 49.032 13.7661V21.637C49.032 22.2338 48.8542 22.4432 48.2693 22.4432H46.8704C46.2856 22.4432 46.0804 22.2338 46.0804 21.637V13.8673C46.0804 12.178 45.2663 11.3473 43.611 11.3473C42.8483 11.3473 42.0308 11.5043 41.1416 11.815C41.3194 12.3071 41.422 12.9563 41.422 13.7626V21.6335C41.422 22.2303 41.2168 22.4398 40.632 22.4398H39.257C38.6722 22.4398 38.467 22.2303 38.467 21.6335V13.8638C38.467 12.1745 37.6256 11.3438 35.9736 11.3438C35.2349 11.3438 34.5748 11.4485 33.9352 11.6544C33.8086 11.7068 33.73 11.8115 33.73 11.9651V21.63C33.73 22.2268 33.5521 22.4363 32.9673 22.4363H31.5684C30.9835 22.4363 30.7783 22.2268 30.7783 21.63V10.9528C30.7783 10.1221 30.9835 9.81148 31.7702 9.47291C33.1691 8.87606 34.7218 8.58984 36.4046 8.58984C37.7521 8.58984 38.7987 8.87606 39.5614 9.44848C40.9603 8.87606 42.4378 8.58984 44.0419 8.58984V8.59682Z" fill="white"/>
<path d="M55.9754 8.59675C59.6146 8.59675 61.4238 10.3908 61.4238 13.9475V20.677C61.4238 21.588 61.2186 21.8463 60.5072 22.157C59.488 22.5968 57.9626 22.8306 55.9241 22.8306C53.7591 22.8306 52.285 22.492 51.4676 21.7905C50.6536 21.1133 50.2466 20.0488 50.2466 18.6212C50.2466 15.5287 51.8746 14.4397 56.0267 14.4397C56.2046 14.4397 57.0186 14.492 58.4722 14.5688V13.8428C58.4722 12.1535 57.7608 11.2704 55.9276 11.2704C54.6792 11.2704 53.7899 11.6858 53.2529 12.5165C52.8699 13.061 52.7433 13.1133 52.1585 12.9074L51.1393 12.4641C50.5783 12.2058 50.4279 11.8149 50.7083 11.2948C51.6249 9.50077 53.3829 8.59326 55.9789 8.59326L55.9754 8.59675ZM58.4688 17.04C56.6868 16.9632 55.7702 16.9109 55.695 16.9109C53.8617 16.9109 53.2495 17.4554 53.2495 18.6002C53.2495 19.7451 53.7831 20.342 55.6437 20.342C56.7381 20.342 57.5795 20.2652 58.1883 20.1325C58.3662 20.0557 58.4688 19.951 58.4688 19.7695V17.04Z" fill="white"/>
<path d="M62.6172 13.9233C62.6172 10.5201 64.577 8.59692 68.4726 8.59692C71.349 8.59692 73.2335 9.94771 73.921 12.0001C74.1262 12.6493 73.9723 12.9355 73.3601 13.1693L72.2417 13.5324C71.6295 13.7662 71.349 13.6091 71.1198 12.9878C70.6855 11.8186 69.7449 11.2461 68.346 11.2461C66.4889 11.2461 65.5723 12.1048 65.5723 13.7906V17.6371C65.5723 19.2741 66.5402 20.1816 68.346 20.1816C69.7449 20.1816 70.6889 19.5847 71.1198 18.3875C71.349 17.7627 71.6295 17.6615 72.2417 17.8674L73.3874 18.206C73.9723 18.4399 74.1502 18.8308 73.921 19.3753C73.0283 21.6894 71.1472 22.8308 68.2434 22.8308C64.4744 22.8308 62.6172 20.9076 62.6172 17.5044V13.9198V13.9233Z" fill="white"/>
<path d="M76.7907 3.94409C77.9878 3.94409 78.3435 4.33502 78.3435 5.5043V5.73816C78.3435 6.9598 77.9878 7.3228 76.7907 7.3228H76.6128C75.4671 7.3228 75.0601 6.9598 75.0601 5.73816V5.5043C75.0601 4.33502 75.4158 3.94409 76.6128 3.94409H76.7907ZM77.4029 8.98423C77.9878 8.98423 78.193 9.16573 78.193 9.76259V21.6369C78.193 22.2338 77.9878 22.4432 77.4029 22.4432H76.004C75.4192 22.4432 75.2413 22.2338 75.2413 21.6369V9.76608C75.2413 9.16922 75.4192 8.98772 76.004 8.98772H77.4029V8.98423Z" fill="white"/>
<path d="M85.2557 8.59675C88.8948 8.59675 90.7041 10.3908 90.7041 13.9475V20.677C90.7041 21.588 90.4989 21.8463 89.7875 22.157C88.7683 22.5968 87.2429 22.8306 85.2044 22.8306C83.0394 22.8306 81.5653 22.492 80.7479 21.7905C79.9339 21.1133 79.5269 20.0488 79.5269 18.6212C79.5269 15.5287 81.1549 14.4397 85.307 14.4397C85.4849 14.4397 86.2989 14.492 87.7525 14.5688V13.8428C87.7525 12.1535 87.0411 11.2704 85.2078 11.2704C83.9595 11.2704 83.0702 11.6858 82.5332 12.5165C82.1502 13.061 82.0236 13.1133 81.4388 12.9074L80.4195 12.4641C79.8586 12.2058 79.7081 11.8149 79.9886 11.2948C80.9052 9.50077 82.6632 8.59326 85.2591 8.59326L85.2557 8.59675ZM87.749 17.04C85.9671 16.9632 85.0505 16.9109 84.9753 16.9109C83.142 16.9109 82.5298 17.4554 82.5298 18.6002C82.5298 19.7451 83.0634 20.342 84.924 20.342C86.0184 20.342 86.8598 20.2652 87.4686 20.1325C87.6464 20.0557 87.749 19.951 87.749 19.7695V17.04Z" fill="white"/>
<path d="M120.771 0.0138961C120.771 0.0138961 118.107 -0.104777 116.027 2.01739L115.573 2.48161L110.329 7.84636C110.329 7.84636 105.076 2.4851 105.076 2.48161L104.621 2.01739C102.538 -0.104777 99.8704 0.0138961 99.8704 0.0138961C96.392 0.0138961 93.5601 2.4502 93.5601 6.45369V21.5636C93.5601 25.1134 96.3886 28.0034 99.8704 28.0034H100.11C103.338 28.0034 106.01 25.5148 106.376 22.3211C106.376 22.3176 106.376 22.3141 106.376 22.3106C107.521 23.253 108.92 24.1291 110.319 24.1326C111.718 24.1291 113.117 23.253 114.263 22.3106C114.263 22.3106 114.263 22.3176 114.263 22.3211C114.629 25.5183 117.3 28.0034 120.528 28.0034H120.768C124.246 28.0034 127.078 25.1169 127.078 21.5636V6.45369C127.082 2.45369 124.25 0.0138961 120.771 0.0138961ZM124.051 21.5601C124.051 23.4066 122.581 24.9074 120.771 24.9074H120.532C118.723 24.9074 117.252 23.4066 117.252 21.5601V14.9458L112.624 19.6683C111.988 20.3176 111.154 20.9109 110.319 20.9179C110.319 20.9179 110.323 20.9179 110.326 20.9179H110.316C110.316 20.9179 110.319 20.9179 110.323 20.9179C109.488 20.9109 108.653 20.3176 108.017 19.6683L103.39 14.9458V21.5601C103.39 23.4066 101.919 24.9074 100.11 24.9074H99.8704C98.0611 24.9074 96.5904 23.4066 96.5904 21.5601V6.45369C96.5904 4.27917 98.0611 3.10639 99.8704 3.10639C99.8704 3.10639 101.286 2.9947 102.784 4.52349L110.316 12.2198L117.857 4.52349C119.355 2.9947 120.771 3.10639 120.771 3.10639C122.581 3.10639 124.051 4.27917 124.051 6.45369V21.5636V21.5601Z" fill="white"/>
<path d="M57.8666 3.97907C57.8666 3.97907 54.142 3.91624 53.564 7.70682C53.564 7.70682 57.2031 7.8953 57.8666 3.97907Z" fill="white"/>
</g>
<defs>
<clipPath id="clip0_1089_28492">
<rect width="174" height="28" fill="white"/>
</clipPath>
</defs>
</svg>
