<svg width="174" height="28" viewBox="0 0 174 28" fill="none" xmlns="http://www.w3.org/2000/svg">
<g clip-path="url(#clip0_968_24831)">
<path d="M135.202 27.986H134.963C131.484 27.986 128.652 25.096 128.652 21.5462V6.43979C128.652 2.89005 131.484 0 134.963 0H135.202C138.68 0 141.512 2.89005 141.512 6.43979V21.5497C141.512 25.0995 138.68 27.9895 135.202 27.9895V27.986ZM134.963 3.0925C133.153 3.0925 131.683 4.59337 131.683 6.43979V21.5497C131.683 23.3962 133.153 24.897 134.963 24.897H135.202C137.011 24.897 138.482 23.3962 138.482 21.5497V6.43979C138.482 4.59337 137.011 3.0925 135.202 3.0925H134.963Z" fill="#002399"/>
<path d="M167.569 27.9826C165.924 27.9826 164.275 27.3438 163.024 26.0629L155.742 18.6318C154.528 17.3927 153.857 15.7452 153.857 13.993C153.857 12.2409 154.524 10.5934 155.742 9.35431L163.024 1.92324C165.531 -0.635221 169.608 -0.635221 172.115 1.92324C174.622 4.48171 174.622 8.64226 172.115 11.2007L169.378 13.993L172.115 16.7889C173.329 18.028 173.999 19.6754 173.999 21.4276C173.999 23.1798 173.332 24.8273 172.115 26.0663C170.863 27.3438 169.214 27.9861 167.569 27.9861V27.9826ZM167.569 3.09253C166.7 3.09253 165.828 3.4311 165.165 4.10823L157.883 11.5393C157.24 12.1955 156.888 13.0646 156.888 13.993C156.888 14.9215 157.24 15.7906 157.883 16.4468L165.165 23.8779C166.492 25.2287 168.646 25.2287 169.973 23.8779C170.616 23.2217 170.969 22.3526 170.969 21.4241C170.969 20.4957 170.616 19.6266 169.973 18.9704L165.093 13.9896L169.973 9.00876C171.301 7.65448 171.301 5.45553 169.973 4.10125C169.31 3.42411 168.441 3.08555 167.569 3.08555V3.09253Z" fill="#002399"/>
<path d="M149.477 27.986C147.76 27.986 146.146 27.3019 144.931 26.0628C143.717 24.8237 143.047 23.1763 143.047 21.4241C143.047 19.6719 143.714 18.0244 144.931 16.7853L147.671 13.993L144.931 11.2007C142.424 8.64223 142.424 4.48168 144.931 1.92321C146.146 0.684119 147.76 0 149.477 0C151.194 0 152.808 0.680628 154.022 1.92321L161.304 9.35428C162.518 10.5934 163.189 12.2408 163.189 13.993C163.189 15.7452 162.522 17.3927 161.304 18.6318L154.022 26.0628C152.808 27.3019 151.194 27.986 149.477 27.986ZM149.477 3.08901C148.571 3.08901 147.715 3.44852 147.072 4.10471C145.745 5.4555 145.745 7.65794 147.072 9.01222L151.953 13.993L147.072 18.9738C146.429 19.63 146.077 20.4991 146.077 21.4276C146.077 22.356 146.429 23.2251 147.072 23.8813C147.715 24.5375 148.567 24.897 149.477 24.897C150.387 24.897 151.238 24.5375 151.881 23.8813L159.163 16.4503C159.806 15.7941 160.158 14.925 160.158 13.9965C160.158 13.0681 159.806 12.199 159.163 11.5428L151.881 4.11169C151.238 3.4555 150.387 3.09599 149.477 3.09599V3.08901Z" fill="#00D19D"/>
<path d="M8.11959 3.21826C8.73181 3.21826 8.9336 3.42769 8.9336 4.04898V5.19383C8.9336 5.81861 8.72839 6.02454 8.11959 6.02454C5.98196 6.02454 5.24319 6.75055 5.24319 8.72612V8.98441H8.17089C8.75575 8.98441 8.9336 9.16591 8.9336 9.76276V10.9565C8.9336 11.5533 8.75575 11.7628 8.17089 11.7628H5.24319V21.6371C5.24319 22.234 5.06534 22.4434 4.45312 22.4434H3.10213C2.48992 22.4434 2.28812 22.234 2.28812 21.6371V11.7628H0.762708C0.177851 11.7628 0 11.5533 0 10.9565V9.76276C0 9.16591 0.177851 8.98441 0.762708 8.98441H2.29154V8.72612C2.29154 5.11355 4.14872 3.29505 7.89386 3.21826H8.12301H8.11959Z" fill="#002399"/>
<path d="M15.6585 8.59675C19.2977 8.59675 21.1069 10.3908 21.1069 13.9475V20.677C21.1069 21.588 20.9017 21.8463 20.1903 22.157C19.1711 22.5968 17.6457 22.8306 15.6072 22.8306C13.4422 22.8306 11.9681 22.492 11.1507 21.7905C10.3367 21.1133 9.92969 20.0488 9.92969 18.6212C9.92969 15.5287 11.5577 14.4397 15.7099 14.4397C15.8877 14.4397 16.7017 14.492 18.1553 14.5688V13.8428C18.1553 12.1535 17.4439 11.2704 15.6107 11.2704C14.3623 11.2704 13.473 11.6858 12.9361 12.5165C12.553 13.061 12.4264 13.1133 11.8416 12.9074L10.8224 12.4641C10.2614 12.2058 10.111 11.8149 10.3914 11.2948C11.308 9.50077 13.066 8.59326 15.662 8.59326L15.6585 8.59675ZM18.1519 17.04C16.37 16.9632 15.4533 16.9109 15.3781 16.9109C13.5449 16.9109 12.9326 17.4554 12.9326 18.6002C12.9326 19.7451 13.4662 20.342 15.3268 20.342C16.4213 20.342 17.2626 20.2652 17.8714 20.1325C18.0493 20.0557 18.1519 19.951 18.1519 19.7695V17.04Z" fill="#002399"/>
<path d="M28.977 8.59692C29.5618 8.59692 29.767 8.77843 29.767 9.40321V10.5481C29.767 11.1449 29.5618 11.3543 28.977 11.3543H28.0603C27.1198 11.3543 26.3023 11.4591 25.6422 11.665C25.4644 11.6894 25.3891 11.7941 25.3891 11.9756V21.6406C25.3891 22.2374 25.2113 22.4468 24.6264 22.4468H23.2276C22.6427 22.4468 22.4375 22.2374 22.4375 21.6406V10.8587C22.4375 10.028 22.6154 9.71734 23.4294 9.37877C24.6777 8.91106 26.2545 8.65277 28.1629 8.60041H28.977V8.59692Z" fill="#002399"/>
<path d="M44.0429 8.59682C47.3776 8.59682 49.033 10.3106 49.033 13.7661V21.637C49.033 22.2338 48.8551 22.4432 48.2703 22.4432H46.8714C46.2865 22.4432 46.0813 22.2338 46.0813 21.637V13.8673C46.0813 12.178 45.2673 11.3473 43.6119 11.3473C42.8492 11.3473 42.0318 11.5043 41.1425 11.815C41.3204 12.3071 41.423 12.9563 41.423 13.7626V21.6335C41.423 22.2303 41.2178 22.4398 40.6329 22.4398H39.258C38.6732 22.4398 38.4679 22.2303 38.4679 21.6335V13.8638C38.4679 12.1745 37.6266 11.3438 35.9746 11.3438C35.2358 11.3438 34.5757 11.4485 33.9362 11.6544C33.8096 11.7068 33.7309 11.8115 33.7309 11.9651V21.63C33.7309 22.2268 33.5531 22.4363 32.9682 22.4363H31.5694C30.9845 22.4363 30.7793 22.2268 30.7793 21.63V10.9528C30.7793 10.1221 30.9845 9.81148 31.7712 9.47291C33.17 8.87606 34.7228 8.58984 36.4056 8.58984C37.7531 8.58984 38.7997 8.87606 39.5624 9.44848C40.9613 8.87606 42.4388 8.58984 44.0429 8.58984V8.59682Z" fill="#002399"/>
<path d="M55.975 8.59675C59.6141 8.59675 61.4234 10.3908 61.4234 13.9475V20.677C61.4234 21.588 61.2181 21.8463 60.5067 22.157C59.4875 22.5968 57.9621 22.8306 55.9236 22.8306C53.7587 22.8306 52.2845 22.492 51.4671 21.7905C50.6531 21.1133 50.2461 20.0488 50.2461 18.6212C50.2461 15.5287 51.8741 14.4397 56.0263 14.4397C56.2041 14.4397 57.0181 14.492 58.4717 14.5688V13.8428C58.4717 12.1535 57.7603 11.2704 55.9271 11.2704C54.6787 11.2704 53.7894 11.6858 53.2525 12.5165C52.8694 13.061 52.7428 13.1133 52.158 12.9074L51.1388 12.4641C50.5779 12.2058 50.4274 11.8149 50.7078 11.2948C51.6244 9.50077 53.3824 8.59326 55.9784 8.59326L55.975 8.59675ZM58.4683 17.04C56.6864 16.9632 55.7697 16.9109 55.6945 16.9109C53.8613 16.9109 53.249 17.4554 53.249 18.6002C53.249 19.7451 53.7826 20.342 55.6432 20.342C56.7377 20.342 57.579 20.2652 58.1878 20.1325C58.3657 20.0557 58.4683 19.951 58.4683 19.7695V17.04Z" fill="#002399"/>
<path d="M62.6172 13.9233C62.6172 10.5201 64.577 8.59692 68.4726 8.59692C71.349 8.59692 73.2335 9.94771 73.921 12.0001C74.1262 12.6493 73.9723 12.9355 73.3601 13.1694L72.2417 13.5324C71.6295 13.7662 71.349 13.6091 71.1198 12.9878C70.6855 11.8186 69.7449 11.2461 68.346 11.2461C66.4889 11.2461 65.5723 12.1048 65.5723 13.7906V17.6371C65.5723 19.2741 66.5402 20.1816 68.346 20.1816C69.7449 20.1816 70.6889 19.5847 71.1198 18.3875C71.349 17.7627 71.6295 17.6615 72.2417 17.8674L73.3874 18.206C73.9723 18.4399 74.1502 18.8308 73.921 19.3753C73.0283 21.6894 71.1472 22.8308 68.2434 22.8308C64.4744 22.8308 62.6172 20.9076 62.6172 17.5044V13.9198V13.9233Z" fill="#002399"/>
<path d="M76.7912 3.94409C77.9883 3.94409 78.344 4.33502 78.344 5.5043V5.73816C78.344 6.9598 77.9883 7.3228 76.7912 7.3228H76.6133C75.4676 7.3228 75.0605 6.9598 75.0605 5.73816V5.5043C75.0605 4.33502 75.4162 3.94409 76.6133 3.94409H76.7912ZM77.4034 8.98423C77.9882 8.98423 78.1935 9.16573 78.1935 9.76259V21.6369C78.1935 22.2338 77.9882 22.4432 77.4034 22.4432H76.0045C75.4197 22.4432 75.2418 22.2338 75.2418 21.6369V9.76608C75.2418 9.16922 75.4197 8.98772 76.0045 8.98772H77.4034V8.98423Z" fill="#002399"/>
<path d="M85.2562 8.59675C88.8953 8.59675 90.7046 10.3908 90.7046 13.9475V20.677C90.7046 21.588 90.4994 21.8463 89.788 22.157C88.7688 22.5968 87.2433 22.8306 85.2049 22.8306C83.0399 22.8306 81.5658 22.492 80.7484 21.7905C79.9343 21.1133 79.5273 20.0488 79.5273 18.6212C79.5273 15.5287 81.1554 14.4397 85.3075 14.4397C85.4854 14.4397 86.2994 14.492 87.753 14.5688V13.8428C87.753 12.1535 87.0416 11.2704 85.2083 11.2704C83.9599 11.2704 83.0707 11.6858 82.5337 12.5165C82.1506 13.061 82.0241 13.1133 81.4392 12.9074L80.42 12.4641C79.8591 12.2058 79.7086 11.8149 79.9891 11.2948C80.9057 9.50077 82.6637 8.59326 85.2596 8.59326L85.2562 8.59675ZM87.7495 17.04C85.9676 16.9632 85.051 16.9109 84.9757 16.9109C83.1425 16.9109 82.5303 17.4554 82.5303 18.6002C82.5303 19.7451 83.0638 20.342 84.9244 20.342C86.0189 20.342 86.8603 20.2652 87.4691 20.1325C87.6469 20.0557 87.7495 19.951 87.7495 19.7695V17.04Z" fill="#002399"/>
<path d="M120.772 0.0138961C120.772 0.0138961 118.107 -0.104777 116.028 2.01739L115.573 2.48161L110.33 7.84636C110.33 7.84636 105.076 2.4851 105.076 2.48161L104.622 2.01739C102.539 -0.104777 99.8708 0.0138961 99.8708 0.0138961C96.3925 0.0138961 93.5605 2.4502 93.5605 6.45369V21.5636C93.5605 25.1134 96.3891 28.0034 99.8708 28.0034H100.11C103.339 28.0034 106.01 25.5148 106.376 22.3211C106.376 22.3176 106.376 22.3141 106.376 22.3106C107.522 23.253 108.921 24.1291 110.32 24.1326C111.718 24.1291 113.117 23.253 114.263 22.3106C114.263 22.3106 114.263 22.3176 114.263 22.3211C114.629 25.5183 117.3 28.0034 120.529 28.0034H120.768C124.247 28.0034 127.079 25.1169 127.079 21.5636V6.45369C127.082 2.45369 124.25 0.0138961 120.772 0.0138961ZM124.052 21.5601C124.052 23.4066 122.581 24.9074 120.772 24.9074H120.532C118.723 24.9074 117.252 23.4066 117.252 21.5601V14.9458L112.625 19.6683C111.989 20.3176 111.154 20.9109 110.32 20.9179C110.32 20.9179 110.323 20.9179 110.326 20.9179H110.316C110.316 20.9179 110.32 20.9179 110.323 20.9179C109.488 20.9109 108.654 20.3176 108.018 19.6683L103.39 14.9458V21.5601C103.39 23.4066 101.92 24.9074 100.11 24.9074H99.8708C98.0616 24.9074 96.5909 23.4066 96.5909 21.5601V6.45369C96.5909 4.27917 98.0616 3.10639 99.8708 3.10639C99.8708 3.10639 101.287 2.9947 102.785 4.52349L110.316 12.2198L117.858 4.52349C119.356 2.9947 120.772 3.10639 120.772 3.10639C122.581 3.10639 124.052 4.27917 124.052 6.45369V21.5636V21.5601Z" fill="#002399"/>
<path d="M57.8671 3.97907C57.8671 3.97907 54.1425 3.91624 53.5645 7.70682C53.5645 7.70682 57.2036 7.8953 57.8671 3.97907Z" fill="#002399"/>
</g>
<defs>
<clipPath id="clip0_968_24831">
<rect width="174" height="28" fill="white"/>
</clipPath>
</defs>
</svg>
