<svg width="23" height="23" viewBox="0 0 23 23" fill="none" xmlns="http://www.w3.org/2000/svg">
<path d="M11.4998 20.7483C11.2028 20.7483 10.9153 20.7099 10.6757 20.6237C7.01484 19.3683 1.19775 14.912 1.19775 8.32827C1.19775 4.97411 3.90984 2.25244 7.24484 2.25244C8.86442 2.25244 10.3786 2.88494 11.4998 4.01577C12.6211 2.88494 14.1353 2.25244 15.7548 2.25244C19.0898 2.25244 21.8019 4.98369 21.8019 8.32827C21.8019 14.9216 15.9848 19.3683 12.324 20.6237C12.0844 20.7099 11.7969 20.7483 11.4998 20.7483ZM7.24484 3.68994C4.70525 3.68994 2.63525 5.76952 2.63525 8.32827C2.63525 14.8737 8.9315 18.5154 11.1453 19.2724C11.3178 19.3299 11.6915 19.3299 11.864 19.2724C14.0682 18.5154 20.374 14.8833 20.374 8.32827C20.374 5.76952 18.304 3.68994 15.7644 3.68994C14.3078 3.68994 12.9565 4.37036 12.0844 5.54911C11.8161 5.91327 11.2028 5.91327 10.9344 5.54911C10.0432 4.36077 8.7015 3.68994 7.24484 3.68994Z" fill="#002399"/>
</svg>
