<svg width="20" height="20" viewBox="0 0 20 20" fill="none" xmlns="http://www.w3.org/2000/svg">
<path d="M10 17.625C9.7693 17.625 9.54605 17.5939 9.36 17.524C6.51721 16.5058 2 12.8918 2 7.55246C2 4.83225 4.10605 2.625 6.69581 2.625C7.95349 2.625 9.1293 3.13795 10 4.05505C10.8707 3.13795 12.0465 2.625 13.3042 2.625C15.894 2.625 18 4.84003 18 7.55246C18 12.8996 13.4828 16.5058 10.64 17.524C10.454 17.5939 10.2307 17.625 10 17.625ZM6.69581 3.7908C4.72372 3.7908 3.11628 5.47733 3.11628 7.55246C3.11628 12.8608 8.00558 15.8141 9.72465 16.4281C9.8586 16.4747 10.1488 16.4747 10.2828 16.4281C11.9944 15.8141 16.8912 12.8685 16.8912 7.55246C16.8912 5.47733 15.2837 3.7908 13.3116 3.7908C12.1805 3.7908 11.1312 4.34262 10.454 5.29858C10.2456 5.59391 9.7693 5.59391 9.56093 5.29858C8.86884 4.33484 7.82698 3.7908 6.69581 3.7908Z" fill="#ad3939"/>
<path d="M3.75676 11.5038L3 8.35227V7.56439V7.17045L3.37838 6.38258L3.75676 5.5947C3.75676 5.46338 3.83243 5.12197 4.13514 4.80682V4.41288C4.38739 4.28157 4.96757 4.01894 5.27027 4.01894H5.64865L6.78378 3.625C7.03604 3.75631 7.61622 4.01894 7.91892 4.01894C8.2973 4.01894 8.2973 4.01894 8.2973 4.41288C8.2973 4.72803 8.8018 4.54419 9.05405 4.41288L9.43243 4.80682L9.81081 5.20076L10.1892 5.5947L10.5676 5.20076H10.9459L11.3243 4.41288H11.7027L12.4595 4.01894H12.8378C13.0901 3.88763 13.6703 3.625 13.973 3.625C14.2757 3.625 14.8559 3.88763 15.1081 4.01894L15.8649 4.80682L16.6216 5.5947L17 6.38258V7.56439V8.74621L16.6216 10.7159L15.4865 13.0795L14.3514 14.2614L12.8378 15.4432L12.0811 16.2311L10.1892 16.625H9.81081L9.05405 16.2311L7.54054 15.4432L6.78378 15.0492L5.27027 13.4735L3.75676 11.5038Z" fill="#ad3939" stroke="#ad3939"/>
</svg>
