<svg width="22" height="22" viewBox="0 0 22 22" fill="none" xmlns="http://www.w3.org/2000/svg">
<path d="M16.5 20.1668C15.7361 20.1668 15.0868 19.8995 14.5521 19.3647C14.0174 18.83 13.75 18.1807 13.75 17.4168C13.75 17.3099 13.7576 17.199 13.7729 17.0841C13.7882 16.9692 13.8111 16.8662 13.8417 16.7752L7.37917 13.0168C7.11944 13.246 6.82917 13.4257 6.50833 13.5558C6.1875 13.686 5.85139 13.7508 5.5 13.7502C4.73611 13.7502 4.08681 13.4828 3.55208 12.9481C3.01736 12.4134 2.75 11.7641 2.75 11.0002C2.75 10.2363 3.01736 9.58697 3.55208 9.05225C4.08681 8.51752 4.73611 8.25016 5.5 8.25016C5.85139 8.25016 6.1875 8.31525 6.50833 8.44541C6.82917 8.57558 7.11944 8.75494 7.37917 8.9835L13.8417 5.22516C13.8111 5.1335 13.7882 5.03052 13.7729 4.91625C13.7576 4.80197 13.75 4.69105 13.75 4.5835C13.75 3.81961 14.0174 3.1703 14.5521 2.63558C15.0868 2.10086 15.7361 1.8335 16.5 1.8335C17.2639 1.8335 17.9132 2.10086 18.4479 2.63558C18.9826 3.1703 19.25 3.81961 19.25 4.5835C19.25 5.34738 18.9826 5.99669 18.4479 6.53141C17.9132 7.06613 17.2639 7.3335 16.5 7.3335C16.1486 7.3335 15.8125 7.26872 15.4917 7.13916C15.1708 7.00961 14.8806 6.82994 14.6208 6.60016L8.15833 10.3585C8.18889 10.4502 8.21181 10.5534 8.22708 10.6683C8.24236 10.7832 8.25 10.8938 8.25 11.0002C8.25 11.1071 8.24236 11.218 8.22708 11.3329C8.21181 11.4478 8.18889 11.5508 8.15833 11.6418L14.6208 15.4002C14.8806 15.171 15.1708 14.9916 15.4917 14.8621C15.8125 14.7325 16.1486 14.6674 16.5 14.6668C17.2639 14.6668 17.9132 14.9342 18.4479 15.4689C18.9826 16.0036 19.25 16.6529 19.25 17.4168C19.25 18.1807 18.9826 18.83 18.4479 19.3647C17.9132 19.8995 17.2639 20.1668 16.5 20.1668Z" fill="#0B1841"/>
</svg>
