<svg xmlns="http://www.w3.org/2000/svg" width="41.221" height="49.999" viewBox="0 0 41.221 49.999">
  <g id="forms" transform="translate(-44.944)">
    <g id="Grupo_269" data-name="Grupo 269" transform="translate(44.944)">
      <g id="Grupo_268" data-name="Grupo 268">
        <path id="Caminho_603" data-name="Caminho 603" d="M85.866,12.389,73.776.3a1.021,1.021,0,0,0-.722-.3H49.9a4.965,4.965,0,0,0-4.959,4.959V45.04A4.965,4.965,0,0,0,49.9,50h31.3a4.965,4.965,0,0,0,4.959-4.959V13.11A1.021,1.021,0,0,0,85.866,12.389Zm-11.791-8.9,8.606,8.606H76.994a2.918,2.918,0,0,1-2.918-2.918ZM84.124,45.04a2.922,2.922,0,0,1-2.918,2.918H49.9a2.922,2.922,0,0,1-2.918-2.918V4.959A2.922,2.922,0,0,1,49.9,2.041H72.035V9.172a4.959,4.959,0,0,0,4.959,4.959h7.131V45.04Z" transform="translate(-44.944)" fill="#fff"/>
      </g>
    </g>
    <g id="Grupo_271" data-name="Grupo 271" transform="translate(53.51 29.662)">
      <g id="Grupo_270" data-name="Grupo 270" transform="translate(0)">
        <path id="Caminho_604" data-name="Caminho 604" d="M134.139,303.745h-.457a1.02,1.02,0,1,0,0,2.041h.457a1.02,1.02,0,0,0,0-2.041Z" transform="translate(-132.662 -303.745)" fill="#fff"/>
      </g>
    </g>
    <g id="Grupo_273" data-name="Grupo 273" transform="translate(57.268 29.662)">
      <g id="Grupo_272" data-name="Grupo 272" transform="translate(0)">
        <path id="Caminho_605" data-name="Caminho 605" d="M190.455,303.745h-18.29a1.02,1.02,0,0,0,0,2.041h18.29a1.02,1.02,0,1,0,0-2.041Z" transform="translate(-171.144 -303.745)" fill="#fff"/>
      </g>
    </g>
    <g id="Grupo_275" data-name="Grupo 275" transform="translate(53.51 24.999)">
      <g id="Grupo_274" data-name="Grupo 274" transform="translate(0)">
        <path id="Caminho_606" data-name="Caminho 606" d="M134.139,256h-.457a1.02,1.02,0,1,0,0,2.041h.457a1.02,1.02,0,0,0,0-2.041Z" transform="translate(-132.662 -256)" fill="#fff"/>
      </g>
    </g>
    <g id="Grupo_277" data-name="Grupo 277" transform="translate(57.268 24.999)">
      <g id="Grupo_276" data-name="Grupo 276" transform="translate(0)">
        <path id="Caminho_607" data-name="Caminho 607" d="M190.455,256h-18.29a1.02,1.02,0,0,0,0,2.041h18.29a1.02,1.02,0,1,0,0-2.041Z" transform="translate(-171.144 -256)" fill="#fff"/>
      </g>
    </g>
    <g id="Grupo_279" data-name="Grupo 279" transform="translate(53.51 20.337)">
      <g id="Grupo_278" data-name="Grupo 278" transform="translate(0)">
        <path id="Caminho_608" data-name="Caminho 608" d="M134.139,208.255h-.457a1.02,1.02,0,0,0,0,2.041h.457a1.02,1.02,0,0,0,0-2.041Z" transform="translate(-132.662 -208.255)" fill="#fff"/>
      </g>
    </g>
    <g id="Grupo_281" data-name="Grupo 281" transform="translate(57.268 20.337)">
      <g id="Grupo_280" data-name="Grupo 280" transform="translate(0)">
        <path id="Caminho_609" data-name="Caminho 609" d="M190.455,208.255h-18.29a1.02,1.02,0,0,0,0,2.041h18.29a1.02,1.02,0,0,0,0-2.041Z" transform="translate(-171.144 -208.255)" fill="#fff"/>
      </g>
    </g>
  </g>
</svg>
