<svg xmlns="http://www.w3.org/2000/svg" width="56" height="55.994" viewBox="0 0 56 55.994">
  <g id="payment-method" transform="translate(0 -0.023)">
    <g id="Grupo_283" data-name="Grupo 283" transform="translate(16.707 42.005)">
      <g id="Grupo_282" data-name="Grupo 282">
        <path id="Caminho_610" data-name="Caminho 610" d="M154.916,384.737a1.14,1.14,0,0,0-.062-.206,1.111,1.111,0,0,0-.1-.188,1.062,1.062,0,0,0-.3-.3,1.078,1.078,0,0,0-.189-.1,1.027,1.027,0,0,0-.2-.062,1.076,1.076,0,0,0-.427,0,1.06,1.06,0,0,0-.206.062,1.108,1.108,0,0,0-.188.1,1.093,1.093,0,0,0-.4.49,1.061,1.061,0,0,0-.062.206,1.051,1.051,0,0,0,0,.427,1.028,1.028,0,0,0,.062.2,1.012,1.012,0,0,0,.1.189,1.063,1.063,0,0,0,.3.3,1.1,1.1,0,0,0,.188.1,1.06,1.06,0,0,0,.206.062,1.05,1.05,0,0,0,.427,0,1.027,1.027,0,0,0,.2-.062,1.081,1.081,0,0,0,.189-.1,1.063,1.063,0,0,0,.3-.3,1.079,1.079,0,0,0,.1-.189,1.1,1.1,0,0,0,.062-.2,1.05,1.05,0,0,0,0-.427Z" transform="translate(-152.75 -383.857)" fill="#fff"/>
      </g>
    </g>
    <g id="Grupo_285" data-name="Grupo 285" transform="translate(0 33.918)">
      <g id="Grupo_284" data-name="Grupo 284">
        <path id="Caminho_611" data-name="Caminho 611" d="M50.311,319.225l-.013-.032c-1.007-2.356-3.368-3.226-6.162-2.272l-7.62,2.107a5,5,0,0,0-3.093-3.046l-.029-.01-8.376-2.843a8.639,8.639,0,0,0-6.97-3.207c-2.857,0-5.385,1.96-6.831,4.1H1.094A1.094,1.094,0,0,0,0,315.113V328.9A1.094,1.094,0,0,0,1.094,330H7.6A1.094,1.094,0,0,0,8.691,328.9v-.944h3.05a1.094,1.094,0,0,0,1.094-1.094v-.315a7.755,7.755,0,0,1,4,1.434,66.193,66.193,0,0,0,6.571,3.355l.048.02a9.818,9.818,0,0,0,3.519.663,8.718,8.718,0,0,0,3.624-.776l16.843-6.03c.03-.011.06-.023.088-.036C49.131,324.439,51.53,322.351,50.311,319.225ZM6.5,327.808H2.187v-11.6H6.5Zm4.143-2.038H8.691v-9.564h1.956Zm36-2.6L29.813,329.2l-.049.019-.044.019a7.089,7.089,0,0,1-5.447.093,63.362,63.362,0,0,1-6.35-3.244,9.844,9.844,0,0,0-5.088-1.731v-8.809c1.037-1.7,3.047-3.439,5.215-3.439a6.311,6.311,0,0,1,5.354,2.515,1.094,1.094,0,0,0,.58.463l8.693,2.95a2.454,2.454,0,0,1,1.785,2.9,2.131,2.131,0,0,1-2.618,1.471l-9.8-3.105a1.094,1.094,0,1,0-.661,2.085l9.816,3.111.031.009a4.293,4.293,0,0,0,3.283-.382,4.29,4.29,0,0,0,2.052-2.591q.038-.133.067-.266l8.212-2.275c1.186-.405,2.743-.551,3.436,1.045C49,321.911,47.132,322.942,46.648,323.173Z" transform="translate(0 -309.922)" fill="#fff"/>
      </g>
    </g>
    <g id="Grupo_287" data-name="Grupo 287" transform="translate(37.105 13.528)">
      <g id="Grupo_286" data-name="Grupo 286">
        <path id="Caminho_612" data-name="Caminho 612" d="M341.417,124.378a1.063,1.063,0,0,0-.063-.206,1.078,1.078,0,0,0-.4-.49,1.106,1.106,0,0,0-.188-.1,1.089,1.089,0,0,0-.632-.062,1.026,1.026,0,0,0-.2.062,1.081,1.081,0,0,0-.189.1,1.064,1.064,0,0,0-.3.3,1.106,1.106,0,0,0-.1.188,1.059,1.059,0,0,0-.062.206,1.049,1.049,0,0,0,0,.427,1.027,1.027,0,0,0,.062.2,1.076,1.076,0,0,0,.1.189,1.063,1.063,0,0,0,.3.3,1.081,1.081,0,0,0,.189.1,1.105,1.105,0,0,0,.2.062,1.078,1.078,0,0,0,.213.022,1.1,1.1,0,0,0,.214-.022,1.158,1.158,0,0,0,.2-.062,1.107,1.107,0,0,0,.188-.1,1.063,1.063,0,0,0,.3-.3,1.011,1.011,0,0,0,.1-.189,1.03,1.03,0,0,0,.063-.2,1.1,1.1,0,0,0,0-.427Z" transform="translate(-339.25 -123.498)" fill="#fff"/>
      </g>
    </g>
    <g id="Grupo_289" data-name="Grupo 289" transform="translate(3.247 0.023)">
      <g id="Grupo_288" data-name="Grupo 288">
        <path id="Caminho_613" data-name="Caminho 613" d="M81.349,3.728h-6.5a1.094,1.094,0,0,0-1.094,1.094v.944H70.7a1.094,1.094,0,0,0-1.094,1.094v.315a7.755,7.755,0,0,1-4-1.434,66.182,66.182,0,0,0-6.571-3.355l-.048-.02a9.305,9.305,0,0,0-7.142.112l-4.4,1.576L43.742.344a1.094,1.094,0,0,0-1.547,0l-12.18,12.18a1.085,1.085,0,0,0,0,1.547L50.828,34.882a1.182,1.182,0,0,0,1.547,0l11.12-11.119c.289.025.589.038.9.038,2.858,0,5.385-1.96,6.831-4.1H81.349a1.094,1.094,0,0,0,1.094-1.094V4.821A1.094,1.094,0,0,0,81.349,3.728ZM42.968,2.664l2.493,2.493a4.768,4.768,0,0,1-4.986,0Zm-8.14,13.126L32.335,13.3,34.828,10.8a4.769,4.769,0,0,1,0,4.986ZM51.6,32.562,49.109,30.07a4.762,4.762,0,0,1,4.985,0Zm4.068-4.068a6.95,6.95,0,0,0-8.136,0L36.4,17.365a6.951,6.951,0,0,0,0-8.137l2.5-2.5a6.951,6.951,0,0,0,8.137,0L49.4,9.1a4.335,4.335,0,0,0-3.255,2.385A6.234,6.234,0,1,0,53.316,19.2l3.693,1.253A6.983,6.983,0,0,0,58.167,26ZM49.02,17.741l.029.01,2.187.742a4.047,4.047,0,1,1-5.493-4.623A4.842,4.842,0,0,0,49.02,17.741ZM59.743,24.42a4.784,4.784,0,0,1-.7-2.275,8.5,8.5,0,0,0,1.929,1.044Zm9.866-6.245c-1.037,1.7-3.047,3.439-5.215,3.439a7.961,7.961,0,0,1-1.141-.08h0A6.264,6.264,0,0,1,59.2,19.316c-.022-.033-.117-.157-.131-.178a1.09,1.09,0,0,0-.6-.5l-8.7-2.951a2.454,2.454,0,0,1-1.785-2.894v-.005A2.131,2.131,0,0,1,50.6,11.319l9.8,3.105a1.094,1.094,0,1,0,.661-2.085l-7.793-2.47L53.2,9.8l0,0L49.162,5.764,52.63,4.522l.038-.014.011,0,.044-.019a7.088,7.088,0,0,1,5.447-.093,63.357,63.357,0,0,1,6.351,3.244,9.843,9.843,0,0,0,5.088,1.731Zm4.144-.658H71.8V7.953h1.956Zm6.5,0H75.94V5.915h4.316Z" transform="translate(-29.691 -0.023)" fill="#fff"/>
      </g>
    </g>
  </g>
</svg>
