<svg xmlns="http://www.w3.org/2000/svg" width="61.678" height="61.68" viewBox="0 0 61.678 61.68">
  <g id="Grupo_269" data-name="Grupo 269" transform="translate(-626 -3718)">
    <path id="Caminho_274" data-name="Caminho 274" d="M96.961,215.871,89.175,229.5A8.856,8.856,0,0,0,95.966,242.7v4.024h1.99V242.7a8.856,8.856,0,0,0,6.792-13.2Zm.995,24.821v-6.568l2.786-3.714-1.592-1.193-1.194,1.592V224.84h-1.99v10.531l-2.281-2.281L92.279,234.5l3.688,3.688v2.507A6.861,6.861,0,0,1,90.9,230.484l6.059-10.6,6.06,10.6a6.861,6.861,0,0,1-5.065,10.207Zm0,0" transform="translate(548.935 3528.973)" fill="#fff"/>
    <path id="Caminho_275" data-name="Caminho 275" d="M355.437,214.4l-.889-1.78-2.54,1.27v4.27l2.54,1.27.889-1.78-1.44-.72v-1.811Zm0,0" transform="translate(317.764 3531.822)" fill="#fff"/>
    <path id="Caminho_276" data-name="Caminho 276" d="M59.7,44.95V36.193l-5.969-2.984V26.48l5.419-2.71-.89-1.78-5.523,2.762L47.76,22.266V15.537l4.974-2.487,5.524,2.761.89-1.78-5.42-2.709V3.979h-1.99v7.344L46.765,13.81l-5.524-2.761-.89,1.78,5.419,2.709v6.729L40.8,24.753l-4.974-2.487V15.734a2.984,2.984,0,1,0-1.99,0v6.532l-4.15,2.075a3.133,3.133,0,0,1-.824-2.135V7.958a3.979,3.979,0,1,0,0-7.958H10.952a3.979,3.979,0,1,0,0,7.958V22.238A2.981,2.981,0,0,1,9.574,24.8a19.885,19.885,0,0,0,8.06,36.755,20.937,20.937,0,0,0,2.3.128,19.668,19.668,0,0,0,13.234-5.071,19.926,19.926,0,0,0,5.667-8.725l.964.482v7.958l6.519,3.259.89-1.78-5.42-2.709V48.366l5.419-2.71.55-.274V37.423l4.974-2.487,4.974,2.487V44.95a2.984,2.984,0,1,0,1.99,0ZM39.8,26.48v6.729L38.221,34a19.758,19.758,0,0,0-6.708-8.349l3.315-1.656ZM34.827,11.938a.995.995,0,1,1-.995.995A1,1,0,0,1,34.827,11.938Zm-2.982,43.19A17.9,17.9,0,1,1,10.61,26.5a4.873,4.873,0,0,0,2.055-2.623H18.91v-1.99H12.941V19.9H20.9v-1.99H12.941v-1.99H18.91v-1.99H12.941v-1.99H20.9V9.948H12.941V5.969h-1.99a1.99,1.99,0,1,1,0-3.979H28.858a1.99,1.99,0,1,1,0,3.979H16.921v1.99h9.948V22.206a5.041,5.041,0,0,0,2.352,4.3,17.887,17.887,0,0,1,2.624,28.618ZM40.8,46.638l-1.432-.716a19.888,19.888,0,0,0-.456-10.043l1.888-.944,4.974,2.487v6.729Zm10.943-13.43L46.765,35.7l-4.974-2.487V26.48l4.974-2.487,4.974,2.487ZM58.7,48.746a.995.995,0,1,1,.995-.995A1,1,0,0,1,58.7,48.746Zm0,0" transform="translate(625.991 3718)" fill="#fff"/>
  </g>
</svg>
