<svg width="13" height="18" viewBox="0 0 13 18" fill="none" xmlns="http://www.w3.org/2000/svg">
<path d="M4.15011 18C3.04194 18 2 17.56 1.21634 16.763C0.432671 15.9661 0 14.9065 0 13.7795C0 12.6525 0.430464 11.5929 1.21634 10.796L2.98455 9L1.21634 7.20404C-0.401766 5.55849 -0.401766 2.88027 1.21634 1.23697C2 0.437765 3.03973 0 4.15011 0C5.26049 0 6.30022 0.437765 7.08389 1.23697L11.7837 6.01646C12.5673 6.81342 13 7.87304 13 9C13 10.127 12.5695 11.1866 11.7837 11.9835L7.08389 16.763C6.30022 17.56 5.25828 18 4.15011 18ZM4.15011 1.98678C3.56512 1.98678 3.01325 2.21801 2.59823 2.64006C1.74172 3.50886 1.74172 4.92542 2.59823 5.79646L5.74834 9L2.59823 12.2035C2.18322 12.6256 1.95585 13.1846 1.95585 13.7817C1.95585 14.3789 2.18322 14.9379 2.59823 15.3599C3.01325 15.782 3.56291 16.0132 4.15011 16.0132C4.73731 16.0132 5.28698 15.782 5.70199 15.3599L10.4018 10.5804C10.8168 10.1584 11.0442 9.5994 11.0442 9.00224C11.0442 8.40509 10.8168 7.8461 10.4018 7.42405L5.69978 2.6423C5.28477 2.22025 4.7351 1.98902 4.1479 1.98902L4.15011 1.98678Z" fill="#00D19D"/>
</svg>
