<svg width="50" height="35" viewBox="0 0 50 35" fill="none" xmlns="http://www.w3.org/2000/svg">
<g clip-path="url(#clip0_2192_18159)">
<rect width="50" height="35" fill="white"/>
<path d="M42.5 0H7.5V35H42.5V0Z" fill="white"/>
<path d="M7.5 0V35H42.5V29.47H37.67L35.885 27.3819L34.03 29.47H20.31V18.3519H15.7831L21.4419 5.5419H26.9481L28.2781 8.4469V5.5419H35.115L36.2581 8.5869L37.3781 5.5419H42.5V0H7.5ZM38.545 7.35L36.7481 12.0869L36.27 13.3707L35.78 12.0869L33.9719 7.35H30.0169V16.6838H32.3969V10.6057L32.385 9.38L32.8519 10.6057L35.1269 16.6838H37.39L39.6769 10.6057L40.12 9.3919V16.6838H42.5V7.35H38.545ZM22.725 7.35L18.595 16.6838H21.3012L22.025 14.8869H26.5519L27.275 16.6838H30.0169L25.91 7.35H22.725ZM23.8212 10.5119L24.2881 9.3457L24.755 10.5119L25.7231 12.8681H22.8531L23.8212 10.5119ZM38.7319 18.3638L35.92 21.385L33.12 18.3638H30.0169H22.2231V27.6619H30.0169V25.6438H24.6031V24.0219H29.9119V22.0157H24.6031V20.3819H30.0169V18.3638L34.3681 23.03L30.0169 27.6619H33.0269L35.8619 24.6288L38.685 27.6619H41.7762L37.4131 22.995L41.7762 18.3638H38.7319ZM39.8631 22.9838L42.5 25.6669V20.335L39.8631 22.9838Z" fill="#006FCF"/>
</g>
<defs>
<clipPath id="clip0_2192_18159">
<rect width="50" height="35" fill="white"/>
</clipPath>
</defs>
</svg>
