<svg width="346" height="198" viewBox="0 0 346 198" fill="none" xmlns="http://www.w3.org/2000/svg">
<rect width="346" height="198" rx="26" fill="url(#paint0_linear_882_22232)"/>
<g style="mix-blend-mode:overlay" opacity="0.15">
<mask id="mask0_882_22232" style="mask-type:alpha" maskUnits="userSpaceOnUse" x="0" y="0" width="346" height="198">
<rect width="346" height="198" rx="26" fill="url(#paint1_linear_882_22232)"/>
</mask>
<g mask="url(#mask0_882_22232)">
<path d="M349.772 223.97C335.641 223.97 321.482 218.469 310.73 207.436L248.187 143.434C237.758 132.762 232 118.572 232 103.481C232 88.39 237.728 74.2008 248.187 63.5287L310.73 -0.473385C332.263 -22.5089 367.28 -22.5089 388.813 -0.473385C410.347 21.5621 410.347 57.3961 388.813 79.4316L365.312 103.481L388.813 127.561C399.242 138.233 405 152.422 405 167.513C405 182.605 399.272 196.794 388.813 207.466C378.062 218.469 363.902 224 349.772 224V223.97ZM349.772 9.5974C342.31 9.5974 334.819 12.5134 329.12 18.3455L266.576 82.3476C261.054 87.9992 258.028 95.4847 258.028 103.481C258.028 111.478 261.054 118.963 266.576 124.615L329.12 188.617C340.518 200.251 359.025 200.251 370.424 188.617C375.946 182.965 378.972 175.48 378.972 167.483C378.972 159.487 375.946 152.001 370.424 146.35L328.503 103.451L370.424 60.5526C381.822 48.8885 381.822 29.9494 370.424 18.2853C364.724 12.4533 357.263 9.53728 349.772 9.53728V9.5974Z" fill="white"/>
<path d="M194.228 224C179.481 224 165.615 218.109 155.187 207.438C144.758 196.768 139 182.581 139 167.492C139 152.403 144.729 138.216 155.187 127.546L178.717 103.5L155.187 79.4541C133.653 57.4221 133.653 21.5937 155.187 -0.438388C165.615 -11.1088 179.481 -17 194.228 -17C208.976 -17 222.841 -11.1388 233.27 -0.438388L295.813 63.5538C306.242 74.2241 312 88.4112 312 103.5C312 118.589 306.272 132.776 295.813 143.446L233.27 207.438C222.841 218.109 208.976 224 194.228 224ZM194.228 9.60077C186.444 9.60077 179.099 12.6967 173.577 18.3475C162.178 29.9797 162.178 48.9459 173.577 60.6081L215.497 103.5L173.577 146.392C168.054 152.043 165.028 159.527 165.028 167.522C165.028 175.517 168.054 183.002 173.577 188.653C179.099 194.303 186.414 197.399 194.228 197.399C202.043 197.399 209.357 194.303 214.88 188.653L277.423 124.66C282.946 119.01 285.972 111.525 285.972 103.53C285.972 95.5348 282.946 88.0505 277.423 82.3997L214.88 18.4076C209.357 12.7568 202.043 9.66089 194.228 9.66089V9.60077Z" fill="#00D19D"/>
</g>
</g>
<defs>
<linearGradient id="paint0_linear_882_22232" x1="254" y1="99" x2="-6.29326e-06" y2="99" gradientUnits="userSpaceOnUse">
<stop stop-color="#002399"/>
<stop offset="0.995136" stop-color="#0D62B0"/>
</linearGradient>
<linearGradient id="paint1_linear_882_22232" x1="254" y1="99" x2="-6.29326e-06" y2="99" gradientUnits="userSpaceOnUse">
<stop stop-color="#002399"/>
<stop offset="0.995136" stop-color="#0D62B0"/>
</linearGradient>
</defs>
</svg>
