<svg width="50" height="35" viewBox="0 0 50 35" fill="none" xmlns="http://www.w3.org/2000/svg">
<g clip-path="url(#clip0_2192_18161)">
<rect width="50" height="35" fill="white"/>
<path d="M21.9085 7.72952C22.937 7.3867 24.034 7.20386 25.1722 7.20386C30.1546 7.20386 34.3142 10.7418 35.2649 15.4453L42.3271 14.0055C40.709 6.01541 33.6422 0 25.1722 0C23.2295 0 21.3692 0.315397 19.623 0.900482L21.9085 7.72952Z" fill="#FFCB05"/>
<path d="M13.5756 30.6116L18.3523 25.2133C16.2222 23.3255 14.8784 20.5692 14.8784 17.4975C14.8784 14.4304 16.2222 11.6741 18.3523 9.79084L13.5756 4.38794C9.95541 7.59677 7.66992 12.282 7.66992 17.4975C7.66992 22.7176 9.95541 27.4028 13.5756 30.6116Z" fill="#00A4E0"/>
<path d="M35.2649 19.5637C34.3096 24.2627 30.1546 27.7961 25.1768 27.7961C24.034 27.7961 22.9324 27.6132 21.9085 27.2658L19.623 34.104C21.3692 34.6845 23.2341 34.9999 25.1768 34.9999C33.6377 34.9999 40.6998 28.9936 42.3271 21.0127L35.2649 19.5637Z" fill="#EF4123"/>
</g>
<defs>
<clipPath id="clip0_2192_18161">
<rect width="50" height="35" fill="white"/>
</clipPath>
</defs>
</svg>
