<svg width="39" height="40" viewBox="0 0 39 40" fill="none" xmlns="http://www.w3.org/2000/svg">
<path d="M21.1268 24.4683H19.5018C18.8356 24.4683 18.2831 23.9158 18.2831 23.2495C18.2831 22.5833 18.8356 22.0308 19.5018 22.0308H21.1268C22.2481 22.0308 23.1581 21.1208 23.1581 19.9995V4.96826H9.75184C7.83434 4.96826 6.07929 6.00823 5.13679 7.68198C4.81179 8.26698 4.06436 8.4783 3.47936 8.1533C2.89436 7.8283 2.68305 7.08077 3.00805 6.49577C4.37305 4.05827 6.95684 2.53076 9.75184 2.53076H24.3768C25.0431 2.53076 25.5956 3.08326 25.5956 3.74951V19.9995C25.5956 22.4695 23.5968 24.4683 21.1268 24.4683Z" fill="#002399"/>
<path d="M30.873 34.2183H29.248C28.5818 34.2183 28.0293 33.6658 28.0293 32.9995C28.0293 31.8783 27.1193 30.9683 25.998 30.9683C24.8768 30.9683 23.9668 31.8783 23.9668 32.9995C23.9668 33.6658 23.4143 34.2183 22.748 34.2183H16.248C15.5818 34.2183 15.0293 33.6658 15.0293 32.9995C15.0293 31.8783 14.1193 30.9683 12.998 30.9683C11.8768 30.9683 10.9668 31.8783 10.9668 32.9995C10.9668 33.6658 10.4143 34.2183 9.74805 34.2183H8.12305C4.7593 34.2183 2.0293 31.4883 2.0293 28.1245C2.0293 27.4583 2.5818 26.9058 3.24805 26.9058C3.9143 26.9058 4.4668 27.4583 4.4668 28.1245C4.4668 30.1395 6.10805 31.7808 8.12305 31.7808H8.69176C9.22801 29.912 10.9505 28.5308 12.998 28.5308C15.0455 28.5308 16.7681 29.912 17.3043 31.7808H21.708C22.2443 29.912 23.9668 28.5308 26.0143 28.5308C28.0618 28.5308 29.7843 29.912 30.3205 31.7808H30.873C32.888 31.7808 34.5293 30.1395 34.5293 28.1245V24.4683H30.873C29.313 24.4683 28.0293 23.1845 28.0293 21.6245V16.7495C28.0293 15.1895 29.2968 13.9058 30.873 13.9058L29.1343 10.867C28.7768 10.2333 28.0943 9.84326 27.3631 9.84326H25.5918V19.9995C25.5918 22.4695 23.593 24.4683 21.123 24.4683H19.498C18.8318 24.4683 18.2793 23.9158 18.2793 23.2495C18.2793 22.5833 18.8318 22.0308 19.498 22.0308H21.123C22.2443 22.0308 23.1543 21.1208 23.1543 19.9995V8.62451C23.1543 7.95826 23.7068 7.40576 24.373 7.40576H27.3631C28.9718 7.40576 30.4505 8.26704 31.2468 9.66454L34.0256 14.5233C34.2368 14.897 34.2368 15.3683 34.0256 15.742C33.8143 16.1158 33.408 16.3433 32.9693 16.3433H30.873C30.6455 16.3433 30.4668 16.522 30.4668 16.7495V21.6245C30.4668 21.852 30.6455 22.0308 30.873 22.0308H35.748C36.4143 22.0308 36.9668 22.5833 36.9668 23.2495V28.1245C36.9668 31.4883 34.2368 34.2183 30.873 34.2183Z" fill="#002399"/>
<path d="M13 37.4688C10.53 37.4688 8.53125 35.47 8.53125 33C8.53125 30.53 10.53 28.5312 13 28.5312C15.47 28.5312 17.4688 30.53 17.4688 33C17.4688 35.47 15.47 37.4688 13 37.4688ZM13 30.9688C11.8788 30.9688 10.9688 31.8788 10.9688 33C10.9688 34.1213 11.8788 35.0312 13 35.0312C14.1213 35.0312 15.0312 34.1213 15.0312 33C15.0312 31.8788 14.1213 30.9688 13 30.9688Z" fill="#002399"/>
<path d="M25.998 37.4688C23.528 37.4688 21.5293 35.47 21.5293 33C21.5293 30.53 23.528 28.5312 25.998 28.5312C28.468 28.5312 30.4668 30.53 30.4668 33C30.4668 35.47 28.468 37.4688 25.998 37.4688ZM25.998 30.9688C24.8768 30.9688 23.9668 31.8788 23.9668 33C23.9668 34.1213 24.8768 35.0312 25.998 35.0312C27.1193 35.0312 28.0293 34.1213 28.0293 33C28.0293 31.8788 27.1193 30.9688 25.998 30.9688Z" fill="#002399"/>
<path d="M35.75 24.4688H30.875C29.315 24.4688 28.0312 23.185 28.0312 21.625V16.75C28.0312 15.19 29.315 13.9062 30.875 13.9062H32.9712C33.41 13.9062 33.8163 14.1338 34.0275 14.5238L36.8063 19.3988C36.9038 19.5775 36.9688 19.7888 36.9688 20V23.25C36.9688 23.9163 36.4163 24.4688 35.75 24.4688ZM30.875 16.3438C30.6475 16.3438 30.4688 16.5225 30.4688 16.75V21.625C30.4688 21.8525 30.6475 22.0312 30.875 22.0312H34.5312V20.325L32.2562 16.3438H30.875Z" fill="#002399"/>
<path d="M12.998 14.7183H3.24805C2.5818 14.7183 2.0293 14.1658 2.0293 13.4995C2.0293 12.8333 2.5818 12.2808 3.24805 12.2808H12.998C13.6643 12.2808 14.2168 12.8333 14.2168 13.4995C14.2168 14.1658 13.6643 14.7183 12.998 14.7183Z" fill="#002399"/>
<path d="M9.74805 19.5933H3.24805C2.5818 19.5933 2.0293 19.0408 2.0293 18.3745C2.0293 17.7083 2.5818 17.1558 3.24805 17.1558H9.74805C10.4143 17.1558 10.9668 17.7083 10.9668 18.3745C10.9668 19.0408 10.4143 19.5933 9.74805 19.5933Z" fill="#002399"/>
<path d="M6.49805 24.4683H3.24805C2.5818 24.4683 2.0293 23.9158 2.0293 23.2495C2.0293 22.5833 2.5818 22.0308 3.24805 22.0308H6.49805C7.1643 22.0308 7.7168 22.5833 7.7168 23.2495C7.7168 23.9158 7.1643 24.4683 6.49805 24.4683Z" fill="#002399"/>
</svg>
