<svg width="377" height="59" viewBox="0 0 377 59" fill="none" xmlns="http://www.w3.org/2000/svg">
<g clip-path="url(#clip0_432_5304)">
<path d="M292.936 58.9706H292.417C284.881 58.9706 278.745 52.8808 278.745 45.401V13.5696C278.745 6.08975 284.881 0 292.417 0H292.936C300.472 0 306.608 6.08975 306.608 13.5696V45.4084C306.608 52.8882 300.472 58.9779 292.936 58.9779V58.9706ZM292.417 6.51633C288.497 6.51633 285.31 9.67888 285.31 13.5696V45.4084C285.31 49.2991 288.497 52.4616 292.417 52.4616H292.936C296.856 52.4616 300.042 49.2991 300.042 45.4084V13.5696C300.042 9.67888 296.856 6.51633 292.936 6.51633H292.417Z" fill="white"/>
<path d="M363.068 58.9628C359.504 58.9628 355.932 57.6169 353.22 54.9177L337.443 39.2594C334.812 36.6484 333.36 33.177 333.36 29.4849C333.36 25.7928 334.805 22.3213 337.443 19.7104L353.22 4.05208C358.652 -1.33897 367.485 -1.33897 372.917 4.05208C378.349 9.44312 378.349 18.21 372.917 23.6011L366.989 29.4849L372.917 35.3761C375.548 37.987 377 41.4585 377 45.1506C377 48.8426 375.555 52.3141 372.917 54.925C370.205 57.6169 366.633 58.9702 363.068 58.9702V58.9628ZM363.068 6.51592C361.186 6.51592 359.296 7.22934 357.859 8.65616L342.082 24.3145C340.689 25.6972 339.926 27.5285 339.926 29.4849C339.926 31.4413 340.689 33.2726 342.082 34.6553L357.859 50.3136C360.734 53.1599 365.403 53.1599 368.278 50.3136C369.671 48.9309 370.434 47.0996 370.434 45.1432C370.434 43.1868 369.671 41.3555 368.278 39.9728L357.703 29.4775L368.278 18.9823C371.153 16.1286 371.153 11.4951 368.278 8.64145C366.84 7.21463 364.958 6.50122 363.068 6.50122V6.51592Z" fill="white"/>
<path d="M323.867 58.9706C320.147 58.9706 316.649 57.529 314.019 54.9181C311.388 52.3072 309.936 48.8357 309.936 45.1436C309.936 41.4515 311.381 37.9801 314.019 35.3691L319.955 29.4853L314.019 23.6015C308.587 18.2104 308.587 9.44353 314.019 4.05248C316.649 1.44154 320.147 0 323.867 0C327.587 0 331.085 1.43418 333.716 4.05248L349.493 19.7108C352.123 22.3217 353.576 25.7932 353.576 29.4853C353.576 33.1774 352.131 36.6488 349.493 39.2598L333.716 54.9181C331.085 57.529 327.587 58.9706 323.867 58.9706ZM323.867 6.50898C321.903 6.50898 320.051 7.26652 318.658 8.64921C315.782 11.4955 315.782 16.1364 318.658 18.99L329.232 29.4853L318.658 39.9806C317.265 41.3632 316.501 43.1946 316.501 45.151C316.501 47.1073 317.265 48.9387 318.658 50.3214C320.051 51.7041 321.896 52.4616 323.867 52.4616C325.838 52.4616 327.684 51.7041 329.077 50.3214L344.854 34.6631C346.247 33.2804 347.01 31.449 347.01 29.4926C347.01 27.5363 346.247 25.7049 344.854 24.3222L329.077 8.66392C327.684 7.28123 325.838 6.52368 323.867 6.52368V6.50898Z" fill="#00D19D"/>
<path d="M17.5924 6.78125C18.9189 6.78125 19.3561 7.22254 19.3561 8.53169V10.9441C19.3561 12.2606 18.9115 12.6945 17.5924 12.6945C12.9609 12.6945 11.3602 14.2243 11.3602 18.3871V18.9313H17.7036C18.9708 18.9313 19.3561 19.3138 19.3561 20.5715V23.0868C19.3561 24.3444 18.9708 24.7857 17.7036 24.7857H11.3602V45.5924C11.3602 46.8501 10.9749 47.2913 9.64843 47.2913H6.72129C5.39482 47.2913 4.9576 46.8501 4.9576 45.5924V24.7857H1.65253C0.385344 24.7857 0 24.3444 0 23.0868V20.5715C0 19.3138 0.385344 18.9313 1.65253 18.9313H4.96501V18.3871C4.96501 10.7749 8.98889 6.94306 17.1034 6.78125H17.5999H17.5924Z" fill="white"/>
<path d="M33.9252 18.1148C41.81 18.1148 45.7301 21.8951 45.7301 29.3896V43.5697C45.7301 45.4892 45.2855 46.0335 43.7441 46.6881C41.5358 47.6148 38.2307 48.1075 33.8141 48.1075C29.1232 48.1075 25.9293 47.3941 24.1582 45.9158C22.3945 44.489 21.5127 42.2458 21.5127 39.2377C21.5127 32.7214 25.0401 30.4267 34.0364 30.4267C34.4217 30.4267 36.1854 30.537 39.3349 30.6988V29.169C39.3349 25.6093 37.7935 23.7485 33.8215 23.7485C31.1167 23.7485 29.1899 24.6238 28.0265 26.3742C27.1965 27.5215 26.9223 27.6319 25.6551 27.1979L23.4468 26.2639C22.2315 25.7196 21.9054 24.8959 22.5131 23.8C24.4991 20.0197 28.3081 18.1074 33.9326 18.1074L33.9252 18.1148ZM39.3275 35.906C35.4666 35.7442 33.4806 35.6339 33.3176 35.6339C29.3456 35.6339 28.0191 36.7812 28.0191 39.1936C28.0191 41.6059 29.1751 42.8636 33.2064 42.8636C35.5778 42.8636 37.4007 42.7018 38.7198 42.4223C39.1051 42.2605 39.3275 42.0399 39.3275 41.6574V35.906Z" fill="white"/>
<path d="M62.7816 18.1152C64.0488 18.1152 64.4934 18.4977 64.4934 19.8142V22.2266C64.4934 23.4842 64.0488 23.9255 62.7816 23.9255H60.7956C58.7577 23.9255 56.9866 24.1461 55.5564 24.5801C55.1711 24.6316 55.008 24.8522 55.008 25.2347V45.6C55.008 46.8577 54.6227 47.299 53.3555 47.299H50.3246C49.0574 47.299 48.6128 46.8577 48.6128 45.6V22.8811C48.6128 21.1307 48.9981 20.4761 50.7618 19.7627C53.4666 18.7772 56.8829 18.2329 61.0179 18.1226H62.7816V18.1152Z" fill="white"/>
<path d="M95.4248 18.1153C102.65 18.1153 106.237 21.7265 106.237 29.0077V45.5927C106.237 46.8504 105.851 47.2917 104.584 47.2917H101.553C100.286 47.2917 99.8414 46.8504 99.8414 45.5927V29.221C99.8414 25.6613 98.0777 23.9109 94.4911 23.9109C92.8385 23.9109 91.0674 24.2418 89.1407 24.8964C89.5261 25.9334 89.7484 27.3014 89.7484 29.0004V45.5854C89.7484 46.843 89.3038 47.2843 88.0366 47.2843H85.0576C83.7904 47.2843 83.3457 46.843 83.3457 45.5854V29.2137C83.3457 25.6539 81.5228 23.9035 77.9435 23.9035C76.3428 23.9035 74.9126 24.1241 73.5269 24.5581C73.2527 24.6684 73.0822 24.889 73.0822 25.2127V45.578C73.0822 46.8357 72.6969 47.277 71.4297 47.277H68.3988C67.1316 47.277 66.687 46.8357 66.687 45.578V23.0798C66.687 21.3293 67.1316 20.6748 68.836 19.9613C71.8669 18.7037 75.2313 18.1006 78.8772 18.1006C81.797 18.1006 84.0646 18.7037 85.7171 19.9099C88.748 18.7037 91.9493 18.1006 95.4248 18.1006V18.1153Z" fill="white"/>
<path d="M121.28 18.1148C129.164 18.1148 133.085 21.8951 133.085 29.3896V43.5697C133.085 45.4892 132.64 46.0335 131.099 46.6881C128.89 47.6148 125.585 48.1075 121.169 48.1075C116.478 48.1075 113.284 47.3941 111.513 45.9158C109.749 44.489 108.867 42.2458 108.867 39.2377C108.867 32.7214 112.395 30.4267 121.391 30.4267C121.776 30.4267 123.54 30.537 126.689 30.6988V29.169C126.689 25.6093 125.148 23.7485 121.176 23.7485C118.471 23.7485 116.544 24.6238 115.381 26.3742C114.551 27.5215 114.277 27.6319 113.01 27.1979L110.801 26.2639C109.586 25.7196 109.26 24.8959 109.868 23.8C111.854 20.0197 115.663 18.1074 121.287 18.1074L121.28 18.1148ZM126.682 35.906C122.821 35.7442 120.835 35.6339 120.672 35.6339C116.7 35.6339 115.374 36.7812 115.374 39.1936C115.374 41.6059 116.53 42.8636 120.561 42.8636C122.932 42.8636 124.755 42.7018 126.074 42.4223C126.46 42.2605 126.682 42.0399 126.682 41.6574V35.906Z" fill="white"/>
<path d="M135.671 29.3386C135.671 22.1677 139.917 18.1152 148.358 18.1152C154.59 18.1152 158.673 20.9615 160.162 25.2861C160.607 26.6541 160.274 27.2572 158.947 27.75L156.524 28.5149C155.197 29.0077 154.59 28.6767 154.093 27.3675C153.152 24.9037 151.114 23.6975 148.083 23.6975C144.06 23.6975 142.074 25.5068 142.074 29.0591V37.1641C142.074 40.6135 144.171 42.5257 148.083 42.5257C151.114 42.5257 153.16 41.2681 154.093 38.7454C154.59 37.4289 155.197 37.2156 156.524 37.6495L159.006 38.3629C160.274 38.8557 160.659 39.6794 160.162 40.8268C158.228 45.703 154.153 48.108 147.861 48.108C139.695 48.108 135.671 44.0555 135.671 36.8846V29.3313V29.3386Z" fill="white"/>
<path d="M166.38 8.31055C168.973 8.31055 169.744 9.13428 169.744 11.5981V12.0909C169.744 14.6651 168.973 15.43 166.38 15.43H165.994C163.512 15.43 162.63 14.6651 162.63 12.0909V11.5981C162.63 9.13428 163.401 8.31055 165.994 8.31055H166.38ZM167.706 18.9308C168.973 18.9308 169.418 19.3133 169.418 20.571V45.5919C169.418 46.8496 168.973 47.2909 167.706 47.2909H164.675C163.408 47.2909 163.023 46.8496 163.023 45.5919V20.5783C163.023 19.3206 163.408 18.9382 164.675 18.9382H167.706V18.9308Z" fill="white"/>
<path d="M184.721 18.1148C192.605 18.1148 196.526 21.8951 196.526 29.3896V43.5697C196.526 45.4892 196.081 46.0335 194.539 46.6881C192.331 47.6148 189.026 48.1075 184.609 48.1075C179.919 48.1075 176.725 47.3941 174.954 45.9158C173.19 44.489 172.308 42.2458 172.308 39.2377C172.308 32.7214 175.835 30.4267 184.832 30.4267C185.217 30.4267 186.981 30.537 190.13 30.6988V29.169C190.13 25.6093 188.589 23.7485 184.617 23.7485C181.912 23.7485 179.985 24.6238 178.822 26.3742C177.992 27.5215 177.718 27.6319 176.451 27.1979L174.242 26.2639C173.027 25.7196 172.701 24.8959 173.309 23.8C175.295 20.0197 179.103 18.1074 184.728 18.1074L184.721 18.1148ZM190.123 35.906C186.262 35.7442 184.276 35.6339 184.113 35.6339C180.141 35.6339 178.814 36.7812 178.814 39.1936C178.814 41.6059 179.971 42.8636 184.002 42.8636C186.373 42.8636 188.196 42.7018 189.515 42.4223C189.901 42.2605 190.123 42.0399 190.123 41.6574V35.906Z" fill="white"/>
<path d="M261.671 0.029874C261.671 0.029874 255.898 -0.220188 251.393 4.25151L250.407 5.2297L239.047 16.534C239.047 16.534 227.664 5.23705 227.664 5.2297L226.679 4.25151C222.166 -0.220188 216.386 0.029874 216.386 0.029874C208.849 0.029874 202.713 5.16351 202.713 13.5994V45.4383C202.713 52.9181 208.842 59.0078 216.386 59.0078H216.904C223.9 59.0078 229.687 53.7639 230.48 47.0342C230.48 47.0269 230.48 47.0195 230.48 47.0122C232.963 48.998 235.994 50.844 239.025 50.8514C242.056 50.844 245.086 48.998 247.569 47.0122C247.569 47.0122 247.569 47.0269 247.569 47.0342C248.362 53.7712 254.149 59.0078 261.145 59.0078H261.664C269.2 59.0078 275.336 52.9254 275.336 45.4383V13.5994C275.343 5.17086 269.207 0.029874 261.671 0.029874ZM268.778 45.4309C268.778 49.3216 265.591 52.4841 261.671 52.4841H261.152C257.232 52.4841 254.046 49.3216 254.046 45.4309V31.4936L244.019 41.4446C242.641 42.8126 240.833 44.0629 239.025 44.0776C239.025 44.0776 239.032 44.0776 239.039 44.0776H239.017C239.017 44.0776 239.025 44.0776 239.032 44.0776C237.224 44.0629 235.416 42.8126 234.037 41.4446L224.011 31.4936V45.4309C224.011 49.3216 220.825 52.4841 216.904 52.4841H216.386C212.466 52.4841 209.279 49.3216 209.279 45.4309V13.5994C209.279 9.01741 212.466 6.5462 216.386 6.5462C216.386 6.5462 219.454 6.31085 222.699 9.53224L239.017 25.7495L255.357 9.53224C258.603 6.31085 261.671 6.5462 261.671 6.5462C265.591 6.5462 268.778 9.01741 268.778 13.5994V45.4383V45.4309Z" fill="white"/>
<path d="M125.378 8.3849C125.378 8.3849 117.308 8.25252 116.055 16.2398C116.055 16.2398 123.94 16.637 125.378 8.3849Z" fill="white"/>
</g>
<defs>
<clipPath id="clip0_432_5304">
<rect width="377" height="59" fill="white"/>
</clipPath>
</defs>
</svg>
